<svg xmlns="http://www.w3.org/2000/svg" viewBox="0 0 3014 441" width="3014" height="441"><title>New Project</title><style> .s0 { fill: #fff6e1 } </style><path id="Layer" class="s0" d="m1647.6 43.2c1.1-23.5 20.6-42 44.2-41.5c66.2 1.2 196.8 3.5 296.8 3.5c139.6 0 192.1-11.7 370.4 0c178.4 11.7 139.1 0 312.7 0c119.6 0 234-2.1 293.7-3.4c23.6-0.5 43.3 18 44 41.6c2.9 107 9.3 379.1-1.3 390.8c-13.2 14.6-509.5 2.5-627.9-6.8c-118.5-9.3-128.3 6.2-217 3.4c-86.9-2.6-176.1-3.4-179.7-3.4c-0.1 0-0.2 0-0.3 0h-297.9c-20.8 0-38.6-14.9-41.4-35.5c-5.9-43.3-13.7-118.1-7.8-178.5c5.7-57.1 9.5-126.6 11.5-170.2z"></path></svg>