<svg xmlns="http://www.w3.org/2000/svg" width="86" height="75" viewBox="0 0 86 75" fill="none"><path d="M67.5637 62.4443C59.3253 64.6018 50.6428 63.8184 43.4507 58.969C39.4562 56.2729 36.7497 53.2713 38.4551 48.2159C39.6287 44.786 41.552 41.6328 42.2221 38.0391C43.3279 32.2074 40.7032 26.7608 36.0431 23.2633C29.9678 18.6877 22.1202 18.5023 14.833 18.6261C11.5366 18.6798 11.6533 23.7244 14.9557 23.7426C22.8915 23.851 38.137 24.6018 37.6486 36.0401C37.3765 42.3892 31.0497 48.8228 34.0435 55.3184C36.4618 60.5597 43.5249 64.07 48.6693 65.676C55.0828 67.6861 61.9945 67.4125 68.229 64.9018C69.6989 64.3082 69.1226 62.0827 67.5299 62.5056L67.5637 62.4443Z" fill="#404040"></path><path d="M30.8948 33.4774C26.2331 27.272 20.1396 23.1432 13.0139 20.1808L13.0751 23.7327C16.949 21.0394 21.5419 20.582 25.7598 18.6725C29.9587 16.7273 33.892 14.2539 37.4641 11.3121C39.1999 9.90581 36.9236 7.22157 35.085 8.29696C30.664 10.9053 26.6735 13.934 21.7509 15.6715C17.9373 16.9932 14.3147 17.8035 10.9762 20.2097C9.874 21.0063 9.45632 23.1287 11.0325 23.7703C17.5925 26.5717 23.7297 30.2746 29.2665 34.7718C30.0647 35.3951 31.6796 34.5389 30.8803 33.5037L30.8948 33.4774Z" fill="#404040"></path><path d="M61.0598 60.2131C55.4391 59.2009 46.4 58.7118 43.5993 52.8597C43.1586 51.9197 41.773 52.754 42.2184 53.6852C45.2204 59.9797 54.8249 61.2034 60.983 60.8903C61.3511 60.8651 61.4369 60.2957 61.055 60.2219L61.0598 60.2131Z" fill="#404040"></path><path d="M42.5307 49.3911C42.273 49.2489 41.9693 49.2148 41.6864 49.2964C41.4036 49.3781 41.1648 49.5687 41.0225 49.8265C40.8803 50.0842 40.8462 50.3879 40.9279 50.6707C41.0095 50.9536 41.2002 51.1924 41.4579 51.3347C41.7156 51.477 42.0193 51.511 42.3022 51.4293C42.585 51.3477 42.8238 51.157 42.9661 50.8993C43.1084 50.6416 43.1424 50.3379 43.0608 50.055C42.9791 49.7722 42.7884 49.5334 42.5307 49.3911V49.3911Z" fill="#404040"></path></svg>