<svg xmlns="http://www.w3.org/2000/svg" width="67" height="45" viewBox="0 0 67 45" fill="none"><path d="M8.19589 23.3644C10.4728 30.1841 12.766 36.9793 15.2101 43.7422C15.7873 45.3869 18.6319 44.54 18.1153 42.8601C15.9582 35.8564 13.665 28.8815 11.3395 21.9168C10.6184 19.777 7.48157 21.2363 8.19589 23.3644Z" fill="#231F20"></path><path d="M27.1359 2.14479C26.4587 0.591668 24.1229 1.64105 24.8116 3.19388C29.5691 13.9146 39.9253 21.146 51.554 21.1698C52.7542 21.1774 52.9539 19.356 51.6896 19.2689C40.936 18.5395 31.514 12.2001 27.1359 2.14479Z" fill="#231F20"></path><path d="M6.5444 0.88266C6.14671 0.591381 5.69765 0.379442 5.22294 0.259006C4.74824 0.13857 4.25721 0.112005 3.77799 0.180806C3.29878 0.249606 2.8408 0.412441 2.43026 0.659971C2.01973 0.907501 1.66473 1.23486 1.38557 1.62331C0.44613 2.83773 0.286476 4.98487 1.6318 6.03096C1.5196 6.25046 1.48202 6.5022 1.52458 6.74925C1.56714 6.99631 1.68759 7.22567 1.86828 7.40375C3.64562 8.95967 6.42656 8.25429 7.70755 6.4938C8.98855 4.73332 8.36088 2.19635 6.5444 0.88266ZM5.30509 2.87669C5.46479 3.0233 5.59382 3.19993 5.68432 3.39578C5.77481 3.59164 5.82486 3.80261 5.8314 4.01582C5.83795 4.22902 5.80085 4.44 5.72238 4.63586C5.64391 4.83171 5.52572 5.00833 5.37501 5.15494C4.75239 5.75743 3.72019 5.83769 2.83495 5.7241C2.83374 5.63152 2.80921 5.54004 2.76365 5.45801C2.71809 5.37598 2.65294 5.30603 2.57418 5.25459C1.19057 4.24469 3.72301 1.19775 5.32982 2.89902L5.30509 2.87669Z" fill="#231F20"></path><path d="M59.3341 21.0511C57.8726 22.4743 58.1807 24.5025 59.7377 25.801C59.8385 25.9514 59.9758 26.0754 60.1356 26.1603C61.9157 27.169 64.5309 27.5705 65.7807 25.8078C66.8618 24.2869 65.9944 21.9071 64.5283 20.7521C62.9195 19.4682 60.6567 19.7635 59.3341 21.0511ZM64.0321 24.3978C63.4534 25.1852 62.1479 24.8661 61.3641 24.4091C61.2999 24.374 61.2337 24.3432 61.1659 24.3171C60.4129 23.7037 60.2836 22.937 61.0599 22.2666C61.3844 21.9696 61.8099 21.7993 62.266 21.784C62.722 21.7687 63.1813 21.9092 63.5677 22.1823C63.899 22.4482 64.1273 22.82 64.2081 23.2251C64.2889 23.6303 64.2164 24.0396 64.0048 24.3731L64.0321 24.3978Z" fill="#231F20"></path></svg>