<svg xmlns="http://www.w3.org/2000/svg" width="63" height="56" viewBox="0 0 63 56" fill="none"><path d="M37.3544 27.7113C33.6029 33.8448 29.8808 39.975 26.2806 46.1998C25.3939 47.7005 27.8736 49.3314 28.8262 47.8545C32.7955 41.6942 36.6551 35.4483 40.4862 29.1842C41.659 27.2546 38.5225 25.7944 37.3544 27.7113Z" fill="#231F20"></path><path d="M48.1354 16.4814C48.1021 15.9896 47.9751 15.5096 47.7616 15.0688C47.548 14.6281 47.2522 14.2353 46.8909 13.913C46.5297 13.5906 46.1102 13.3451 45.6565 13.1904C45.2027 13.0357 44.7237 12.9749 44.2467 13.0115C42.7127 13.0748 40.9671 14.3352 41.0331 16.0381C40.7929 16.0936 40.5761 16.227 40.4145 16.4186C40.2529 16.6103 40.155 16.8501 40.1351 17.1031C40.0892 19.4648 42.4197 21.1382 44.5914 20.9846C46.7632 20.831 48.3 18.7171 48.1354 16.4814ZM45.8117 16.8173C45.8024 17.0339 45.7504 17.2464 45.6588 17.4417C45.5672 17.6371 45.4381 17.8112 45.2792 17.9535C45.1202 18.0958 44.9349 18.2033 44.7346 18.2694C44.5342 18.3354 44.323 18.3587 44.1137 18.3379C43.2519 18.2495 42.5258 17.5114 42.0427 16.761C42.1127 16.7005 42.1669 16.6228 42.2003 16.5351C42.2337 16.4475 42.2453 16.3526 42.2339 16.2592C42.1156 14.5503 46.0775 14.5258 45.8106 16.8506L45.8117 16.8173Z" fill="#231F20"></path><path d="M19.6809 20.0794C17.9996 27.0699 16.3451 34.0481 14.8358 41.0789C14.4541 42.7797 17.3154 43.5682 17.7671 41.8697C19.6475 34.7867 21.3972 27.656 23.1141 20.5168C23.6359 18.3199 20.2023 17.8961 19.6809 20.0794Z" fill="#231F20"></path><path d="M26.4808 6.07179C26.2978 5.61407 26.0292 5.19644 25.6904 4.84283C25.3515 4.48922 24.9491 4.20658 24.5062 4.01109C24.0633 3.8156 23.5886 3.71111 23.1093 3.70359C22.63 3.69608 22.1554 3.78568 21.7129 3.96729C20.2728 4.49969 19 6.23627 19.5869 7.83617C19.3755 7.96292 19.2103 8.15653 19.1155 8.38862C19.0207 8.62071 19.0014 8.87905 19.0603 9.12581C19.7436 11.387 22.476 12.2618 24.4951 11.4472C26.5141 10.6325 27.3256 8.14825 26.4808 6.07179ZM24.3734 7.1066C24.4312 7.31555 24.4471 7.53371 24.4201 7.74776C24.3931 7.96182 24.3238 8.16727 24.2164 8.35157C24.109 8.53588 23.9658 8.69517 23.7955 8.81973C23.6252 8.94428 23.4314 9.03147 23.2259 9.07599C22.3786 9.2572 21.4606 8.7785 20.77 8.21323C20.818 8.13407 20.8456 8.04348 20.8505 7.94977C20.8553 7.85606 20.8371 7.76222 20.7975 7.67687C20.1589 6.08738 23.9209 4.84451 24.3825 7.13864L24.3734 7.1066Z" fill="#231F20"></path></svg>