<svg xmlns="http://www.w3.org/2000/svg" width="109" height="69" viewBox="0 0 109 69" fill="none"><path d="M106.604 48.6418C106.956 48.5053 107.241 48.2486 107.408 47.9178C107.575 47.587 107.613 47.2037 107.516 46.8367C107.419 46.4696 107.192 46.1428 106.877 45.9148C106.562 45.6868 106.179 45.5725 105.796 45.5924C101.417 45.6842 97.0548 47.1224 92.8226 48.0565C90.3634 48.6024 91.8993 52.2176 94.3256 51.6939C98.3984 50.8136 102.825 50.2986 106.604 48.6418Z" fill="#231F20"></path><path d="M104.393 61.9261C100.354 60.5971 96.2664 60.1578 92.0649 59.6263C90.301 59.3994 89.9071 61.9491 91.6363 62.3229C95.7946 63.2257 99.7652 64.1837 104.026 64.2768C105.258 64.3101 105.548 62.3059 104.393 61.9261Z" fill="#231F20"></path><path d="M12.6653 0.516494C10.3664 -1.35707 7.55524 2.32896 9.85815 4.20659C12.4301 6.31209 14.5806 8.90809 16.1912 11.8515C17.3823 14.0428 20.7811 12.8494 19.8361 10.3649C18.3597 6.47635 15.8812 3.07232 12.6653 0.516494V0.516494Z" fill="#231F20"></path><path d="M3.79331 10.4374C0.822123 8.65063 -1.64717 12.7995 1.38424 14.5903C3.86156 16.0529 6.40712 17.945 9.13338 18.8647C9.60218 19.0413 10.1177 19.0451 10.5891 18.8756C11.0604 18.7061 11.4573 18.3741 11.7098 17.9382C11.9623 17.5022 12.0541 16.9904 11.9692 16.4928C11.8842 15.9952 11.6278 15.5438 11.2453 15.2183C9.1374 13.2533 6.24654 11.9203 3.79331 10.4374Z" fill="#231F20"></path></svg>