<svg xmlns="http://www.w3.org/2000/svg" width="132" height="21" viewBox="0 0 132 21" fill="none"><path d="M10.4697 0L12.8204 7.23442H20.4271L14.2731 11.7055L16.6237 18.9399L10.4697 14.4688L4.31578 18.9399L6.66639 11.7055L0.512425 7.23442H8.11914L10.4697 0Z" fill="#FF7A00"></path><path d="M38.1104 0L40.461 7.23442H48.0677L41.9137 11.7055L44.2643 18.9399L38.1104 14.4688L31.9564 18.9399L34.307 11.7055L28.1531 7.23442H35.7598L38.1104 0Z" fill="#FF7A00"></path><path d="M65.749 0L68.0996 7.23442H75.7064L69.5524 11.7055L71.903 18.9399L65.749 14.4688L59.5951 18.9399L61.9457 11.7055L55.7917 7.23442H63.3984L65.749 0Z" fill="#FF7A00"></path><path d="M93.3897 0L95.7403 7.23442H103.347L97.193 11.7055L99.5436 18.9399L93.3897 14.4688L87.2357 18.9399L89.5863 11.7055L83.4323 7.23442H91.0391L93.3897 0Z" fill="#FF7A00"></path><path d="M121.03 0L123.381 7.23442H130.988L124.834 11.7055L127.184 18.9399L121.03 14.4688L114.876 18.9399L117.227 11.7055L111.073 7.23442H118.68L121.03 0Z" fill="#FF7A00"></path></svg>