<svg xmlns="http://www.w3.org/2000/svg" width="300" height="634" viewBox="0 0 300 634" fill="none"><path fill-rule="evenodd" clip-rule="evenodd" d="M171.948 379.125C172.202 388.375 173.696 397.595 174.82 406.793C175.719 415.883 177.415 425.06 178.777 433.983C178.832 435.542 180.975 436.3 182.011 435.141C181.984 414.857 176.569 394.043 178.487 373.334C176.941 372.47 175.367 371.514 173.865 370.559C171.839 373.234 171.615 376.322 171.948 379.125ZM251.957 259.534C254.273 267.958 259.181 275.219 261.331 283.655L263.601 283.429C264.718 264.82 261.578 246.536 257.911 228.552L255.63 228.687C254.825 239.051 249.535 248.868 251.957 259.534ZM2.05054 190.987C2.17389 190.641 2.2991 190.287 2.41644 189.929L3.74524 190.214C1.26981 185.517 3.57831 183.971 6.3793 180.088L6.68436 180.793L7.76202 178.434C7.97601 177.835 8.19461 177.327 8.78555 177.103C9.36292 174.168 11.0814 171.48 13.37 170.019L13.8083 170.513C14.7154 169.719 15.8088 169.416 16.8498 169.049C14.6153 165.67 13.1779 161.287 11.6711 157.665C10.4443 153.86 8.52615 150.168 8.16577 146.31C8.45584 142.603 11.9545 145.011 13.661 146.86C18.8735 151.438 23.3628 158.689 26.7268 167.494C32.5038 165.989 35.8178 167.577 37.4226 175.482C38.8999 180.853 40.4099 186.361 40.6094 191.929C41.385 191.662 42.7608 190.66 43.5042 191.446C56.3436 205.515 71.5037 216.354 86.1651 228.216C97.2448 220.054 103.01 203.905 109.104 191.782C119.734 170.975 130.365 140.513 157.708 140.62C161.332 140.242 164.871 139.808 168.291 138.754C169.616 138.393 171.254 137.959 171.703 137.154C172.513 134.558 172.667 131.75 174.092 129.37C178 123.007 186.469 122.507 193.106 123.888C204.373 125.98 204.089 124.759 204.903 136.627C205.147 139.444 207.327 139.848 209.655 140.431C212.298 141.266 214.99 141.948 217.707 142.497C217.425 142.417 217.143 142.339 216.861 142.259C260.959 142.959 290.238 194.186 296.047 230.428C302.793 267.506 294.067 308.77 280.272 339.912C280.864 351.253 278.643 362.645 277.236 373.823C276.354 376.62 273.297 376.892 272.423 373.652L271.346 369.389L270.193 373.633C269.462 376.259 268.287 376.571 267.23 376.589C265.918 376.589 265.199 375.942 265.156 372.527L262.984 372.004C262.147 373.601 261.316 375.013 260 375.995C257.356 395.249 255.696 415.269 249.276 433.899C246.716 440.813 242.785 447.091 239.898 453.874C253.511 484.642 255.792 518.738 259.061 551.682C258.798 551.702 257.447 551.821 257.158 551.846L257.904 553.83C258.922 554.261 259.52 555.169 259.828 556.175C260.515 556.118 263.38 556.14 263.22 556.797C262.889 560.667 261.805 563.429 259.752 565.444C259.724 566.065 259.685 566.698 259.638 567.286C263.711 581.521 266.696 596.696 268.51 612.345C270.816 614.567 271.393 621.875 267.954 623.825C258.46 630.372 245.706 633.481 233.698 632.3C220.702 631.069 205.203 625.883 211.422 611.04C211.502 610.58 212.133 610.557 212.631 610.658C213.733 609.588 214.927 608.778 216.219 608.323C218.786 601.903 221.095 595.171 223.108 588.45C224.09 585.364 225.104 582.172 225.021 578.787C224.535 570.474 223.68 567.039 217.912 560.491C214.341 562.21 207.536 549.76 205.977 547.146C202.696 539.415 198.515 532.386 195.012 524.801C194.471 523.52 192.58 523.492 191.84 524.603C191.506 525.07 191.423 525.649 191.611 526.19C194.662 535.005 198.816 543.422 202.823 551.646C201.457 556.422 200.918 564.4 197.504 567.954C195.646 580.33 208.356 586 200.166 599.724C202.938 599.914 203.197 601.024 203.148 604.395C203.157 606.816 203.22 609.356 202.765 611.618C202.212 614.398 199.65 615.143 195.805 615.963C192.688 616.653 189.687 617.441 186.595 618.187C183.467 619.228 180.172 619.142 178.886 615.975C163.397 621.231 118.748 620.63 103.98 613.664C99.9019 612.03 97.0255 611.106 100.771 606.503C102.832 593.369 136.493 602.76 141.247 588.353C141.926 586.483 142.906 585.499 144.813 585.158C144.522 583.672 144.91 582.02 146.562 581.593C147.059 581.444 147.589 581.405 148.101 580.937C149.372 578.315 151.456 576.725 153.885 575.331C152.893 573.902 153.694 573.237 154.141 571.638C154.594 568.579 153.553 565.648 153.606 562.676C153.048 561.738 152.617 560.425 151.724 559.775C150.897 559.19 151.411 558.937 151.734 558.291C151.487 558.074 150.931 557.578 150.679 557.379C149.712 556.314 150.726 554.761 151.966 554.642C152.118 554.128 152.3 553.532 152.416 553.023C148.986 542.7 144.939 529.297 143.596 515.095C142.296 492.38 143.515 473.23 136.603 450.145C126.941 413.593 108.171 379.292 107.917 340.613C108.24 334.201 106.465 327.374 108.074 321.081L106.075 320.04C105.788 320.372 105.268 320.363 105.164 319.912C103.853 317.781 105.322 315.226 105.624 312.893C104.938 312.157 105.28 311.487 106.108 311.086C114.987 279.704 129.838 275.119 125.75 235.892C119.08 250.043 104.304 264.368 88.0162 262.262C71.6086 264.717 33.3341 224.698 25.942 211.761C24.5871 211.867 24.5705 210.894 24.3644 209.978C17.6128 210.773 11.2933 205.467 11.1674 198.976C5.24283 202.653 -1.08871 197.401 2.05054 190.987Z" fill="white"></path><path fill-rule="evenodd" clip-rule="evenodd" d="M49.2728 233.561L49.9088 234.128C60.3094 243.387 71.3421 252.628 84.3633 257.86C86.1272 258.504 87.9655 258.677 89.7773 259.06C104.922 259.21 115.206 247.472 124.797 237.35C123.993 220.029 124.658 202.145 131.495 185.958L131.659 185.542C133.332 181.308 135.376 177.111 138.647 173.875C138.728 173.797 138.839 173.914 138.769 173.997C135.978 177.419 134.353 181.599 133.186 185.815L133.127 186.03C129.148 200.309 128.456 215.292 128.979 230.04L128.995 230.487C129.353 240.452 130.213 250.471 129.014 260.415C128.14 270.679 123.601 279.96 118.659 288.825C114.35 297.012 111.13 305.764 109.178 314.81C109.806 317.479 112.08 319.436 114.444 320.922C118.716 323.563 123.667 325.008 128.502 326.218C148.286 331.3 168.892 333.659 189.246 331.198C210.962 328.377 232.156 322.54 253.186 316.596C255.349 315.932 257.749 315.331 259.815 314.298C259.953 314.146 260.117 314.017 260.295 313.912C260.652 308.863 261.125 303.859 261.478 298.823C261.001 289.067 258.293 279.58 254.143 270.77C246.559 256.326 249.064 247.543 253.687 232.826C254.749 229.081 255.508 225.163 255.414 221.303C254.929 218.871 254.461 216.438 254.03 213.997C253.85 213.529 253.654 213.066 253.435 212.605C253.394 212.517 253.511 212.448 253.567 212.529C253.663 212.667 253.756 212.808 253.848 212.951C253.527 211.089 253.23 209.224 252.969 207.355C252.935 207.108 253.253 207.012 253.345 207.251C261.655 229.614 266.479 253.585 266.281 277.481C266.163 284.518 265.679 291.551 265.162 298.571L265.21 299.248C265.393 301.904 265.49 304.612 264.56 307.142C264.362 311.484 263.626 315.774 263.855 320.129C264.391 324.105 265.59 326.919 268.575 329.668C271.531 332.671 274.914 335.156 278.768 336.88C294.792 290.02 304.18 241.344 281.008 195.009C270.253 172.449 251.74 152.182 226.894 145.735C230.435 149.648 227.675 155.501 225.129 159.231L224.973 159.457C212.78 177.523 185.931 181.827 165.795 177.897C156.04 176.223 146.894 169.909 146.116 159.348C145.511 152.275 149.538 145.299 155.624 141.815L154.883 141.896C148.959 142.554 143.206 143.504 138.659 147.743C121.9 163.248 114.125 185.331 104.225 205.322L103.831 206.05C99.5912 213.912 95.494 222.404 88.4493 228.106L89.7658 229.229C89.9318 229.371 89.7543 229.694 89.5445 229.609C88.8666 229.335 88.1933 229.046 87.5224 228.754C86.5759 229.513 85.489 228.745 85.3757 227.781C69.4453 220.156 55.981 208.061 43.4831 195.792C40.3275 203.1 35.0061 211.07 26.4876 212.264C34.53 218.862 41.6477 226.491 49.2728 233.561ZM177.321 373.668C176.287 373.08 175.266 372.469 174.259 371.835C172.596 374.495 173.019 376.833 173.198 379.771C173.578 384.673 173.494 389.659 174.487 394.483C176.209 406.793 177.229 419.656 179.787 431.653C179.843 432.323 179.903 432.993 179.955 433.664C180.024 434.547 181.407 434.551 181.339 433.664C179.654 413.75 176.079 393.72 177.321 373.668ZM167.944 613.56C154.965 615.715 141.717 614.186 128.733 612.802L126.827 612.554C120.681 611.756 114.499 610.916 108.463 609.576C107.954 609.155 107.171 608.969 106.865 608.346L106.492 608.372C106.178 608.194 105.857 608.027 105.531 607.869C104.583 607.7 103.81 607.493 102.831 607.225C101.502 607.676 101.363 608.845 102.265 609.672C102.175 610.094 102.68 610.336 103.01 610.523C103.063 610.629 103.145 610.73 103.268 610.817C103.86 611.19 104.458 611.637 105.136 611.822C106.792 613.545 110.349 614.199 112.309 614.548L112.503 614.583C128.786 617.497 145.444 618.28 161.933 616.964C164.775 616.735 167.616 616.445 170.446 616.092L171.218 615.994C173.662 615.678 176.357 615.555 178.236 613.767C179.172 612.878 181.047 613.439 180.995 614.853L180.992 614.908C180.827 617.231 186.258 615.309 187.334 615.009L187.365 615C190.371 614.184 193.36 613.283 196.376 612.506L197.115 612.363C199.735 611.842 199.939 611.579 199.968 608.333L200.065 607.45C200.197 606.273 200.338 605.101 200.528 603.933L200.602 603.495C200.687 603.004 201.522 599.967 200.132 600.37C199.956 600.421 199.786 600.28 199.776 600.11C190.007 606.332 179.435 611.539 167.944 613.56ZM219.543 621.391L218.714 620.894C217.326 620.054 215.931 619.142 214.946 617.865C213.321 617.926 212.652 616.395 212.714 615.03C211.35 619.469 213.042 623.021 217.04 625.267C230.967 632.662 248.787 631.573 262.651 624.542C263.982 623.855 265.282 623.11 266.543 622.306L266.827 622.125C267.3 621.822 267.758 621.497 268.01 620.976C268.616 619.197 268.608 617.444 268.674 615.461C267.623 616.878 265.88 617.859 264.431 618.835C261.667 620.686 258.672 622.154 255.566 623.332C244.065 627.605 230.405 627.344 219.543 621.391ZM261.667 256.938C260.556 247.294 258.653 237.784 256.808 228.263C256.059 238.496 250.749 248.46 253.11 258.811C255.418 267.144 260.365 274.536 262.478 282.941C262.889 274.261 262.636 265.575 261.667 256.938ZM247.98 340.611C249.23 340.839 250.514 340.834 251.778 340.745C256.899 340.124 257.709 343.226 257.691 347.564C257.847 350.368 258.019 353.172 258.165 355.978L258.25 357.661C258.356 359.903 258.637 362.411 258.356 364.755C259.283 366.883 259.785 369.102 259.933 371.429C260.359 371.314 260.816 371.369 261.143 371.593C263.022 368.242 263.472 364.151 263.859 360.378C264.048 358.523 266.774 358.437 266.815 360.378C266.868 363.017 266.908 365.658 266.954 368.297L267.025 372.369L267.025 372.43C267.013 373.01 266.751 374.475 267.464 374.418L267.505 374.413C268.831 374.314 268.892 369.592 269.179 368.415L270.285 360.516C270.534 358.749 273.074 359.326 273.248 360.867L273.253 360.917C273.563 364.527 273.878 368.137 274.145 371.749C274.229 372.374 274.241 373.505 274.922 373.777C275.524 373.236 275.638 372.326 275.766 371.569C276.9 361.147 279.028 350.859 280.341 340.461C279.49 340.339 278.711 339.809 278.462 338.993C271.633 337.597 264.468 333.751 261.037 327.502C260.352 328.106 259.817 328.896 259.153 329.516C258.104 330.5 256.951 331.388 255.849 332.307C252.76 334.924 249.659 337.395 246.633 340.092C247.076 340.238 247.48 340.521 247.98 340.611ZM173.69 127.261C173.655 127.125 173.466 127.164 173.457 127.293C173.268 129.921 172.638 132.693 171.679 135.27C171.335 135.325 171.006 135.518 170.766 135.894C170.443 136.399 168.899 136.751 168.093 136.989L167.978 137.023C164.634 138.057 161.143 138.474 157.674 138.842C141.359 139.745 135.421 144.862 126.217 157.789C115.292 172.352 109.162 189.636 100.926 205.709C98.8988 209.618 96.7107 213.435 94.3058 217.124L94.0765 217.475C91.9283 220.746 89.5518 224.06 86.2704 226.267C78.3297 219.605 69.8382 213.657 61.9832 206.892L61.2487 206.256C55.3552 201.158 49.727 195.756 44.3708 190.095C43.739 189.427 42.5539 189.252 41.6777 189.644C41.3353 184.549 39.8975 179.551 38.5717 174.629C37.1797 168.288 34.7617 164.002 27.4676 165.571C24.5315 158.174 20.5998 150.954 14.6473 145.553L14.2652 145.208C12.998 144.057 11.3346 142.406 9.55438 142.555C7.93808 142.688 7.108 144.152 7.04346 145.641C6.96948 147.406 7.73895 149.204 8.29028 150.86L8.33698 151.001C9.04715 153.175 9.81262 155.33 10.6219 157.468C11.4013 159.526 12.2359 161.563 13.1098 163.582C14.0005 165.271 14.6556 168.068 16.2779 169.088C17.1153 169.587 17.9779 168.917 18.0671 168.06C18.1939 166.938 17.5483 165.952 17.0734 164.974C16.6353 164.076 16.2064 163.172 15.7891 162.264C14.1119 158.608 12.6069 154.877 11.3137 151.07C10.9295 149.789 9.35703 146.458 9.90256 145.307C10.4488 145.311 11.5733 146.466 11.9708 146.809C18.2239 151.992 22.288 159.153 26.9372 165.687C24.0196 166.521 20.8527 166.912 18.4291 168.872C13.4446 173.223 17.4473 181.84 24.1288 180.236C22.264 184.201 20.6601 190.606 23.9651 194.188C24.9589 195.119 26.8888 194.822 27.1909 193.338C27.5136 191.762 27.1263 190.411 26.7712 188.883C26.1279 185.773 25.7378 182.587 26.1763 179.42L26.3143 179.338C27.4469 178.65 28.159 177.878 28.1247 176.456C28.2722 175.428 27.177 174.043 26.0772 174.884C25.7198 175.156 25.284 175.177 24.9082 175.451C24.2707 176.058 23.4787 176.535 22.575 176.528L22.4872 176.525C21.3251 176.516 20.4674 175.816 20.1123 174.728C19.1393 171.743 22.5079 170.741 24.6984 170.167L25.2642 169.992C31.2432 168.164 33.4102 168.134 34.9127 175.163C36.5399 180.408 37.974 185.807 40.7255 190.6L40.3831 191.418C37.617 198.01 34.1442 205.598 26.7067 207.62C26.4434 205.418 24.0627 205.339 22.3396 205.394C20.1155 205.274 17.8834 204.145 16.3125 202.522C14.9401 201.139 14.2498 199.213 12.7317 197.98C13.4188 196.417 11.867 194.693 10.2461 195.592C9.1532 196.196 8.49374 197.058 7.17487 197.233C6.00589 197.39 4.92911 196.982 4.04141 196.233C1.72415 194.274 2.82629 191.395 2.25909 188.83C3.00613 190.123 4.24661 191.114 5.57471 191.798C14.443 196.873 14.354 186.923 9.45294 188.558C4.12903 187.346 4.21893 185.421 6.20877 180.902L6.24423 180.796C6.56781 179.847 7.29083 178.17 6.6192 177.148C6.58231 177.097 6.51544 177.081 6.46701 177.127C5.85831 177.726 5.61853 178.731 5.10458 179.436L4.49188 180.168C2.63083 182.412 0.683472 185.077 1.89246 188.072C1.76334 188.044 1.62271 188.099 1.57892 188.256C1.00708 190.337 -0.129669 192.382 0.10553 194.608C0.597351 199.487 5.88416 202.166 10.2622 200.132C11.1043 206.404 17.2869 210.919 23.4833 210.639C23.6793 211.499 24.3156 212.255 25.3002 212.333C34.4193 226.947 70.2659 264.545 87.8452 262.973C89.526 263.736 91.6658 263.354 93.4458 263.124C107.098 261.342 118.508 251.354 124.873 239.514C127.212 278.295 113.992 277.824 105.145 309.952C104.26 310.507 103.743 311.72 104.43 312.745C104.05 314.689 103.273 316.681 103.573 318.675C103.72 319.244 104.018 319.763 104.287 320.284C104.842 321.347 106.306 321.219 106.992 320.392C105.829 324.599 106.325 329.016 106.623 333.305C106.805 335.824 106.791 338.308 106.794 340.83C107.141 379.212 125.883 413.819 135.518 450.233C138.244 460.44 140.337 470.841 141.16 481.385C142.034 492.601 141.426 503.88 142.477 515.083C143.696 528.059 147.16 540.67 151.246 553.003C151.002 554.002 150.494 555.139 150.808 556C156.645 556.985 162.279 558.774 167.948 560.436C168.171 560.5 168.309 560.638 168.379 560.802L169.675 561.232C170.515 561.512 170.155 562.848 169.307 562.566L167.891 562.095C163.046 560.492 158.145 558.96 153.106 558.24L152.951 558.177C151.944 557.774 150.758 557.479 150.227 558.588C149.958 559.151 150.171 559.718 150.556 560.163C150.881 560.54 151.295 560.771 151.579 561.198C151.897 561.759 152.167 562.349 152.482 562.919C152.479 565.736 153.406 568.525 153.046 571.336C152.776 572.502 151.831 573.62 152.431 574.869L152.158 575.043C150.568 576.065 149.049 577.185 148.004 578.764C147.775 579.109 147.603 579.822 147.342 580.066C147.07 580.319 146.563 580.35 146.228 580.469C144.535 580.984 143.47 582.513 143.616 584.288C139.651 585.429 141.017 589.457 136.925 592.26C132.724 595.304 127.036 595.639 122.074 596.429L113.619 597.777L113.127 597.837C107.775 598.498 100.795 599.741 99.7185 605.994L99.6322 606.095C98.3388 607.639 97.0952 610.571 98.6917 612.248C99.9896 613.4 101.762 613.941 103.334 614.612C105.513 616.187 108.654 616.92 111.045 617.365C131.718 621.193 153.014 621.637 173.826 618.667L174.174 618.616C175.628 618.398 177.13 618.103 178.458 617.48C180.315 620.606 183.891 620.213 186.901 619.326C189.265 618.741 191.628 618.165 193.991 617.588L194.213 617.53C197.863 616.593 203.04 616.308 203.924 611.854C204.381 609.561 204.351 607.01 204.328 604.68L204.333 603.915C204.336 601.952 204.182 599.291 201.96 598.877C205.046 593.157 204.374 586.125 201.499 580.455L201.347 580.177C199.231 576.297 197.91 573.057 198.612 568.473C200.021 567.146 200.678 565.24 201.199 563.366C202.294 559.422 203.25 555.436 204.059 551.423L202.804 548.843C199.122 541.274 195.48 533.673 192.729 525.71C192.477 524.979 193.664 524.462 193.994 525.177C197.472 532.728 201.726 539.903 204.965 547.568C207.112 551.576 209.69 555.345 212.58 558.853L212.708 559.032C213.83 560.57 214.77 561.082 216.613 561.716C216.908 561.841 217.208 561.843 217.489 561.762C219.248 564.146 221.382 566.035 222.306 568.881C223.313 572.03 223.698 575.491 223.897 578.782C224.003 583.07 222.217 587.119 221.095 591.191C219.38 596.676 217.47 602.102 215.357 607.448C214.228 607.905 213.204 608.607 212.26 609.472C211.472 609.396 210.643 609.754 210.348 610.714L210.226 611.115C209.185 614.567 208.303 618.555 209.654 622.013C213.389 630.393 225.391 632.482 233.601 633.486C245.759 634.64 258.513 631.734 268.635 624.804C270.064 623.802 271.039 622.661 271.277 620.884L271.302 620.662C271.629 617.691 271.704 614.164 269.642 611.861C267.879 596.788 264.991 581.721 260.832 567.121C260.864 566.708 260.89 566.295 260.91 565.881C263.232 563.462 264.141 560.058 264.401 556.789C264.431 555.415 263.042 555.129 261.965 554.961L261.568 554.957C258.057 554.932 254.433 555.105 251.3 556.416L251.455 556.422C251.613 556.43 251.779 556.448 251.899 556.531C250.329 557.034 248.617 557.258 247.117 557.919C246.005 557.974 245.036 558.502 243.91 558.597L243.731 558.608C243.531 558.626 243.379 558.567 243.27 558.467C240.246 559.007 237.239 559.732 234.22 560.176C233.349 560.305 232.973 558.972 233.852 558.843C237.891 558.249 241.912 557.159 245.979 556.655C246.878 556.305 247.747 555.858 248.649 555.498C248.701 555.378 248.8 555.271 248.96 555.196C249.949 554.731 250.976 554.349 252.027 554.03C254.72 553.195 257.549 552.843 260.354 552.677L260.155 550.671C256.928 517.879 254.573 484.207 241.185 453.669C244.029 447.093 247.898 440.831 250.387 434.067C251.42 431.364 252.047 428.608 252.866 425.849C253.398 424.527 253.838 423.189 254.051 421.772C257.329 406.768 259.182 391.505 261.116 376.285C262.418 375.208 263.278 373.656 264.032 372.229L264.036 372.446C264.08 374.796 264.412 377.502 267.369 377.433C269.755 377.375 270.8 375.593 271.335 373.623C272.374 377.743 276.993 377.969 278.346 373.911C278.95 372.275 278.925 370.408 279.105 368.691C280.07 359.268 282.084 349.851 281.505 340.362C282.114 340.155 282.644 339.689 282.903 338.912C294.431 303.966 304.691 266.567 297.207 229.691C289.724 193.562 269.457 153.117 231.157 142.873C223.404 140.912 215.527 140.247 207.579 139.741C206.432 137.52 205.691 134.995 205.541 132.481C205.495 131.755 205.529 131.036 205.532 130.31C205.534 129.639 205.248 128.84 205.382 128.213C205.414 128.061 205.206 128.01 205.151 128.15C204.983 128.591 204.639 128.812 204.406 129.183C203.827 130.232 203.674 131.477 203.521 132.649C202.946 137.225 204.253 141.933 207.02 145.606L207.116 145.733C207.973 146.881 209.606 148.959 211.294 147.964C212.764 147.094 211.822 145.323 210.945 144.374L210.879 144.304C209.691 143.069 208.695 141.748 207.886 140.308C211.482 141.267 215.05 142.323 218.635 143.322L218.805 143.416C221.613 144.946 225.785 146.584 225.416 150.377C217.95 172.923 184.92 178.716 164.506 173.333L164.18 173.245C160.274 172.167 156.363 170.435 153.705 167.278L153.595 167.145C148.877 161.555 149.238 152.319 155.147 147.729C158.656 144.852 163.505 143.324 167.884 142.329C166.61 144.445 163.794 145.939 163.281 148.445C163.15 149.305 163.625 150.123 164.573 150.142C166.98 150.188 168.755 147.616 170.019 145.887C172.656 142.271 174.152 137.9 174.471 133.447C174.63 131.28 174.231 129.328 173.69 127.261ZM14.4149 167.936C14.5426 167.849 14.472 167.589 14.2996 167.66C7.75595 170.373 5.08475 180.092 10.0109 185.445C11.6457 187.171 14.0967 188.169 16.3286 187.263C19.0717 186.799 20.6742 184.027 21.0254 181.473C21.0492 181.354 20.9158 181.3 20.8405 181.375L20.8271 181.391C19.7906 182.669 18.1568 183.525 16.6675 184.179C16.2502 183.953 15.7937 183.774 15.3348 183.668C14.6823 183.52 14.0137 184.032 14.0759 184.698C10.9957 184.134 9.76105 180.466 9.66754 177.683L9.66507 177.599C9.54056 173.748 11.2814 170.188 14.4149 167.936Z" fill="black"></path><path fill-rule="evenodd" clip-rule="evenodd" d="M147.238 79.1852C147.786 72.0997 146.937 64.6731 149.67 57.9384C154.435 46.7642 167.798 43.0385 178.158 38.7843C182.308 37.5586 196.274 37.3872 201.133 35.7649C212.132 32.0931 214.76 27.7183 223.499 34.7094C224.974 35.9037 225.897 37.2017 226.57 38.9752L226.543 38.9828C226.735 39.7221 226.529 40.4598 226.095 41.0233C229.885 44.8947 231.47 50.6988 229.526 55.8522C223.181 69.2629 223.48 76.5141 225.524 90.9311C228.194 104.39 222.093 109.307 211.991 116.63C212.402 117.427 212.487 118.487 211.951 119.19C200.269 135.599 178.241 143.434 159.368 135.105C151.708 131.697 148.287 123.542 146.336 116.184C144.062 107.945 143.363 99.2637 145.214 90.871C145.961 86.9895 146.934 83.1361 147.238 79.1852Z" fill="white"></path><path fill-rule="evenodd" clip-rule="evenodd" d="M214.622 0.684162C213.204 0.471324 212.133 1.35072 211.623 2.59022L211.597 2.65696C211.433 3.07871 211.251 3.48894 211.055 3.89226C207.506 2.15224 202.443 2.59934 200.197 6.12318C198.595 8.63988 199.572 11.6267 200.176 14.2955L200.573 16.054C199.806 16.5416 199.228 17.4148 199.255 18.319L199.259 18.3886L199.42 20.8408C198.908 20.3222 198.44 19.7576 198.023 19.1561C197.735 18.6283 197.423 18.1098 197.089 17.6073C195.122 14.6505 190.707 17.2202 192.33 20.3868C192.641 20.9975 192.992 21.576 193.368 22.1337C193.792 22.9565 194.14 23.8023 194.407 24.6711C193.64 25.0053 193.049 25.7474 192.987 26.8675C192.842 29.4833 194.216 31.6658 196.402 33.0371C197.045 33.4404 197.709 33.5188 198.311 33.369C198.417 33.5119 198.523 33.6547 198.625 33.7999C197.753 34.5075 196.967 35.3141 196.291 36.2083C194.258 35.9041 192.212 35.7612 190.167 35.7566C187.668 34.5328 184.675 34.5582 181.989 35.0168C180.26 35.3118 178.599 35.8857 176.898 36.2982C175.104 36.7315 173.282 36.7476 171.468 37.0426C169.181 37.4137 167.175 38.4692 165.913 40.1539C164.528 40.1954 163.07 40.7623 161.862 41.5321C159.049 43.3251 156.252 45.1435 153.446 46.9481C152.369 47.6409 151.967 48.7469 152.165 49.9805L152.178 50.0594L152.273 50.571L152.051 50.8859C151.192 52.098 150.258 53.3677 149.702 54.7056C148.673 56.1875 147.744 57.7408 146.921 59.3426C145.812 61.4951 144.897 63.7768 144.276 66.1183C144.122 66.7106 143.967 67.3075 143.866 67.9113C143.721 68.7641 143.944 69.4255 144.067 70.2437C144.219 71.2807 144.274 72.3317 144.436 73.3711C144.544 74.0602 145.13 74.399 145.743 74.4174C145.512 76.1713 145.346 77.9366 145.187 79.6882C144.964 82.191 144.811 84.7008 144.68 87.2106C144.002 88.1947 142.616 88.9737 141.616 89.2433C140.23 89.6144 138.777 89.2111 137.468 88.7386C136.644 88.4413 135.969 89.4761 136.37 90.1675C137.631 92.3385 140.329 92.3293 142.372 91.3682C143.237 90.9626 143.995 90.3749 144.558 89.6098C144.523 90.3381 144.486 91.0663 144.449 91.7969L144.415 92.4586C144 100.187 143.103 108.18 144.555 115.832C147.071 129.086 158.044 139.178 171.449 139.962C178.484 140.373 184.341 138.297 187.254 137.138C190.167 135.98 189.035 133.618 187.013 134.293C183.529 135.456 177.13 137.189 171.403 136.441C157.906 134.677 146.46 127.934 147.636 98.8907C147.803 94.7721 148.316 90.6515 148.427 86.533C148.533 82.5068 148.494 78.4782 148.671 74.4543L148.73 73.0813C148.8 71.4771 148.874 69.8654 148.994 68.2593C149.139 67.6371 149.259 67.0056 149.437 66.3949C149.919 64.7332 150.548 63.1176 151.33 61.5758C151.503 61.7072 151.696 61.8017 151.906 61.8385C153.499 62.1243 154.993 62.0436 156.485 61.3799C157.182 61.0734 157.795 60.6655 158.367 60.1607C158.639 59.9233 158.821 59.6929 158.964 59.4532C159.686 59.4647 160.407 59.2481 160.859 58.7295C161.375 58.1385 161.46 57.528 161.258 56.9629L161.237 56.9065L161.288 56.8881C161.897 58.4622 163.11 59.8473 164.44 60.783C166.543 62.2672 169.174 62.6959 171.696 62.735C174.481 62.7765 177.419 62.3479 180.167 61.91C180.894 61.7947 181.615 61.6634 182.323 61.4859C182.351 61.5136 182.378 61.5458 182.408 61.5735C184.767 63.8298 188.085 64.4105 191.078 63.1222C192.807 62.3778 194.258 61.1794 195.54 59.8058C195.558 60.5249 195.595 61.2439 195.657 61.9561L195.683 62.2389C195.811 63.5652 196.056 64.9721 197.059 65.9293C198.68 67.4804 201.032 66.8581 202.902 65.8486C202.899 65.897 202.899 65.9477 202.899 65.9985C202.394 67.7131 201.887 69.4301 201.38 71.1471L201.271 71.5128C200.902 72.732 200.497 73.9527 200.386 75.2286C200.174 77.667 201.797 80.0754 204.509 79.2572C205.931 78.8296 207.071 77.6343 208.164 76.6768L208.853 76.0814C207.07 81.9053 205.835 87.9366 205.719 94.014C205.712 94.3436 205.996 94.5925 206.31 94.604C207.043 94.6339 207.831 94.4888 208.569 94.1961C208.611 94.1938 208.652 94.1915 208.696 94.1845C209.955 94.0025 211.124 93.5485 212.155 92.8778C211.917 93.6314 211.811 94.4404 211.873 95.2862C211.889 95.4913 212.21 95.5627 212.256 95.3369C212.851 92.4122 216.275 90.2021 219.226 90.7621C222.394 91.3636 224.728 94.0877 225.3 97.1875C225.913 100.518 224.739 104.369 222.565 106.939C221.564 108.123 220.248 109.112 218.684 109.361C217.97 109.474 217.227 109.435 216.533 109.232C216.238 109.144 215.961 109.022 215.68 108.907C215.27 108.741 214.79 108.715 214.403 108.54C213.524 108.146 212.641 108.955 213.086 109.856C213.473 110.642 213.822 111.172 214.465 111.578C213.944 112.214 213.471 113.099 213.296 113.336C212.401 114.544 211.493 115.685 210.474 116.789C209.436 117.909 208.304 118.932 207.107 119.879L206.604 120.277C205.452 121.19 204.448 122.037 203.635 123.348C202.994 124.383 203.824 125.786 205.025 125.77C208.784 125.717 211.516 122.417 213.462 119.534C213.739 119.121 213.999 118.685 214.241 118.238C214.329 118.379 214.426 118.51 214.534 118.63L214.32 119.206C213.683 120.903 216.425 122.011 217.22 120.428C217.799 119.28 218.47 118.188 219.217 117.155C219.657 117.093 220.089 116.826 220.328 116.48C220.935 115.602 221.615 114.715 222.189 113.779C222.507 113.477 222.835 113.187 223.169 112.903C223.266 112.988 223.365 113.074 223.46 113.163C223.879 114.12 224.398 114.993 225.041 115.816L225.179 115.992C226.412 117.544 228.017 119.133 230.003 119.513C230.61 119.628 231.193 118.874 230.656 118.393C229.265 117.144 227.621 116.293 226.339 114.899C225.708 114.212 225.128 113.455 224.629 112.663L224.516 112.479C224.433 112.343 224.347 112.207 224.26 112.069C224.838 111.675 225.417 111.278 225.996 110.882C227.589 112.242 229.664 112.865 231.426 113.992L231.601 114.106C233.194 115.171 234.873 112.815 233.596 111.523C232.187 110.103 231.012 108.409 229.765 106.831C230.351 105.751 230.629 104.474 230.733 103.184C230.774 102.818 230.806 102.453 230.838 102.087C231.732 102.101 232.632 101.795 233.393 101.267L233.681 101.062C234.605 101.357 235.576 101.5 236.505 101.474C238.691 101.41 239.586 98.9137 238.218 97.335C236.824 95.7218 234.382 95.3691 232.447 96.1527C232.385 96.1205 232.32 96.0859 232.258 96.0513C232.35 95.6273 232.33 95.2426 232.225 94.9047L232.255 94.6987C232.681 94.0463 232.961 93.3014 233.067 92.5144C233.15 91.8909 233.133 91.2731 232.989 90.6575C232.941 90.4526 232.841 90.2403 232.765 90.0267C232.922 89.6298 233.015 89.2196 233.043 88.8071C233.087 88.7547 233.131 88.701 233.173 88.643C234.133 87.2959 233.939 85.6727 233.025 84.5826C233.021 84.5132 233.014 84.4439 233.005 84.375C233.058 84.2546 233.108 84.1332 233.152 84.0104C234.045 83.1104 234.7 82.0274 234.578 80.6854C234.506 79.8958 234.182 79.1851 233.69 78.6538C233.777 78.3962 233.786 78.0977 233.68 77.8486C234.464 75.7638 234.365 73.2529 233.801 70.9212C233.925 70.5663 233.99 70.1814 233.976 69.7735C233.911 68.0427 232.413 66.4525 230.637 66.4732C230.424 66.4751 230.223 66.5029 230.031 66.5437L230.029 66.5025C229.961 65.983 229.818 65.5029 229.609 65.0722C229.712 65.0351 229.807 64.9819 229.89 64.9111C231.027 65.5177 232.231 65.9814 233.493 66.2974C234.421 66.5297 235.372 65.4753 234.795 64.6046C234.527 64.2006 234.232 63.8378 233.914 63.5064C234.366 63.5089 234.826 63.5396 235.29 63.5993C236.125 63.7076 237.056 63.1384 237.598 62.3686C238.272 63.0231 238.947 63.6753 239.623 64.3276C241.334 65.9846 243.918 64.7655 244.188 62.5806C244.698 62.4447 245.173 62.2142 245.59 61.8846C248.288 63.0554 251.19 63.6984 254.158 63.8205C256.288 63.9081 257.534 61.4283 256.537 59.6768C255.869 58.5014 255.039 57.4458 254.082 56.5286C255.567 56.9826 257.1 57.3099 258.666 57.5196C259.512 57.6325 260.708 56.9319 261.047 56.1552C262.343 53.1684 262.233 50.0548 260.741 47.1486C260.683 47.0333 260.619 46.9227 260.556 46.8121C260.402 46.4272 260.234 46.0469 260.051 45.6736C261.887 43.7607 262.046 40.9168 261.057 38.536C261.453 37.893 261.605 37.1187 261.336 36.418C260.568 34.4015 259.461 32.5393 258.064 30.9398C258.198 30.6817 258.315 30.4075 258.414 30.1125C259.201 27.7271 258.29 24.8486 256.452 23.1869C255.297 22.1406 253.969 21.5138 252.551 21.1127C251.954 20.0572 251.186 19.1054 250.291 18.3033C250.257 18.2273 250.222 18.1512 250.183 18.0752C248.79 15.4525 246.254 14.0466 243.535 13.7217C243.429 12.6961 242.738 11.7166 241.732 11.3986C241.456 10.5113 241.043 9.66315 240.476 8.89339C239.583 7.68113 238.101 7.10958 236.704 7.90469C235.938 8.34027 235.205 8.84038 234.518 9.3935C234.209 9.24884 233.859 9.15524 233.465 9.12538L233.365 9.11925L231.091 9.00401C230.139 8.58226 229.189 8.13976 228.237 7.70879C227.665 7.23633 227.026 6.84223 226.33 6.54954C225.542 6.21997 224.735 6.0333 223.925 5.97107C223.268 5.75674 222.606 5.56775 221.933 5.42026C220.351 5.07455 218.696 4.88096 217.054 4.89709C217.021 4.47238 217.004 4.04258 217.007 3.6077L217.01 3.38984C217.047 1.99552 215.934 0.882364 214.622 0.684162ZM216.215 112.242C216.441 112.29 216.669 112.329 216.897 112.357C216.828 112.527 216.759 112.698 216.692 112.868C216.508 112.972 216.321 113.071 216.134 113.163C216.19 112.85 216.222 112.534 216.215 112.242ZM228.061 108.723L228.214 109.005C228.239 109.051 228.264 109.097 228.288 109.142C227.963 109.116 227.635 109.123 227.312 109.16L227.313 109.126C227.355 109.112 227.396 109.099 227.436 109.08C227.659 108.973 227.866 108.853 228.061 108.723ZM221.659 95.8508C219.619 95.9696 217.891 96.2822 216.035 97.1742L215.876 97.2521C214.237 98.0656 211.525 99.5683 211.753 101.723C211.818 102.336 212.263 102.981 212.964 102.933C214.885 102.802 215.982 100.866 217.283 99.6581C218.594 98.4413 220.206 97.1898 221.795 96.3533C222.019 96.2355 221.931 95.8627 221.687 95.8507L221.659 95.8508ZM230.909 67.4596C231.398 67.4757 231.234 67.9505 230.983 67.5541C230.962 67.5218 230.937 67.4896 230.909 67.4596ZM204.524 35.7654C209.153 35.887 213.812 38.6192 217.28 41.3809C220.297 43.7835 222.902 46.6413 225.209 49.7215C225.803 51.2555 226.312 52.8215 226.743 54.3991C227.026 55.4408 227.204 56.494 227.442 57.5449L227.515 57.8671C227.702 58.2156 227.84 58.5906 227.941 58.978C227.521 59.3993 226.976 59.701 226.375 59.8441C226.182 59.8902 226.021 59.99 225.894 60.1222C225.411 59.3161 224.988 58.4652 224.743 57.5631L224.734 57.5214C223.805 56.0006 222.796 54.527 221.714 53.1038C218.731 49.1744 215.445 45.5929 211.495 42.613C208.5 40.3544 205.152 38.5844 201.592 37.4344C202.463 36.7317 203.453 36.1758 204.524 35.7654Z" fill="black"></path><path fill-rule="evenodd" clip-rule="evenodd" d="M162.787 121.222C164.485 121.714 166.309 121.758 168.04 121.25C169.61 120.789 171.223 119.775 172.379 118.434C173.405 117.242 174.07 115.794 174.044 114.248C174.041 114.072 173.978 113.924 173.881 113.81C173.776 113.687 173.63 113.602 173.474 113.566C173.313 113.528 173.143 113.541 172.998 113.607C172.867 113.667 172.754 113.768 172.684 113.916C172.506 114.149 172.329 114.379 172.152 114.602C170.724 116.365 169.341 117.682 167.193 118.154C166.028 118.411 164.864 118.297 163.796 117.906C162.653 117.487 161.62 116.751 160.811 115.809C160.445 115.383 160.013 115.209 159.59 115.206C159.112 115.203 158.638 115.425 158.282 115.781C157.932 116.13 157.697 116.605 157.676 117.101C157.657 117.537 157.799 117.992 158.178 118.398C159.424 119.736 161.039 120.716 162.787 121.222ZM162.839 99.145C161.098 100.203 158.445 102.67 160.318 105.292C162.523 107.605 165.697 104.953 167.262 103.754C168.712 102.825 170.342 105.215 168.996 106.3C157.693 114.665 153.105 99.4216 161.959 97.9012C162.933 97.7337 163.295 98.8178 162.839 99.145ZM179.127 94.4903C179.686 94.1325 180.345 94.0097 181.074 94.3415C181.644 94.6007 182.644 95.4646 183.34 96.6003C183.816 97.3772 184.154 98.2887 184.084 99.2381C184.067 99.4586 184.149 99.6211 184.277 99.7413C184.379 99.8363 184.526 99.906 184.698 99.9278C184.844 99.9464 185.008 99.9297 185.141 99.8881C185.394 99.8091 185.528 99.645 185.579 99.5109C186.066 98.2175 185.856 96.7742 185.31 95.472C184.573 93.7147 183.235 92.2427 182.358 91.7681C180.857 90.9557 179.087 90.9183 177.584 91.7459C176.305 92.4503 175.506 93.5876 174.71 94.7468C174.541 94.9933 174.373 95.2379 174.2 95.4782C173.852 95.9598 173.818 96.4373 173.952 96.8469C174.101 97.3006 174.482 97.6835 174.957 97.8839C175.397 98.0691 175.907 98.0951 176.358 97.9048C176.739 97.7441 177.089 97.4307 177.311 96.899C177.684 96.0036 178.305 95.0156 179.127 94.4903ZM150.705 96.4825C151.088 96.6821 151.388 96.7423 151.813 96.6149C152.048 96.5444 152.281 96.4091 152.463 96.2272C152.643 96.047 152.773 95.8229 152.824 95.5743C152.948 94.9607 153.284 94.3864 153.763 94.012C154.172 93.6919 154.688 93.5223 155.261 93.618C155.879 93.7211 156.468 94.1173 156.873 94.5844C157.009 94.7407 157.115 94.9182 157.222 95.0946C157.422 95.4243 157.616 95.7308 157.891 95.9729C157.996 96.065 158.153 96.1289 158.306 96.1289C158.368 96.1289 158.431 96.1188 158.49 96.1001C159.106 95.483 159.224 95.0148 159.204 94.5505C159.183 94.0636 158.991 93.5706 158.681 93.1106C157.953 92.0315 156.57 91.1468 155.638 90.9464C154.36 90.672 153.091 91.0014 152.074 91.7146C151.028 92.4484 150.252 93.5877 150.01 94.8717C149.952 95.1809 149.977 95.5147 150.095 95.8041C150.21 96.0869 150.41 96.3291 150.705 96.4825ZM176.309 82.9859C177.076 83.7325 177.983 83.8482 178.901 83.951C179.411 84.0087 179.819 84.0552 180.219 84.1456C181.321 84.3941 182.409 84.7683 183.402 85.3073C184.44 85.8707 185.572 86.5503 186.386 87.4208C186.579 87.6279 186.762 87.8453 186.945 88.0631C187.111 88.2617 187.272 88.453 187.441 88.6373C187.635 88.8491 187.819 89.0711 188.003 89.2925C188.116 89.4793 188.139 89.5252 188.162 89.5731C188.196 89.6449 188.236 89.7254 188.282 89.8116C188.344 89.9298 188.418 90.0592 188.494 90.1765C188.622 90.3908 188.69 90.4499 188.75 90.4763C188.848 90.52 188.941 90.5416 189.031 90.5299C189.116 90.519 189.196 90.4783 189.275 90.4117C189.668 90.0793 189.785 89.5338 189.773 88.9547C189.755 88.076 189.43 87.1031 189.131 86.505C188.436 85.1154 187.472 83.6708 186.313 82.6336C184.991 81.4497 183.544 80.5534 181.882 79.9358C180.849 79.5519 179.653 79.1995 178.528 79.244C177.718 79.276 176.945 79.5167 176.306 80.1176C175.914 80.4866 175.726 81.0113 175.726 81.5357C175.726 82.0705 175.922 82.6084 176.309 82.9859ZM149.146 89.8227C149.195 89.9026 149.262 89.9576 149.337 89.9907C149.416 90.0253 149.504 90.0353 149.588 90.0211C149.672 90.007 149.752 89.9689 149.815 89.9108C149.876 89.8551 149.922 89.7812 149.943 89.6907C150.452 87.4562 151.44 85.7937 153.55 84.7216C154.587 84.1942 155.78 83.8591 156.91 83.592C157.238 83.5143 157.585 83.464 157.934 83.413C159.029 83.2533 160.132 83.0703 160.845 82.1858C161.275 81.653 161.456 80.9717 161.354 80.3485C161.258 79.7618 160.915 79.2238 160.291 78.9014C158.739 78.0992 156.81 78.8864 155.242 79.557C155.126 79.6067 155.012 79.6556 154.9 79.7027C153.367 80.3495 151.969 81.2032 150.82 82.4242C149.908 83.3928 149.063 84.8247 148.723 86.2978C148.439 87.5233 148.506 88.7745 149.146 89.8227Z" fill="black"></path></svg>