<svg xmlns="http://www.w3.org/2000/svg" width="338" height="734" viewBox="0 0 338 734" fill="none"><path fill-rule="evenodd" clip-rule="evenodd" d="M56.4015 334.45C56.4438 337.31 56.7317 343.878 57.4527 346.646C49.4208 333.829 37.3856 319.821 35.5553 304.122C36.1257 303.967 38.6567 303.734 39.0985 303.404C43.254 305.326 42.4679 299.411 43.082 296.675C44.7405 290.883 48.225 285.186 49.739 279.355C53.7187 277.642 45.7268 276.916 44.5657 276.882C49.3929 271.531 51.6133 264.175 55.0503 257.933C60.1006 247.325 64.6237 236.481 68.6624 225.467C69.5452 232.368 69.7035 239.344 69.1656 246.284C67.5048 276.008 56.289 304.588 56.4015 334.45ZM335.163 281.65C332.664 282.068 328.5 282.464 326.007 282.667C329.28 280.725 338.954 277.023 332.857 273.697C330.978 273.014 328.96 273.989 327.065 274.29C319.192 275.58 309.472 275.512 301.508 274.862C304.411 272.49 308.233 269.073 311.067 266.618C312.572 265.314 314.032 264.819 312.339 262.871C309.353 260.103 304.014 262.142 300.562 263.358C291.041 268.669 280.289 274.43 270.07 278.516C269.963 277.091 270.029 275.248 268.648 274.29C264.599 272.39 261.618 272.946 257.309 272.44C252.287 271.691 247.823 270.838 242.849 269.516C239.596 267.046 237.613 259.762 232.411 260.576C237.018 249.034 229.997 236.991 227.359 225.939C224.067 214.629 222.337 202.882 222.29 191.122C222.258 172.293 211.304 157.846 195.476 148.184C189.236 143.989 185.046 133.785 177.32 131.741C176.338 127.987 176.278 126.339 175.415 122.557C174.982 121.471 174.66 115.576 173.571 115.777C172.37 109.938 166.248 107.596 160.951 106.373C154.064 104.952 144.452 103.231 138.261 107.24C136.468 108.726 135.68 111.214 135.549 113.436C134.861 116.395 133.43 119.46 131.762 122.028C128.915 121.07 130.526 119.286 127.711 118.87C102.003 115.077 73.4677 133.854 56.7881 152.171C26.5538 183.082 2.4005 225.28 6.35419 269.335C5.29087 269.179 0.577953 268.443 0.645245 269.926C0.876793 276.373 2.06815 281.75 2.397 288.192C2.07015 296.727 10.9756 297.755 17.4088 299.859C17.0126 324.62 26.0476 349.386 40.1889 369.739C43.6244 373.744 48.7795 387.642 55.0503 382.106C55.7893 381.245 50.0583 375.284 49.0387 373.811C45.5572 369.448 36.335 347.842 42.8527 343.527C44.3016 348.191 58.3319 370.617 60.833 357.888C64.1547 359.808 69.6437 361.118 73.6147 360.919C81.0797 364.945 88.3436 369.293 95.5125 373.811C98.8518 380.341 103.75 386.612 107.853 392.881C79.4544 458.191 51.7351 565.686 15.1893 627.201C12.0029 631.218 29.5322 638.045 32.6284 639.519C26.7074 649.092 25.9661 660.184 21.4615 670.491C20.6035 670.353 19.7379 670.535 18.964 670.947C13.4073 674.694 11.3104 688.106 10.9936 694.72C11.2501 697.67 10.1518 702.131 12.549 704.304C12.2139 704.665 11.9639 705.106 11.7858 705.556C10.0988 706.863 10.3066 709.753 11.2084 711.544C14.3813 718.101 37.5736 717.493 45.0998 718.895C71.7593 721.143 94.1352 721.498 120.791 719.04C124.063 718.358 121.589 713.276 119.973 711.897C120.719 711.445 121.197 710.62 120.87 709.559C114.81 692.305 92.9081 693.472 79.6551 684.258C83.1399 682.251 80.8907 682.891 78.7013 683.672C76.3776 682.218 74.1172 680.582 72.0233 678.774C73.6315 677.786 72.8383 677.133 71.0985 677.96C68.3565 675.771 66.2208 672.387 62.7278 671.326C59.3065 670.491 59.3065 669.034 59.3065 668.116C61.3426 659.965 63.5667 651.606 64.7098 643.339C65.9292 645.129 76.4501 630.782 78.7013 627.201C87.4482 613.408 87.4246 599.816 93.5456 584.817C106.115 552.153 131.863 483.693 147.565 452.454C184.305 512.061 166.41 592.677 189.075 656.238C190.082 658.148 191.976 665.31 194.599 663.244C195.619 663.481 196.703 663.609 197.674 663.746C197.394 670.694 196.871 677.624 195.711 684.5C194.631 684.784 193.713 685.349 193.238 686.336C191.419 685.006 187.936 704.626 187.638 706.625C187.633 709.203 185.401 714.943 187.44 716.475C184.503 717.672 184.022 722.095 186.088 724.369C192.222 732.577 222.121 730.322 233.152 731.698C247.1 731.353 305.454 736.553 309.505 723.378C310.311 720.371 308.93 716.574 306.121 715.416C307.245 712.804 304.554 710.283 302.908 708.45C293.199 698.396 278.271 696.812 265.345 692.436C265.827 691.944 248.473 683.091 244.71 680.902C244.959 677.929 238.754 680.91 238.737 680.902C235.778 675.696 233.682 667.597 231.699 661.981C235.36 660.851 244.18 659.847 245.815 656.238C251.069 654.484 245.799 646.897 244.71 643.339C213.912 566.615 243.131 469.839 197.674 397.423C206.007 392.672 215.566 382.274 207.335 373.551C205.688 371.454 201.659 364.926 201.725 366.066C200.195 359.85 196.776 349.143 195.711 342.857C191.801 319.78 194.364 298.168 197.674 274.862C202.27 292.399 218.109 307.01 234.223 315.022C240.511 317.605 248.815 322.938 255.719 321.255C261.95 319.42 273.267 306.684 274.601 300.567C292.765 302.717 311.626 300.991 328.985 295.306C331.214 294.467 333.851 294.538 333.162 291.389C332.475 288.717 327.575 289.399 325.468 289.895C328.688 288.118 337.048 287.652 336.987 283.005C336.876 282.037 336.157 281.484 335.163 281.65Z" fill="white"></path><path fill-rule="evenodd" clip-rule="evenodd" d="M135.613 109.484C135.889 109.596 136.077 110.014 136.189 110.643C136.497 110.738 136.76 110.965 136.84 111.305C137.073 112.307 136.8 113.352 136.59 114.351L136.566 114.466C136.367 115.433 136.124 116.394 135.827 117.336L135.784 117.575C135.061 121.469 133.667 125.172 132.03 124.543L132.408 125.228C138.832 136.836 157.18 168.003 171.506 163.56C179.848 160.231 179.729 149.409 179.119 141.877C172.924 145.66 171.766 116.702 173.036 113.502C174.047 112.761 174.534 119.423 174.91 120.341C175.731 123.995 176.737 127.602 177.682 131.226C179.68 131.619 181.569 132.412 183.239 133.548C183.318 133.594 183.401 133.635 183.479 133.682C184.481 134.289 185.263 135.064 185.96 135.922C186.748 136.8 187.422 137.761 188.058 138.748C189.457 140.331 190.791 141.972 192.169 143.572C192.823 144.331 193.492 145.067 194.177 145.784L194.704 146.226C194.793 146.299 194.881 146.372 194.97 146.444C210.796 156.283 221.753 171.005 221.784 190.18C221.831 202.159 223.56 214.123 226.852 225.644C229.489 236.902 238.011 248.408 233.404 260.164C238.606 259.335 239.089 265.993 242.342 268.51L243.364 268.785C247.934 270.01 252.125 271.031 256.801 271.742C261.11 272.257 266.091 271.691 270.14 273.626C271.521 274.602 271.027 276.361 271.134 277.813C281.353 273.651 290.531 267.901 300.053 262.491L300.372 262.377C303.896 261.132 310.183 259.26 313.079 261.995C314.773 263.979 313.063 265.75 311.557 267.079C308.724 269.58 305.718 271.873 302.816 274.29C310.638 274.94 318.484 274.421 326.219 273.158L326.641 273.088C328.536 272.781 330.771 272.046 332.651 272.743C338.747 276.13 331.694 280.085 328.42 282.064C330.914 281.857 333.404 281.549 335.903 281.122C336.897 280.953 337.615 281.517 337.725 282.503C337.788 287.237 331.526 287.492 328.306 289.302L328.564 289.241C330.67 288.756 333.697 288.329 334.356 290.942C335.045 294.15 330.703 295.446 328.475 296.3C311.116 302.091 292.256 303.849 274.092 301.659C272.759 307.889 261.442 320.862 255.211 322.732C248.307 324.445 240.004 319.014 233.715 316.382C217.602 308.221 202.673 294.758 198.078 276.896C194.216 304.592 195.777 332.514 201.574 359.764C202.513 361.888 203.503 363.98 204.617 366.018C204.954 366.072 205.238 366.296 205.304 366.749C205.338 366.997 205.389 367.239 205.445 367.477C206.555 369.354 207.771 371.157 208.899 373.022C209.133 373.408 209.363 373.808 209.573 374.218C217.088 383.043 207.929 394.415 199.737 399.173C245.193 472.934 215.834 565.887 246.632 644.037L246.7 644.259C247.869 647.976 251.43 655.627 246.281 657.378C244.646 661.054 236.408 661.488 232.748 662.639C234.731 668.359 236.936 674.016 239.895 679.319L239.948 679.343C241.126 678.48 243.653 677.588 244.697 678.529C244.951 678.56 245.204 678.632 245.452 678.754C247.068 679.554 248.368 681.082 249.914 682.045C250.75 682.566 251.619 683.039 252.514 683.452C253.347 683.836 254.232 684.089 254.912 684.723C255.126 684.923 255.181 685.177 255.128 685.411C255.664 685.688 256.2 685.966 256.735 686.246L257.025 686.065C261.749 683.134 265.547 681.547 258.676 687.177C261.138 688.31 263.663 689.302 266.204 690.231C268.135 689.306 270.195 688.632 272.319 688.539C272.701 689.01 269.781 690.827 269.299 691.328C282.225 695.785 296.441 699.275 306.149 709.516L306.257 709.637C307.909 711.493 310.462 714.008 309.363 716.612C312.171 717.791 313.552 721.658 312.746 724.721C308.695 738.141 246.593 732.844 232.645 733.195C221.615 731.794 191.716 734.092 185.583 725.731C183.517 723.414 183.997 718.909 186.934 717.69C184.896 716.13 187.128 710.283 187.133 707.657L187.179 707.353C187.492 705.392 188.845 697.719 190.25 692.357C190.279 691.935 190.335 691.502 190.403 691.066L190.447 690.789C190.726 689.08 191.155 687.342 192.264 685.967C193.06 684.981 194.163 684.371 195.36 684.151C195.681 682.11 195.944 680.063 196.17 678.013C196.33 675.603 196.39 673.189 196.363 670.774C196.349 669.555 196.316 668.336 196.257 667.117C196.213 666.221 196.264 665.156 196.036 664.24C195.883 664.395 195.667 664.478 195.424 664.395C194.908 664.219 194.433 663.895 193.959 663.629C193.942 663.619 193.927 663.607 193.912 663.596C191.383 665.232 189.553 658.234 188.569 656.334C165.906 591.591 183.8 517.082 147.061 456.368C141.989 467.208 137.631 477.152 132.749 488.068C117.503 522.157 98.6817 582.204 86.0596 618.3C82.6254 625.679 78.5888 632.81 73.7905 639.399C72.2566 641.131 71.2274 643.68 69.0068 644.611L68.8125 644.64C68.2198 645.743 67.3971 646.672 66.1738 646.641C65.8737 646.633 65.5676 646.599 65.2585 646.546C64.1742 654.057 62.8109 661.616 60.9984 669.007L61.2429 668.905C62.4292 668.417 63.6768 668.001 64.8944 668.109C67.8492 668.854 66.7552 671.427 64.4195 672.276C67.3268 673.175 69.2941 675.712 71.4529 677.824C73.2774 676.845 75.3224 676.337 77.5078 676.551C77.8424 676.583 78.0974 676.729 78.2747 676.929C78.4 676.93 78.5218 676.937 78.6373 676.956L78.3995 677.099C78.7876 677.749 78.5106 678.739 77.5078 678.744C76.7206 678.748 75.9626 678.819 75.2297 678.954C74.7208 679.251 74.2144 679.55 73.715 679.863C75.3997 681.345 77.1935 682.711 79.0404 683.961C80.016 683.464 81.0475 683.048 82.1205 682.714C83.5056 682.283 84.1103 684.477 82.7189 684.874C82.4236 684.958 82.131 685.052 81.8404 685.153L81.5551 685.325C81.4882 685.365 81.4188 685.406 81.3463 685.448C94.5991 694.834 117 693.645 123.06 711.22C123.261 711.883 123.157 712.456 122.876 712.906C124.189 714.106 124.795 716.263 124.499 717.918L124.524 718.057C124.75 719.396 124.426 720.571 122.981 720.877C113.343 721.771 103.729 722.339 94.0492 722.515L93.2681 722.521C79.3996 722.614 11.9437 722.112 8.90099 713.242C8.08952 711.6 7.83946 709.052 9.02677 707.587C9.16456 706.799 9.43588 706.082 9.91826 705.52C7.96449 703.555 8.9255 698.6 8.68643 696.105C9.1153 687.774 10.8122 678.841 15.9246 672.024C16.0081 671.916 16.1092 671.85 16.2134 671.817C17.1062 670.924 18.2792 670.359 19.6206 670.283C19.6624 670.179 19.7049 670.076 19.7456 669.972C20.7884 667.523 21.7789 665.029 22.7629 662.523C23.4931 659.675 24.2548 656.835 25.0178 654.011C25.7802 651.189 26.5262 648.363 27.2559 645.532C27.837 643.276 28.3369 640.733 29.3427 638.577C29.3154 638.485 29.2892 638.393 29.2592 638.301L28.2126 637.879C21.3573 635.104 10.4952 630.422 12.8818 627.331C38.3133 574.696 63.2072 499.763 86.5454 445.196C86.91 444.126 87.2956 443.063 87.719 442.009C88.7497 439.444 89.7938 436.882 90.8526 434.327L91.4898 432.796L101.657 408.429C102.722 405.878 103.921 403.341 104.76 400.706C105.568 398.168 105.785 395.642 104.25 393.332C102.876 391.265 100.94 389.554 99.3911 387.612C98.2198 386.144 97.078 384.575 96.0547 382.927C95.1255 381.707 94.3488 380.31 93.6558 379.184C92.5453 377.381 91.1332 375.384 90.3272 373.299C89.2877 372.647 88.2461 371.997 87.2009 371.354C85.3956 370.347 83.6194 369.291 81.8904 368.15C79.7069 366.856 77.5093 365.586 75.2944 364.344C74.495 363.949 73.695 363.555 72.8941 363.162C70.4944 363.37 63.8651 360.424 61.6068 358.43C61.3487 358.379 61.0919 358.32 60.8366 358.256C60.7346 359.529 60.317 360.682 59.3439 361.537C52.873 364.735 44.6253 350.25 42.3522 345.417C37.835 349.812 48.6133 371.555 52.095 375.999L52.2808 376.275C53.212 377.665 54.1883 379.225 55.5092 380.252L55.6425 380.353C56.5479 381.02 56.716 382.062 55.9773 382.939C49.7064 388.578 43.1236 376.196 39.6882 372.117C25.5479 351.385 16.5128 326.158 16.9089 300.938C10.4762 298.794 1.57079 297.747 1.89762 289.054C1.56879 282.493 0.377468 276.001 0.145225 269.434C0.0788885 267.924 4.79164 268.673 5.85518 268.833C4.28851 253.745 6.65564 238.426 10.8775 223.925C21.9615 186.821 67.6044 119.946 112.529 117.532C112.49 117.459 112.508 117.361 112.609 117.335C114.642 116.809 116.89 116.893 118.979 116.959C121.154 117.028 123.365 117.043 125.528 117.287C127.77 117.541 130.144 118.362 131.65 119.986L132.172 119.048C132.778 117.954 133.361 116.848 133.802 115.64C134.025 115.03 134.2 114.397 134.359 113.758C134.54 112.846 134.585 111.897 135.018 111.068C135.03 111.047 135.044 111.029 135.057 111.009C135.212 110.487 135.391 109.976 135.613 109.484ZM190.75 717.658C190.108 718.308 188.995 718.592 188.009 718.281C184.733 727.551 202.507 726.969 208.211 727.491C214.294 728.137 325.098 733.876 306.359 720.284C284.375 728.629 210.844 729.55 190.75 717.658ZM244.711 680.901C243.232 682.42 241.002 683.095 239.415 684.545C234.93 688.324 231.321 693.64 225.122 694.641C216.978 696.155 209.636 692.152 202.351 688.982C201.444 688.939 200.498 688.557 199.568 688.274C199.535 688.341 199.502 688.409 199.465 688.471C199.42 688.453 199.371 688.438 199.317 688.43C199.236 688.416 199.159 688.408 199.08 688.396C198.893 688.247 198.696 688.122 198.492 688.016C198.369 687.998 198.246 687.983 198.124 687.975C196.623 687.884 194.993 688.232 194.03 689.471C193.947 689.577 193.873 689.688 193.8 689.801C193.333 691.449 193.274 693.443 193.499 694.837C193.572 695.292 193.381 695.74 193.059 695.998C192.771 702.895 191.991 709.821 191.447 716.626C194.172 717.601 196.999 718.343 199.829 718.813C219.356 721.204 239.091 722.315 258.768 721.714C270.482 721.292 282.179 720.25 293.771 718.517C297.518 718.166 301.354 716.722 305.098 717.305C305.258 717.005 305.507 716.748 305.852 716.573C296.254 703.484 279.848 699.945 265.544 694.206C263.182 695.71 261.728 698.842 259.096 699.775C258.075 699.928 256.655 699.328 256.804 698.037C257.229 695.395 260.095 694.19 262.025 692.657C259.954 691.694 257.922 690.647 255.941 689.483C253.994 691.23 251.691 692.56 249.868 694.423C250.904 696.942 246.585 696.724 246.537 694.043C246.836 691.078 251.554 689.822 253.661 688.093C250.37 686.098 247.43 683.582 244.711 680.901ZM12.8113 706.817C12.6965 707.042 12.5092 707.247 12.2319 707.407C11.7518 707.683 11.9825 709.146 12.0066 709.639L12.0081 709.675C12.0343 710.56 12.0898 711.442 12.1669 712.323C12.9771 713.051 14.0131 713.605 15.1642 713.937C50.2198 719.507 85.948 719.96 121.342 717.937C121.179 717.001 120.491 716.229 119.882 715.448C97.5069 717.342 74.5933 715.36 52.1803 713.515C39.0773 711.799 25.3486 711.089 12.8113 706.817ZM63.8481 672.539C58.0706 674.519 52.6947 677.267 47.5738 680.559C45.6708 681.791 43.8546 683.205 41.667 683.912C34.0925 686.182 22.7362 675.277 22.5541 675.155C19.9237 673.392 17.1344 675.036 15.7033 677.48C15.571 677.706 13.3772 690.207 13.4435 696.331C13.0498 698.412 14.1001 701.815 13.5412 704.085C13.9806 704.611 14.607 704.859 15.0289 705.41C15.1817 705.609 15.1384 705.835 15.0064 706.005C35.4608 707.681 55.7962 710.862 76.348 711.533C90.4137 712.274 104.506 712.104 118.574 711.934C115.374 702.576 104.472 700.104 96.1445 697.024C89.8528 694.773 84.0603 691.42 78.9634 687.109C76.7531 688.654 75.0101 690.819 73.4442 692.995C72.7328 693.879 71.2716 694.547 70.5097 693.321C69.725 692.05 71.2569 690.444 73.1484 689.036C74.1431 687.569 75.3977 686.319 76.8424 685.289C75.2452 683.872 73.7073 682.395 72.2666 680.824C69.2791 682.84 67.0843 685.74 64.9352 688.554C63.9024 689.675 61.9709 688.192 62.8181 686.928C63.497 686.056 64.2613 685.252 65.0795 684.499C66.3128 682.182 68.0885 680.042 70.2428 678.561L70.0785 678.353C68.279 676.053 66.7233 673.294 63.8481 672.539ZM12.9436 705.348C12.8941 705.409 12.842 705.468 12.7865 705.524C12.836 705.625 12.8741 705.73 12.9021 705.838L13.4269 705.879C13.2446 705.729 13.0841 705.546 12.9436 705.348ZM230.826 663.018C220.109 665.033 209.039 665.808 198.222 664.144C199.475 671.1 200.259 678.1 199.848 685.164C216.021 689.813 222.741 697.565 236.197 682.073C235.547 681.087 235.172 679.877 234.735 678.709C232.876 673.644 231.339 668.404 230.826 663.018ZM33.9909 640.202C33.8381 640.539 33.5626 640.816 33.1655 640.938C33.0239 641.561 32.8776 642.183 32.7216 642.804C32.459 646.009 31.2442 649.187 29.9879 652.144C29.9016 652.348 29.8168 652.552 29.7315 652.756C28.9028 655.215 28.0341 657.669 27.1771 660.127C26.5279 662.679 25.956 665.252 25.3584 667.817C25.2431 669.557 24.995 671.282 24.6137 672.987C24.5959 673.066 24.5722 673.139 24.5459 673.209C25.1448 673.475 25.723 673.783 26.2681 674.095C42.6765 686.37 39.8427 678.163 55.5972 671.291C55.5066 670.63 55.8386 670.035 56.1094 669.351L56.1443 669.262C56.1608 669.219 56.1771 669.175 56.1936 669.132C56.1676 668.871 56.1828 668.591 56.2521 668.294C57.8478 661.795 60.0696 655.409 62.1492 649.051C62.482 648.093 62.8674 647.158 63.2612 646.223C53.2721 646.095 43.3914 643.447 33.9909 640.202ZM95.9397 376.862C186.57 489.389 166.716 502.659 186.23 632.389C188.126 642.488 191.978 652.073 194.527 661.979L194.879 661.945C195.228 661.912 195.559 661.891 195.805 661.969L195.815 661.973L196.82 661.961C208.545 661.8 220.322 661.19 231.774 658.529C235.824 657.82 239.771 655.962 243.824 655.573C243.84 655.049 244.09 654.56 244.43 654.277C213.17 580.657 234.95 496.558 207.83 421.687C205.256 414.195 202.191 406.869 199.02 399.609C164.163 420.36 125.208 396.86 95.9397 376.862ZM29.6695 643.359C29.4762 644.208 29.2658 645.046 29.0738 645.855L28.791 647.062C29.1934 645.842 29.5107 644.605 29.6695 643.359ZM108.102 396.789C108.163 398.65 107.712 400.525 107.101 402.275C105.144 407.882 102.637 413.344 100.393 418.842C98.8705 422.573 97.3613 426.31 95.8359 430.041C73.2431 490.139 45.5103 570.694 18.1485 627.647C28.4577 633.588 39.7615 637.792 51.4556 640.069C54.1711 640.973 61.9364 641.013 64.6849 642.447L65.3108 641.835C65.4191 639.271 68.3381 637.443 69.5066 635.195C74.7821 627.795 78.9872 619.703 82.8019 611.479L83.4253 609.675C93.5667 580.269 106.802 539.79 120.746 505.569L121.177 504.513C126.956 490.4 130.754 477.39 137.728 466.714C138.108 466.139 138.493 465.564 138.88 464.989C139.165 464.418 139.453 463.849 139.745 463.28C140.996 460.853 142.344 458.478 143.616 456.062C144.159 455.033 144.697 453.871 144.982 452.681C133.903 433.304 120.702 415.193 108.102 396.789ZM124.694 119.118C121.218 119.96 117.655 120.304 114.158 121.002C90.0596 123.864 71.5837 140.878 55.6687 157.772C25.5209 189.299 7.9805 228.091 9.27509 271.935C20.0412 273.888 30.6963 276.746 41.6655 277.371C40.0713 274.967 42.741 271.96 43.66 269.658C59.526 239.138 71.7765 205.446 81.7244 173.315L81.454 174.717C78.3305 190.844 74.6921 206.902 69.1385 222.392C70.7472 220.817 97.1738 199.892 95.1082 206.811C87.0343 213.094 77.9151 218.073 69.4551 223.839C79.5141 257.293 64.9719 291.19 62.209 324.658C61.5148 332.1 61.575 339.593 60.642 347.007C60.2872 347.845 60.6608 349.55 60.1384 350.348C60.5253 352.315 61.339 354.108 63.0182 355.644C63.7251 356.291 64.4968 356.851 65.308 357.35C67.3333 357.655 69.3676 358.431 71.0171 359.15C74.6873 360.751 77.9174 363.11 81.198 365.364L81.2858 365.423C86.5755 368.129 91.8596 371.203 97.1633 374.409L97.4001 374.532C99.3729 375.563 101.39 376.493 103.109 377.922C103.187 377.988 103.239 378.062 103.274 378.14L106.495 380.121C132.299 395.976 158.904 411.655 189.157 400.338C197.657 396.929 210.014 390.023 208.427 379.344C208.114 378.319 207.638 377.357 207.1 376.421C206.951 376.22 206.797 376.022 206.642 375.827C205.47 374.352 204.158 372.999 203.14 371.406C202.725 370.757 202.354 370.09 202.029 369.403C201.8 369.334 201.596 369.173 201.467 368.893C200.011 365.731 198.585 362.564 197.256 359.346C181.151 303.449 200.699 243.39 206.23 187.012C206.613 183.784 207.177 180.522 207.176 177.27C207.176 177.118 207.398 177.123 207.41 177.27C209.361 191.66 207.881 206.183 206.027 220.508C203.652 238.428 200.533 256.274 198.389 274.227C204.087 292.322 220.044 305.398 236.799 313.239C239.65 314.588 242.565 315.789 245.537 316.847L245.736 316.916C249.002 318.054 252.687 319.812 255.838 317.507C261.884 313.422 266.152 307.189 270.071 301.185C268.485 301.015 266.898 300.866 265.31 300.758C261.41 305.199 256.631 308.969 251.588 312.05C249.533 313.223 247.199 312.727 246.249 310.432C245.352 308.266 246.45 305.736 247.245 303.648L247.36 303.343C251.384 292.538 258.372 282.636 267.808 275.869C260.689 274.452 253.295 274.495 246.466 271.695C246.839 272.084 246.351 272.52 246.114 272.851C246.198 273.491 245.731 273.959 245.156 274.131C239.584 281.378 235.361 289.962 234.48 299.154C234.714 302.285 231.9 305.9 229.19 302.613C227.071 293.462 235.408 279.162 242.739 273.515C235.387 268.492 237.53 261.243 232.915 261.209C231.722 263.488 230.166 265.67 228.205 267.363C227.318 268.081 226.242 268.622 225.29 269.258C224.29 269.928 223.248 268.455 224.04 267.646L224.249 267.396C227.26 263.811 230.834 260.288 231.456 255.439C232.354 249.467 229.658 243.417 227.592 237.961C223.63 227.503 221.002 216.622 219.722 205.518C218.272 195.569 220.036 185.249 216.614 175.621C215.934 172.94 214.956 170.498 213.758 168.232C213.729 168.208 213.701 168.184 213.675 168.154C212.252 166.515 211.115 164.692 209.788 162.976C208.401 161.18 206.896 159.471 205.303 157.854C202.64 155.153 199.7 152.898 196.635 150.728C196.578 150.707 196.521 150.681 196.463 150.647C195.889 150.309 195.338 149.899 194.806 149.448L194.754 149.413C192.972 148.179 191.153 146.841 189.762 145.167C188.397 143.523 187.425 141.606 186.31 139.795C184.786 137.945 183.333 135.962 181.496 134.42C180.456 133.829 179.374 133.272 178.447 132.533C178.295 132.47 178.141 132.41 177.984 132.353C178.379 133.958 178.977 135.435 179.516 137.065C180.297 136.737 181.365 137.101 181.497 138.298L181.545 138.745C182.329 146.077 182.726 154.95 178.394 161.299C168.856 175.067 154.61 163.312 147.404 153.632C140.938 145.911 135.503 137.322 131.488 128.092L131.422 127.97C130.674 126.558 129.054 122.251 128.596 120.181C127.439 119.574 126.03 119.28 124.694 119.118ZM94.1575 375.722C94.1285 375.758 94.0955 375.789 94.0594 375.817C95.4123 377.73 96.7011 379.708 98.0295 381.627C96.9405 379.855 95.9167 378.069 95.0102 376.264C94.7266 376.082 94.4415 375.902 94.1575 375.722ZM18.4493 301.414C23.6192 329.354 31.0074 358.751 51.5939 379.641C45.1869 370.657 40.2046 360.17 38.755 349.185C38.6949 346.237 39.7735 343.123 43.0503 342.687C43.6096 342.612 44.0344 343.111 44.2342 343.554L44.2534 343.598C45.5425 346.661 47.2187 349.574 49.2035 352.244L49.3981 352.496C50.8958 354.424 57.2531 362.283 58.1399 358.527C57.4907 339.537 37.7747 331.707 34.5458 305.553C29.0214 304.97 23.779 302.882 18.4493 301.414ZM60.8338 356.835C60.8551 357.134 60.8653 357.429 60.8608 357.719C61.1537 357.599 61.4548 357.502 61.7626 357.428C61.45 357.235 61.1409 357.037 60.8338 356.835ZM60.5415 354.789C60.6498 355.335 60.7413 355.886 60.7976 356.431C61.3602 356.609 61.9169 356.804 62.4705 357.006C62.1349 356.706 61.8156 356.389 61.5163 356.05C61.1674 355.656 60.8403 355.232 60.5415 354.789ZM68.1608 225.163C64.1225 236.382 59.5993 247.428 54.5492 258.233C51.1583 264.556 48.8959 271.924 44.2037 277.411C44.1579 277.455 44.1119 277.495 44.0649 277.533L44.1426 277.536C45.5408 277.598 53.138 278.342 49.2383 280.053C47.7241 285.992 45.7403 291.795 44.0816 297.695L44.0446 297.866C43.4378 300.719 42.6704 306.467 38.5979 304.549C38.156 304.885 37.6256 305.122 37.0552 305.28C38.8857 321.27 49.0462 331.68 57.0781 344.735C55.2826 337.845 55.8073 330.65 56.4325 323.615L56.5875 321.884C59.9061 289.628 72.0848 257.909 68.1608 225.163ZM101.89 327.694C95.3436 319.572 63.1465 239.158 85.8998 287.876C93.9867 304.836 100.643 322.993 113.985 336.735C114.907 337.721 113.692 339.455 112.493 338.658C108.187 335.797 104.701 332.001 101.89 327.694ZM78.587 230.502C78.56 230.371 78.7278 230.299 78.8016 230.411C87.5497 247.601 93.7959 266.075 103.68 282.744C109.647 293.066 116.806 302.688 125.005 311.365C125.621 312.016 124.694 312.917 124.027 312.338C100.623 290.847 89.2441 259.606 78.587 230.502ZM251.086 301.273L251.072 301.276L250.857 301.83C250.784 302.016 250.709 302.205 250.634 302.395C250.67 302.379 250.706 302.365 250.742 302.35C250.819 302.273 250.896 302.195 250.972 302.113C250.955 301.831 250.99 301.547 251.086 301.273ZM5.94795 269.508C4.75964 269.972 3.29975 270.059 1.98615 270.173C3.45679 277.069 4.72638 284.017 6.05748 290.932C6.6729 293.054 8.11978 293.8 10.1223 294.473L11.7318 294.985C19.2454 297.381 26.8015 299.842 34.5491 301.312C35.0937 300.959 35.8674 300.976 36.229 301.542C36.6059 301.577 36.9927 301.597 37.3751 301.633C39.4451 294.025 42.9873 286.652 47.7273 280.341C34.4786 280.766 21.134 277.289 8.53014 273.4C8.01976 273.647 7.34758 273.493 7.13227 272.909L6.93816 272.854C4.82222 272.229 2.01665 270.694 6.46334 271.474C6.19477 270.851 6.04573 270.181 5.94795 269.508ZM310.592 263.878C301.81 262.433 295.099 269.515 287.604 272.765C283.117 274.681 271.158 280.623 266.811 278.647C260.85 284.357 255.818 291.029 252.299 298.515C253.258 298.458 254.218 298.415 255.177 298.385C256.915 297.83 258.77 297.801 260.574 298.336C278.647 298.534 296.732 302.029 314.731 297.599L315.145 297.522C318.843 296.824 331.467 294.168 332.186 291.566C331.997 290.433 328.603 291.63 327.95 291.758C322.762 292.775 317.491 293.26 312.234 293.769C310.772 293.91 310.791 291.646 312.234 291.503C318.562 290.876 324.557 288.512 330.364 286.052C330.981 285.78 332.616 285.216 333.747 284.484C328.383 285.391 322.855 285.549 317.427 285.356C315.558 285.116 315.426 282.29 317.427 282.346C321.091 282.749 324.592 280.949 327.583 279.049L328.235 278.628C333.221 275.393 332.873 275.253 326.571 276.455C317.311 278.133 307.939 278.071 298.587 277.431C297.253 277.408 296.331 275.621 297.436 274.663C301.742 270.963 306.358 267.663 310.592 263.878ZM268.143 277.355L268.041 277.451C267.826 277.657 267.65 277.838 267.552 277.935L267.512 277.973C267.379 278.097 267.251 278.225 267.12 278.35C267.694 278.542 268.328 278.553 268.981 278.452C268.587 278.206 268.294 277.805 268.143 277.355ZM103.153 247.76L103.132 247.734L103.181 247.787C108.831 253.87 114.556 263.737 119.237 271.518C119.854 277.896 106.016 251.435 103.153 247.76ZM245.308 271.273C245.362 271.34 245.415 271.41 245.466 271.481L245.542 271.588L245.663 271.514C245.708 271.487 245.755 271.471 245.803 271.459C245.637 271.398 245.473 271.335 245.308 271.273ZM219.461 250.503C224.544 251.297 214.15 257.583 212.778 258.483C211.9 258.815 203.547 265.679 204.054 263.451C207.964 258.454 213.36 252.631 219.461 250.503ZM20.6262 237.332C22.5062 234.318 32.7377 238.285 35.9718 238.761C37.7898 239.238 39.588 239.804 41.4255 240.204C42.8614 240.723 49.5567 240.221 47.0995 243.046C44.5356 244.417 41.1882 243.357 38.5625 242.629C33.3383 241.208 28.0962 239.551 22.7465 238.763C22.586 238.683 22.5762 238.737 22.7168 238.926C23.8676 241.471 26.2877 243.859 29.0137 244.679C29.202 244.733 29.1227 245.02 28.9322 244.971L28.749 244.933C25.6831 244.252 19.0595 241.022 20.6262 237.332Z" fill="black"></path><path fill-rule="evenodd" clip-rule="evenodd" d="M203.596 66.9797C203.496 61.4043 203.386 55.7175 202.554 50.1964C201.739 44.7987 199.499 39.9197 195.65 36.0001C187.475 27.6744 175.624 25.6409 164.593 23.7773L145.734 20.5909C139.98 19.619 133.841 18.0655 128.028 19.4438C125.164 20.123 122.731 21.7009 120.508 23.5677C118.365 25.3671 116.06 27.2994 114.608 29.7202C113.154 32.1445 112.653 34.9785 112.18 37.7204C111.647 40.8117 111.233 43.9271 110.938 47.0501C110.348 53.3068 110.268 59.6107 110.696 65.8804C110.903 68.9214 111.233 71.9537 111.654 74.9726C111.863 76.4696 112.099 77.9629 112.365 79.4509C112.444 79.8897 112.504 80.3755 112.584 80.8663C111.989 82.5502 111.651 84.2941 111.679 86.0305C111.759 91.1454 116.097 94.3657 120.47 96.0946C123.006 97.0971 125.657 97.7783 128.148 98.8982C130.769 100.076 132.553 101.986 134.345 104.164C137.763 108.319 141.619 112.053 146.023 115.169C155.36 121.774 167.186 124.898 178.515 122.527C181.234 121.958 183.976 121.074 186.419 119.743C188.999 118.338 190.939 116.301 192.568 113.893C195.592 109.423 197.761 104.39 199.402 99.2676C201.076 94.0426 202.264 88.8082 202.912 83.36C203.558 77.9295 203.694 72.4438 203.596 66.9797Z" fill="white"></path><path fill-rule="evenodd" clip-rule="evenodd" d="M143.412 1.16678C151.216 0.0983508 161.989 3.57094 165.875 10.5729C184.432 6.21899 207.836 6.07639 223.131 20.5703C239.09 37.7632 219.044 60.4322 205.752 65.5432C206.72 70.2238 205.211 100.21 194.535 113.585C186.061 124.918 166.329 130.148 157.199 116.612L157.128 116.5C156.149 114.937 156.992 114.987 157.996 116.15C166.937 123.975 179.093 124.109 188.461 115.851C206.018 100.756 204.208 63.7458 195.853 42.3346C172.064 39.7343 146.594 46.9102 130.164 64.7321L131.275 71.3891C131.464 72.5232 131.679 73.6563 131.843 74.7944C131.948 75.5237 131.96 76.2489 131.452 76.8392C129.776 78.7879 126.951 75.8596 124.627 74.6949C123.94 74.5988 123.253 74.5617 122.579 74.609C111.411 76.0406 113.612 97.6008 125.885 93.8216C126.917 93.1823 127.803 93.3774 128.203 94.3052C131.128 96.9722 133.057 101.729 137.918 106.31C139.633 108.029 141.193 109.466 143.122 110.845C144.256 111.985 147.674 113.148 146.591 115.099C144.541 119.54 132.455 105.592 130.318 101.734C123.623 104.365 116.204 103.472 109.266 102.828C72.6634 100.935 77.5497 62.5352 107.552 38.2918C113.199 34.154 119.43 30.7785 125.907 28.1809C126.791 27.8263 126.405 26.3813 125.508 26.7409C121.223 28.4599 117.045 30.506 113.062 32.874L113.056 31.4583C113.05 29.0737 113.088 26.5912 113.504 24.4124C113.712 22.9027 114.062 21.2903 114.601 20.0772C115.267 16.3583 125.698 3.59284 143.412 1.16678ZM122.09 79.5589C122.655 79.0245 123.71 79.6616 124.214 79.6457C125.5 79.8209 126.723 80.3617 127.676 81.0292C128.305 81.3801 128.746 81.7097 129.115 82.0128L129.125 82.01C129.122 82.01 129.119 82.0128 129.116 82.0135L129.15 82.0369C129.687 82.4164 131.652 84.554 130.41 83.9792C130.318 83.8595 130.223 83.7445 130.128 83.6317C130.117 83.6472 130.103 83.6623 130.086 83.677L130.156 83.78C131.211 85.3595 129.389 83.6954 129.109 83.2534C129.096 83.2641 129.081 83.2714 129.066 83.2791L129.431 83.7211C129.482 83.7839 129.522 83.834 129.556 83.8764L129.632 83.9503C130.852 85.1436 130.89 86.2175 129.473 84.4533C129.529 84.5364 129.574 84.6245 129.58 84.7027L129.664 84.8092C130.777 86.2362 129.872 85.7294 129.319 85.12L129.272 85.0675L129.282 85.0818C129.796 85.8704 128.776 85.3171 128.595 84.8952L128.588 84.8761C128.391 84.7165 128.27 84.5374 128.229 84.4922L128.221 84.4846C127.264 83.509 125.878 82.6835 124.699 82.3084C124.529 82.2761 124.356 82.2502 124.181 82.2318C123.473 82.0745 122.757 81.9667 122.033 81.9085C121.944 81.898 121.855 81.8334 121.788 81.7497C120.693 81.713 121.031 81.2666 121.485 81.1837L121.493 81.1823L121.403 81.1748C120.701 81.1065 120.221 80.8558 120.931 80.7018L121.021 80.684C121.01 80.6669 121 80.6497 120.991 80.6325C120.383 80.5661 120.78 79.9777 121.117 80.1201C120.975 79.6579 121.624 79.8886 121.705 79.8199C121.767 79.7517 121.844 79.6915 121.888 79.6883C122.084 79.5509 121.989 79.5633 122.09 79.5589ZM125.811 72.0762L125.669 72.1591C125.554 72.226 125.435 72.2706 125.316 72.2967C125.484 72.3679 125.65 72.4448 125.814 72.5269C125.812 72.4265 125.81 72.3263 125.81 72.2262L125.811 72.0762Z" fill="black"></path><path fill-rule="evenodd" clip-rule="evenodd" d="M181.456 102.559C179.614 103.09 177.636 103.138 175.758 102.589C174.055 102.092 172.307 100.997 171.053 99.5487C169.94 98.2619 169.218 96.698 169.247 95.0288C169.25 94.8382 169.318 94.679 169.424 94.5555C169.537 94.4225 169.696 94.3312 169.865 94.2916C170.04 94.2508 170.224 94.2653 170.382 94.3363C170.524 94.4006 170.646 94.5098 170.722 94.6695C170.914 94.9213 171.106 95.1694 171.299 95.4107C172.848 97.3142 174.348 98.7367 176.677 99.2469C177.941 99.5238 179.203 99.401 180.361 98.9786C181.6 98.5264 182.721 97.7313 183.599 96.7138C183.996 96.254 184.464 96.0663 184.923 96.0632C185.442 96.0596 185.955 96.2997 186.341 96.6834C186.721 97.0606 186.976 97.5732 186.999 98.1093C187.019 98.5799 186.865 99.0715 186.455 99.51C185.103 100.955 183.351 102.013 181.456 102.559ZM181.399 78.7189C183.287 79.8613 186.164 82.525 184.133 85.3571C181.742 87.8542 178.299 84.9911 176.603 83.6962C175.029 82.6927 173.262 85.2737 174.721 86.4455C186.981 95.4785 191.956 79.0176 182.354 77.3758C181.297 77.1949 180.904 78.3655 181.399 78.7189ZM163.734 73.6923C163.127 73.306 162.413 73.1734 161.622 73.5317C161.004 73.8115 159.919 74.7445 159.165 75.9709C158.648 76.8099 158.282 77.7942 158.358 78.8194C158.376 79.0575 158.288 79.2331 158.148 79.3629C158.038 79.4654 157.879 79.5407 157.692 79.5643C157.534 79.5843 157.356 79.5662 157.212 79.5214C156.937 79.4361 156.792 79.2588 156.737 79.1141C156.208 77.7173 156.436 76.1587 157.028 74.7525C157.828 72.8548 159.279 71.2652 160.23 70.7527C161.858 69.8754 163.777 69.835 165.407 70.7288C166.794 71.4894 167.662 72.7176 168.524 73.9694C168.708 74.2355 168.89 74.4997 169.078 74.7592C169.455 75.2792 169.492 75.795 169.346 76.2372C169.185 76.7271 168.772 77.1406 168.257 77.357C167.78 77.557 167.227 77.5852 166.737 77.3797C166.324 77.2061 165.944 76.8677 165.704 76.2935C165.299 75.3265 164.626 74.2596 163.734 73.6923ZM194.559 75.8437C194.143 76.0592 193.818 76.1242 193.357 75.9867C193.102 75.9105 192.85 75.7644 192.653 75.5681C192.457 75.3735 192.316 75.1314 192.261 74.863C192.126 74.2004 191.762 73.5801 191.243 73.1758C190.799 72.8302 190.239 72.6471 189.618 72.7504C188.948 72.8618 188.309 73.2896 187.869 73.794C187.722 73.9628 187.607 74.1545 187.491 74.3449C187.275 74.701 187.064 75.0319 186.765 75.2934C186.652 75.3929 186.481 75.4618 186.316 75.4618C186.249 75.4618 186.18 75.4509 186.115 75.4308C185.448 74.7644 185.32 74.2588 185.341 73.7574C185.364 73.2316 185.572 72.6992 185.909 72.2024C186.699 71.0372 188.198 70.0818 189.209 69.8654C190.595 69.5691 191.971 69.9248 193.074 70.6949C194.209 71.4874 195.05 72.7177 195.313 74.1042C195.376 74.4382 195.349 74.7986 195.221 75.1111C195.096 75.4165 194.879 75.678 194.559 75.8437ZM166.79 61.269C165.958 62.0752 164.974 62.2001 163.979 62.3112C163.426 62.3735 162.984 62.4237 162.549 62.5213C161.355 62.7896 160.174 63.1938 159.097 63.7758C157.971 64.3842 156.744 65.118 155.862 66.0581C155.652 66.2818 155.454 66.5165 155.256 66.7517C155.075 66.9662 154.901 67.1727 154.717 67.3718C154.507 67.6005 154.307 67.8402 154.108 68.0793C153.985 68.2811 153.96 68.3307 153.936 68.3823C153.898 68.4599 153.855 68.5468 153.805 68.64C153.738 68.7676 153.658 68.9073 153.575 69.0339C153.436 69.2654 153.362 69.3292 153.298 69.3577C153.191 69.4049 153.09 69.4282 152.992 69.4156C152.9 69.4038 152.814 69.3598 152.728 69.2879C152.301 68.929 152.175 68.3399 152.188 67.7146C152.208 66.7657 152.56 65.715 152.884 65.0692C153.638 63.5686 154.683 62.0085 155.94 60.8885C157.374 59.61 158.944 58.6422 160.746 57.9752C161.866 57.5606 163.163 57.1801 164.384 57.2281C165.262 57.2627 166.101 57.5226 166.793 58.1716C167.218 58.5699 167.422 59.1366 167.422 59.7029C167.422 60.2804 167.21 60.8613 166.79 61.269ZM196.25 68.6519C196.197 68.7382 196.124 68.7976 196.042 68.8333C195.957 68.8707 195.862 68.8815 195.77 68.8662C195.679 68.8509 195.593 68.8098 195.524 68.7471C195.458 68.6869 195.408 68.6071 195.386 68.5093C194.834 66.0963 193.762 64.301 191.474 63.1433C190.349 62.5738 189.055 62.2119 187.829 61.9234C187.473 61.8396 187.097 61.7852 186.718 61.7302C185.531 61.5577 184.335 61.3601 183.561 60.4049C183.095 59.8296 182.899 59.0938 183.01 58.4209C183.114 57.7873 183.486 57.2063 184.162 56.8582C185.846 55.9919 187.938 56.842 189.638 57.5661C189.764 57.6198 189.888 57.6726 190.009 57.7235C191.672 58.4219 193.188 59.3439 194.435 60.6624C195.424 61.7084 196.34 63.2547 196.709 64.8454C197.016 66.1689 196.944 67.5199 196.25 68.6519Z" fill="black"></path><path fill-rule="evenodd" clip-rule="evenodd" d="M159.119 104.309C161.143 99.5881 165.562 96.1187 170.65 94.8504C174.386 93.9213 178.307 93.9509 182.115 94.3197C184.11 94.5115 186.251 94.6687 188.131 95.4062C189.737 96.0363 191.046 97.2272 192.03 98.6251C193.201 100.282 193.997 102.178 194.557 104.121C194.636 104.397 194.711 104.676 194.781 104.955C194.537 106.422 194.021 107.67 192.656 108.591C191.325 109.492 189.736 109.86 188.152 109.991C187.997 109.916 187.847 109.84 187.709 109.762C185.241 108.356 183.504 105.033 180.389 105.482C177.609 105.884 175.779 109.365 174.125 111.407C168.818 112.022 163.516 110.435 159.198 107.415C158.978 106.381 158.966 105.339 159.119 104.309ZM198.388 100.728C197.963 99.542 197.428 98.3937 196.794 97.3119C194.699 93.7344 191.483 90.884 187.664 89.2546C178.631 85.4053 166.944 88.1187 159.649 94.4318C157.157 96.5899 154.637 99.7612 153.876 103.173C153.648 103.217 153.433 103.335 153.256 103.501C147.986 100.199 142.559 97.0214 138.312 92.4436C135.227 89.1176 133.082 85.1813 131.769 80.856C131.661 80.4999 131.084 80.552 131.102 80.9459C131.107 81.0381 131.112 81.13 131.117 81.2222C131.062 81.0528 130.802 81.14 130.782 81.3044C130.075 86.5589 129.191 92.1297 130.005 97.4116C130.492 100.563 131.931 102.871 133.854 105.362C135.914 108.033 138.247 110.517 140.632 112.899C142.145 114.411 143.726 116.155 145.579 117.263C147.734 118.551 150.179 119.531 152.479 120.525C154.819 121.539 157.194 122.475 159.614 123.288C164.451 124.917 169.451 126.043 174.538 126.536C178.611 126.93 183.266 127.359 187.17 125.834C190.162 124.665 192.576 122.553 194.492 120.011C196.577 117.243 198.226 114.09 199.137 110.766C200.084 107.312 198.587 101.284 198.388 100.728Z" fill="black"></path></svg>