<?xml version="1.0" encoding="UTF-8"?> <svg xmlns="http://www.w3.org/2000/svg" width="339" height="9" viewBox="0 0 339 9" fill="none"><path d="M449.777 -39.6149L448.46 -39.7467L451.022 -39.9357L449.794 -40.0741C448.563 -40.0728 446.967 -39.8655 446.099 -39.9756C445.993 -40.0823 447.334 -40.1165 447.676 -40.2015C447.979 -40.2885 448.226 -40.3751 448.414 -40.46C447.744 -40.4591 447.006 -40.4385 446.246 -40.3996C445.224 -40.3359 444.221 -40.305 443.348 -40.3102C441.563 -40.293 439.839 -40.3102 437.899 -40.3064L438.544 -40.563L436.044 -40.503C435.779 -40.4834 435.463 -40.5149 435.202 -40.4907C433.035 -40.286 432.118 -40.3976 431.078 -40.49C430.865 -40.5139 430.608 -40.5318 430.314 -40.5431C427.423 -40.4941 424.816 -40.2073 422.213 -40.06C421.723 -40.0224 421.253 -39.9742 420.836 -39.9187C419.93 -39.8108 418.923 -39.7227 417.906 -39.6624C416.889 -39.6022 415.895 -39.5718 415.015 -39.5739C413.069 -39.5763 410.87 -39.5049 408.631 -39.3667C407.965 -39.3212 407.298 -39.2911 406.674 -39.2785C406.05 -39.2659 405.481 -39.2709 405.005 -39.2934L403.491 -39.1469C402.835 -39.2063 402.003 -39.2389 401.046 -39.2427C400.088 -39.2465 399.026 -39.2214 397.922 -39.169C396.746 -39.1121 395.551 -39.0737 394.331 -39.0136C391.81 -38.8986 389.357 -38.8282 387.047 -38.8047C383.607 -38.7352 380.247 -38.6814 376.777 -38.5946C374.606 -38.5528 372.491 -38.5297 370.445 -38.5257C367.993 -38.5093 365.341 -38.43 362.617 -38.2916V-38.2916C362.746 -38.1618 363.941 -38.2002 364.743 -38.2046C367.329 -38.2261 369.976 -38.2821 372.637 -38.3241C373.836 -38.3405 375.001 -38.3467 376.127 -38.3426C378.009 -38.348 379.994 -38.3826 382.046 -38.4458C385.288 -38.5154 388.427 -38.5488 391.43 -38.5458C391.665 -38.5406 391.881 -38.5315 392.073 -38.5186C392.113 -38.5074 392.121 -38.4933 392.096 -38.4776C392.071 -38.4619 392.014 -38.4452 391.93 -38.429C391.846 -38.4128 391.739 -38.3977 391.617 -38.3852C391.496 -38.3727 391.365 -38.3631 391.238 -38.3574C390.045 -38.2695 388.764 -38.175 387.639 -38.1617C387.596 -38.1607 387.55 -38.1584 387.504 -38.155C387.458 -38.1517 387.414 -38.1472 387.374 -38.1421C384.857 -37.9564 382.786 -37.9878 380.825 -37.9576C377.569 -37.8759 374.43 -37.8378 371.455 -37.8437C371.006 -37.8433 370.52 -37.8327 370.017 -37.8123C366.902 -37.7294 363.989 -37.7201 361.415 -37.7849C360.355 -37.8013 359.37 -37.8381 358.232 -37.8387C357.53 -37.8413 356.92 -37.8648 356.437 -37.9078C355.954 -37.9509 355.609 -38.0126 355.422 -38.0893C354.941 -38.049 354.454 -38.013 353.964 -37.9818C353.672 -37.964 353.391 -37.9593 353.18 -37.9686C352.968 -37.9779 352.841 -38.0006 352.823 -38.032C352.736 -38.1201 353.403 -38.1644 353.982 -38.2021C353.633 -38.221 353.239 -38.2321 352.811 -38.2352C350.399 -38.2553 347.812 -38.2315 345.105 -38.1644C343.004 -38.0841 341.327 -38.1495 339.116 -38.0362C338.851 -38.0166 338.633 -38.0453 338.389 -38.0522C337.753 -38.0885 336.961 -38.0966 336.081 -38.076C335.201 -38.0553 334.26 -38.0064 333.339 -37.9335C332.193 -38.1326 329.716 -37.9051 327.887 -37.8847C327.324 -37.7834 327.971 -37.8012 327.998 -37.7734C328.026 -37.7456 327.998 -37.7734 328.219 -37.7897C330.045 -37.6463 332.547 -37.6151 335.373 -37.7003C335.896 -37.7 336.394 -37.6934 336.862 -37.6808C337.572 -37.6629 338.372 -37.6647 339.228 -37.6861C340.163 -37.7018 341.021 -37.6943 341.763 -37.664C342.189 -37.6645 342.55 -37.6494 342.811 -37.6199C343.073 -37.5905 343.226 -37.5477 343.258 -37.4956C342.973 -37.4555 342.657 -37.4187 342.323 -37.3869C340.577 -37.261 338.836 -37.2089 337.442 -37.2408C335.017 -37.2958 332.13 -37.2422 329.551 -37.2609C327.808 -37.2685 325.953 -37.2469 324.021 -37.1964C324.021 -37.1964 324.071 -37.1454 324.076 -37.1407C323.848 -37.1186 323.607 -37.1009 323.369 -37.0886C323.369 -37.0886 323.369 -37.0886 323.346 -37.1118C323.452 -37.134 323.596 -37.155 323.76 -37.1722L324.334 -37.2145C323.944 -37.2256 323.58 -37.2584 323.173 -37.2383C322.316 -37.2011 321.497 -37.1853 320.765 -37.1921C320.033 -37.1988 319.403 -37.2279 318.914 -37.2775C318.047 -37.3411 316.968 -37.3701 315.747 -37.3624C314.812 -37.3694 313.911 -37.3843 313.048 -37.4072C313.048 -37.4072 312.992 -37.4628 312.584 -37.4923C312.971 -37.5288 313.374 -37.5586 313.776 -37.5803C315.524 -37.6346 317.276 -37.6842 318.994 -37.7213C319.626 -37.7253 320.221 -37.7191 320.766 -37.7028C322.278 -37.6837 323.975 -37.7108 325.761 -37.7826C325.761 -37.7826 326.114 -37.8086 326.291 -37.8217C325.79 -37.9439 324.062 -37.8215 323.364 -37.9043C322.938 -37.9028 322.19 -37.8924 322.216 -37.9142C322.274 -37.9433 322.281 -37.9703 322.236 -37.9934C322.191 -38.0164 322.096 -38.0348 321.956 -38.0474C321.817 -38.0599 321.637 -38.0663 321.43 -38.066C321.223 -38.0656 320.993 -38.0587 320.757 -38.0455C318.791 -37.9745 316.939 -37.9547 315.315 -37.9875C314.699 -37.9868 314.009 -37.9658 313.398 -37.9605C313.024 -37.9542 312.682 -37.9577 312.392 -37.9709C310.915 -38.0682 308.928 -38.0753 306.729 -37.9911C305.667 -37.9609 304.673 -37.9568 303.801 -37.9792C303.181 -37.9832 302.918 -37.914 302.476 -37.8815L300.601 -37.8128L303.01 -37.7267C302.495 -37.5295 302.085 -37.4644 301.244 -37.4521C300.017 -37.4336 298.822 -37.4252 297.665 -37.4271C296.81 -37.4287 296.104 -37.4711 294.946 -37.3957C294.742 -37.3834 294.545 -37.3794 294.389 -37.3844C293.033 -37.4514 291.4 -37.4668 289.602 -37.4295C288.672 -37.5549 287.086 -37.433 285.619 -37.3347C285.146 -37.4292 286.003 -37.4726 286.515 -37.5302C285.288 -37.5243 284.052 -37.5277 282.785 -37.5139C282.404 -37.5189 281.969 -37.5103 281.513 -37.4888C281.058 -37.4673 280.594 -37.4334 280.159 -37.3898C279.947 -37.3616 279.691 -37.3405 279.445 -37.3306C279.198 -37.3208 278.981 -37.3231 278.836 -37.337C278.179 -37.3781 277.126 -37.3403 276.583 -37.4097C276.39 -37.4257 276.114 -37.4279 275.804 -37.416C275.494 -37.4041 275.171 -37.3788 274.893 -37.3448V-37.3448C275.198 -37.3341 275.469 -37.3174 275.701 -37.2949C276.533 -37.2219 276.227 -37.0998 275.171 -36.9224C273.549 -36.9321 271.893 -36.9293 270.389 -36.9628C269.552 -36.9928 268.525 -36.9834 267.425 -36.9357C266.325 -36.888 265.195 -36.8038 264.162 -36.6926C263.789 -36.6498 263.363 -36.6202 262.969 -36.6096C262.576 -36.599 262.243 -36.6082 262.038 -36.6354C261.911 -36.6669 261.871 -36.7066 261.923 -36.7513L262.983 -36.8295C262.983 -36.8295 262.942 -36.8712 262.932 -36.8805L261.408 -36.8875C260.602 -36.8878 259.761 -36.8755 258.998 -36.879C257.879 -36.9023 256.601 -36.8893 255.243 -36.8408C253.991 -36.7912 252.76 -36.7536 251.562 -36.7285C250.402 -36.7027 249.562 -36.785 248.458 -36.7982C247.623 -36.8081 246.705 -36.7975 245.739 -36.7668C244.07 -36.7124 242.537 -36.7123 241.282 -36.7665C239.818 -36.4744 239.107 -36.4269 237.748 -36.5059L237.11 -36.5284L236.935 -36.4658L236.447 -36.4795C235.534 -36.4918 234.621 -36.5041 233.668 -36.5085C232.343 -36.4814 230.913 -36.4084 229.517 -36.2968C229.252 -36.2772 228.891 -36.2108 228.658 -36.1588C228.425 -36.1068 227.918 -35.9499 227.545 -35.8478C227.951 -35.7732 228.402 -35.7019 228.724 -35.6162C228.756 -35.6016 228.753 -35.5841 228.715 -35.5653C228.676 -35.5464 228.604 -35.5266 228.503 -35.5076C228.402 -35.4885 228.275 -35.4707 228.133 -35.4555C227.992 -35.4403 227.838 -35.4283 227.686 -35.4203C227.389 -35.403 227.096 -35.3914 226.819 -35.3862C225.454 -35.377 224.147 -35.3838 222.911 -35.4064C222.459 -35.4383 221.841 -35.4413 221.155 -35.415C220.468 -35.3887 219.752 -35.3346 219.12 -35.2612C217.502 -35.3052 215.623 -35.2922 213.61 -35.223C211.482 -35.2651 208.912 -35.18 206.923 -35.2722C206.97 -35.2258 206.764 -35.146 206.478 -35.1C206.026 -35.0302 205.513 -34.9654 204.962 -34.9085L200.758 -34.7975C200.6 -34.7404 200.404 -34.6826 200.171 -34.6248C200.011 -34.5792 199.733 -34.5345 199.395 -34.5003C199.057 -34.4661 198.687 -34.4451 198.362 -34.4416C197.525 -34.4247 196.824 -34.4625 195.826 -34.369C197.362 -34.2806 199.434 -34.2924 201.673 -34.4021C203.776 -34.4856 205.798 -34.5273 207.666 -34.5258C208.282 -34.5264 209.093 -34.5215 209.285 -34.471C209.712 -34.3283 210.827 -34.3509 212.129 -34.3772C213.151 -34.406 214.085 -34.4028 214.853 -34.3677C215.622 -34.3327 216.203 -34.2669 216.549 -34.1757C216.637 -34.0876 216.427 -34.0125 215.53 -33.9612L211.799 -33.7557C211.249 -33.7821 210.727 -33.8134 210.236 -33.8494C209.408 -33.8972 208.386 -33.9103 207.248 -33.8877C206.111 -33.8651 204.89 -33.8074 203.68 -33.7191C203.061 -33.6735 202.443 -33.6279 201.995 -33.6496C201.601 -33.6745 201.239 -33.7043 200.91 -33.7388C200.844 -33.7619 200.817 -33.7885 200.832 -33.8176C200.594 -33.8041 200.356 -33.7865 200.125 -33.7654C198.283 -33.5201 196.856 -33.5243 195.56 -33.588C195.209 -33.6069 194.942 -33.637 194.587 -33.6605C194.232 -33.6841 194.106 -33.7146 193.783 -33.7057C191.208 -33.6253 190.467 -33.894 188.296 -33.8833C188.19 -33.8938 188.125 -33.9095 188.105 -33.9289C188.086 -33.9483 188.114 -33.9709 188.186 -33.9945C188.339 -34.0158 188.516 -34.0342 188.701 -34.0478C188.887 -34.0615 189.074 -34.0701 189.246 -34.0727C190.245 -34.1072 191.127 -34.0966 191.741 -34.0428C192.176 -34.0208 192.637 -34.0033 193.121 -33.9903L195.294 -34.3795C193.189 -34.3439 191.198 -34.3441 189.367 -34.3802C188.967 -34.4005 188.291 -34.3656 187.728 -34.3589L183.592 -34.3225C182.741 -34.3195 182.017 -34.3805 180.831 -34.2383C180.831 -34.2383 180.048 -34.2154 179.839 -34.2348C179.63 -34.2542 178.703 -34.375 178.151 -34.4537C177.509 -34.4312 176.621 -34.3707 176.222 -34.391C175.524 -34.4409 174.92 -34.5048 174.42 -34.5816L171.921 -34.4719C171.924 -34.3745 172.015 -34.2829 172.194 -34.1984C172.388 -34.1169 172.382 -34.0191 172.174 -33.913C171.967 -33.8068 171.564 -33.6954 170.999 -33.5877L168.532 -33.0176C168.13 -32.9794 167.7 -32.9537 167.303 -32.944C166.905 -32.9342 166.559 -32.9409 166.31 -32.9632C165.249 -33.0292 164.06 -33.0808 162.998 -33.1468C161.629 -33.0458 161.981 -32.8827 160.985 -32.7396L157.761 -32.5017C157.269 -32.2813 156.768 -32.0702 158.264 -31.9964C158.561 -31.9835 158.36 -31.899 158.632 -31.8643C157.469 -31.6989 156.191 -31.6494 155.012 -31.5475C154.547 -31.4742 154.158 -31.3966 153.865 -31.3185C153.542 -31.2009 152.888 -31.0808 152.044 -30.9841C151.2 -30.8874 150.233 -30.8218 149.353 -30.8016C147.876 -30.7397 146.365 -30.6467 144.885 -30.5268C144.38 -30.4851 143.86 -30.4547 143.362 -30.4377C142.864 -30.4207 142.398 -30.4174 141.996 -30.4281C140.565 -30.447 139.353 -30.5119 138.44 -30.6187C137.537 -30.7093 136.32 -30.7529 134.9 -30.7457C132.47 -30.5665 131.98 -30.2965 130.51 -30.0586L133.05 -30.032C133.142 -29.9392 132.974 -29.8223 134.015 -29.8245C135.056 -29.8266 134.528 -29.7379 134.19 -29.6483C134.071 -29.6032 133.839 -29.5568 133.533 -29.517C133.227 -29.4772 132.866 -29.4464 132.511 -29.4299L130.349 -29.3152C129.582 -29.2715 128.84 -29.2529 128.205 -29.2613C127.569 -29.2697 127.064 -29.3049 126.745 -29.3629C126.379 -29.418 125.874 -29.4552 125.261 -29.4724C124.48 -29.5173 123.837 -29.5842 123.357 -29.6704L120.305 -29.5448C120.176 -29.6314 119.756 -29.6921 119.118 -29.7167C118.48 -29.7413 117.663 -29.7282 116.805 -29.6797L114.748 -29.6026C112.461 -29.5185 111.959 -29.5462 111.289 -29.7904L114.032 -30.2266C113.633 -30.3415 113.248 -30.4425 112.863 -30.5435C113.547 -30.6872 114.458 -30.8232 115.506 -30.9375C116.483 -31.0604 117.488 -31.1794 118.517 -31.294C119.634 -31.4112 120.812 -31.5131 122.198 -31.6452C122.44 -31.6879 122.792 -31.7636 123.241 -31.8365C123.69 -31.9074 124.159 -31.9769 124.646 -32.0447C124.553 -32.1374 124.47 -32.2208 124.648 -32.3285C123.794 -32.2941 122.912 -32.2341 122.082 -32.1537C121.251 -32.0733 120.498 -31.9752 119.89 -31.8681C119.788 -31.8491 119.663 -31.8312 119.523 -31.8158C119.383 -31.8003 119.231 -31.7875 119.079 -31.7783C117.579 -31.7125 116.863 -31.5751 116.13 -31.4065C115.636 -31.3204 114.999 -31.2439 114.309 -31.1876C112.983 -31.0899 111.686 -30.9643 110.419 -30.8559C110.031 -30.8198 109.628 -30.79 109.226 -30.7679C107.901 -30.6976 106.568 -30.5993 105.295 -30.4779C104.879 -30.4471 104.48 -30.4063 104.131 -30.3589C103.782 -30.3115 103.494 -30.259 103.29 -30.2056C103.605 -30.1472 103.775 -30.0734 103.79 -29.9887C103.845 -29.9331 102.915 -29.8197 102.475 -29.7374C102.036 -29.6552 102.898 -29.694 103.191 -29.6857C104.392 -29.6698 104.615 -29.6365 103.895 -29.454C103.655 -29.3967 103.496 -29.3392 103.427 -29.2854C103.358 -29.2315 103.381 -29.1823 103.496 -29.1409C103.666 -28.9693 104.186 -28.8285 104.542 -28.6607C103.989 -28.5502 103.063 -28.4321 102.962 -28.2953C102.914 -28.265 102.811 -28.2328 102.662 -28.2011C102.513 -28.1695 102.322 -28.1392 102.101 -28.1124C101.52 -28.0544 100.991 -27.9852 100.556 -27.91C100.121 -27.8347 99.7915 -27.7555 99.5929 -27.6785C99.528 -27.6467 99.3711 -27.6129 99.1537 -27.5839C98.9362 -27.5549 98.6743 -27.533 98.4207 -27.5224C98.1175 -27.5094 97.846 -27.5111 97.6623 -27.5272C97.4786 -27.5433 97.3969 -27.5725 97.4339 -27.6088C97.4264 -27.6771 97.4665 -27.7483 97.5538 -27.8217C97.5031 -27.8727 97.4523 -27.9237 97.6528 -28.0082C96.7474 -27.9774 95.7968 -27.9156 94.9044 -27.8296C94.0119 -27.7436 93.2117 -27.6366 92.5907 -27.5203C91.9044 -27.4 91.2714 -27.2737 90.5105 -27.133C90.6674 -26.9753 90.6674 -26.9753 89.0481 -26.6966L80.459 -26.5607L78.6986 -26.3761C77.057 -26.2152 76.6667 -26.2262 75.6356 -26.3094L74.9415 -26.3876C73.4838 -26.2801 71.8052 -26.1563 70.8934 -26.3578C70.5974 -26.2264 70.4042 -26.1823 70.4714 -26.1624C70.9066 -25.9686 71.6628 -25.8042 72.7102 -25.6756C72.9772 -25.6455 73.1651 -25.5997 73.4763 -25.5729C74.4795 -25.4215 74.7123 -25.1877 74.1268 -24.9192C73.8362 -24.8003 73.4141 -24.6786 72.8741 -24.558C73.6645 -24.3906 74.7115 -24.2519 75.9871 -24.1457C77.0696 -24.0634 77.961 -23.9533 78.6359 -23.8185C79.2418 -23.6826 80.1492 -23.5804 81.3059 -23.5178C81.8927 -23.4912 82.3209 -23.4387 82.5479 -23.3656C82.6154 -23.1675 82.4602 -22.9555 82.0856 -22.7343C82.0151 -22.6669 81.8146 -22.5942 81.5 -22.5218C81.1855 -22.4494 80.7653 -22.3792 80.2724 -22.3168C80.2724 -22.3168 80.0351 -22.2695 79.921 -22.2412C79.826 -22.0014 80.1818 -21.79 80.9645 -21.6214C81.0927 -21.5735 81.3551 -21.539 81.7235 -21.5214C82.0919 -21.5039 82.5522 -21.504 83.0549 -21.5218C84.1171 -21.5504 85.1093 -21.5539 86.1364 -21.5699C87.2433 -21.5926 88.2183 -21.5748 88.9588 -21.5182C89.6994 -21.4616 90.1781 -21.3683 90.3446 -21.2483C90.3554 -21.2143 90.3878 -21.1818 90.4414 -21.151C90.4727 -21.1351 90.4897 -21.118 90.4922 -21.1L88.1332 -20.707L90.8019 -20.5505C90.9588 -20.3929 89.6777 -20.2984 89.0356 -20.1813L89.4325 -20.1161C89.9434 -20.0791 90.6317 -20.1498 91.2547 -20.1907L91.8732 -20.2364L91.947 -20.1622C92.332 -20.0612 93.7362 -20.1747 94.284 -20.1007C94.8319 -20.0266 94.4409 -19.943 93.6201 -19.8626C93.0494 -19.8028 92.4367 -19.7551 91.828 -19.7231C91.2192 -19.6912 90.6302 -19.6757 90.1054 -19.678C89.792 -19.6859 89.5321 -19.704 89.3413 -19.7311C88.2336 -19.8466 87.0098 -19.9459 85.6792 -20.0283C84.659 -20.1023 83.3815 -20.1337 81.9364 -20.1205C81.5124 -20.1261 81.001 -20.1086 80.492 -20.071C79.9831 -20.0335 79.5093 -19.9783 79.1536 -19.9152V-19.9152L78.4053 -19.9048C78.4053 -19.9048 77.9959 -19.8398 78.0539 -19.8291C78.3387 -19.6364 78.0077 -19.4009 77.1101 -19.1573V-19.1573L77.8907 -19.1353C79.0062 -19.1579 78.2989 -19.0111 78.4656 -18.9388C79.2581 -18.9525 80.2879 -19.0135 80.6636 -18.9218L81.226 -18.9284L81.0052 -18.9122L80.7381 -18.9422L79.6891 -18.8051C80.1862 -18.7821 80.5462 -18.7539 80.9853 -18.7415C81.2278 -18.7307 81.4209 -18.7116 81.5529 -18.6855C81.6849 -18.6593 81.7531 -18.6265 81.7533 -18.5891C81.7521 -18.5316 81.8829 -18.4832 82.1332 -18.4485C82.3835 -18.4138 82.745 -18.3941 83.1833 -18.391C83.7061 -18.3898 84.0054 -18.3273 84.312 -18.3051L82.98 -17.9281C82.98 -17.9281 83.6426 -17.977 83.282 -17.9106L83.2358 -17.957L82.4288 -17.8626C81.8473 -17.7799 81.4406 -17.7598 81.0972 -17.8191C80.7537 -17.8784 80.832 -17.7996 80.6672 -17.8222C80.7272 -17.762 81.101 -17.7199 81.4214 -17.6838C81.7919 -17.6554 82.21 -17.6346 82.6687 -17.6215C81.8419 -17.3565 81.8024 -17.3486 83.0101 -17.2784C84.2179 -17.2083 83.8012 -17.1029 84.8119 -17.0878C85.8225 -17.0728 84.6734 -16.8935 83.9969 -16.8585C83.4955 -16.8355 82.9842 -16.7997 82.4981 -16.7536C82.012 -16.7074 81.5627 -16.652 81.1811 -16.5911L81.3841 -16.3871C81.6815 -16.404 81.9795 -16.426 82.2676 -16.4523C83.2467 -16.5643 84.1373 -16.6698 85.0082 -16.6047L84.5935 -16.4497L87.6335 -16.5395C87.5548 -16.4234 87.0914 -16.2911 86.3411 -16.1705V-16.1705C86.4542 -16.1043 86.5235 -16.0346 86.5487 -15.9619C86.5995 -15.9109 86.8996 -15.9429 87.0947 -15.9374C87.7909 -15.9289 88.3622 -15.8943 88.7585 -15.8368C89.1547 -15.7792 89.3638 -15.7005 89.3671 -15.6074C89.4456 -15.5286 88.3754 -15.365 87.7062 -15.3704C86.0354 -15.3547 84.2288 -15.2941 82.3838 -15.1918C81.2591 -15.1785 81.1003 -15.3858 79.2496 -15.2443C79.2129 -15.1486 79.4499 -15.0711 79.9249 -15.0236C80.4 -14.976 81.0872 -14.9609 81.8827 -14.9807C81.4304 -14.7681 78.9251 -14.7127 78.8143 -14.4906C79.4381 -14.5063 80.1052 -14.5432 80.7495 -14.5977C81.3938 -14.6522 81.993 -14.7224 82.4879 -14.8014C82.5947 -14.8208 82.7288 -14.8387 82.8777 -14.8535C83.0267 -14.8683 83.1858 -14.8794 83.3402 -14.8858C83.4945 -14.8922 83.6392 -14.8938 83.7609 -14.8903C83.8825 -14.8868 83.9771 -14.8783 84.036 -14.8658C83.6892 -14.7855 83.3073 -14.6926 82.8722 -14.6058C82.437 -14.5189 82.3322 -14.4813 82.0184 -14.4632C79.6773 -14.2905 78.5642 -13.9794 76.5389 -13.7753C76.0088 -13.7362 75.9428 -13.6119 76.403 -13.6259C76.8408 -13.64 77.2371 -13.6382 77.5476 -13.6206C77.8582 -13.6031 78.0707 -13.5706 78.1613 -13.5267C78.501 -13.4755 78.9241 -13.4348 79.4198 -13.4055C77.3426 -13.0864 74.866 -12.8044 72.2223 -12.586C71.7216 -12.5428 71.1994 -12.5165 70.7322 -12.5109C69.2565 -12.5106 67.6905 -12.4853 66.0658 -12.4354C65.4896 -12.4218 64.9572 -12.4231 64.4975 -12.4392C62.9897 -12.4773 61.7924 -12.3939 60.6985 -12.1589L58.8881 -11.7865C58.9481 -11.7263 59.2519 -11.6591 59.4859 -11.5669L58.0717 -11.368L47.2795 -11.826L45.113 -11.3825L42.0064 -11.4072C41.7683 -11.3944 41.529 -11.3767 41.2997 -11.3551C40.6714 -11.2241 40.1801 -11.0983 39.4984 -10.9734C38.8166 -10.8484 37.599 -10.8332 36.7498 -10.686C35.9006 -10.5388 35.0501 -10.5357 33.9992 -10.4483C33.9004 -10.3343 34.0025 -10.2317 34.2991 -10.1469C34.396 -10.0496 34.93 -9.98941 35.0223 -9.89668C35.0121 -9.80297 35.2105 -9.7234 35.5996 -9.6652C35.9887 -9.607 36.5562 -9.57201 37.2505 -9.56339C39.1949 -9.36386 41.5396 -9.22177 44.2137 -9.14142C44.4486 -9.13559 44.6434 -9.1221 44.7859 -9.1018C44.9285 -9.0815 45.0157 -9.05481 45.0423 -9.02339C45.0387 -8.93243 45.217 -8.85383 45.5643 -8.79334C45.9116 -8.73286 46.4192 -8.69202 47.0498 -8.6738C47.2177 -8.67016 47.3444 -8.65873 47.4142 -8.64097C47.6534 -8.62951 47.8278 -8.6076 47.9202 -8.57733C48.0126 -8.54706 48.0201 -8.50946 47.942 -8.46818C47.8639 -8.4269 47.7029 -8.38332 47.4743 -8.34165C47.2458 -8.29999 46.9576 -8.26165 46.6375 -8.23033C46.1732 -8.1799 45.699 -8.13163 45.2168 -8.08572C45.2444 -8.0579 45.723 -8.05339 45.6531 -8.02833C45.4642 -7.94833 45.4205 -7.8734 45.5253 -7.80943C45.63 -7.74547 45.8806 -7.69425 46.257 -7.65982L43.6777 -7.01171C42.1121 -6.92193 40.5764 -6.76969 39.3619 -6.58387C39.3603 -6.55343 39.4302 -6.52792 39.5646 -6.50989C39.6991 -6.49186 39.8933 -6.48194 40.1279 -6.48113C40.7575 -6.46785 41.3523 -6.44204 42.0306 -6.42739C42.4453 -6.41644 42.7903 -6.39234 43.0458 -6.35651C43.3012 -6.32067 43.4619 -6.27381 43.5185 -6.21864L42.0041 -5.97754C42.4893 -5.91877 42.8493 -5.89058 43.1697 -5.8545C42.9882 -5.77873 42.6759 -5.70036 42.2571 -5.62546C41.8383 -5.55055 41.3242 -5.48113 40.7546 -5.42254C40.6019 -5.41047 40.4461 -5.40164 40.2964 -5.39658C40.1467 -5.39152 40.0061 -5.39033 39.883 -5.39309C38.7102 -5.47578 37.3382 -5.32979 36.0058 -5.19169C34.6733 -5.05359 33.95 -4.97037 32.9663 -4.86297L31.0841 -4.84855C30.6077 -4.79771 30.1826 -4.73792 29.8428 -4.67396C29.503 -4.61001 29.258 -4.54367 29.1273 -4.48026C29.2288 -4.37826 30.1214 -4.43415 30.6535 -4.42363C31.9157 -4.36015 33.5752 -4.37369 35.3568 -4.46202C35.7985 -4.4946 36.2514 -4.46829 36.6813 -4.46516C37.6085 -4.45248 38.4997 -4.43182 39.3506 -4.40328C39.911 -4.37673 40.4347 -4.34388 40.9183 -4.30493C41.0475 -4.17512 39.0136 -4.07485 40.168 -4.01071C39.7704 -3.98138 39.6215 -3.94053 39.4171 -3.95532C38.1076 -3.87101 36.8174 -3.82933 35.6961 -3.83512C33.5443 -3.85302 31.1008 -3.79387 28.5659 -3.6625C25.8297 -3.52641 23.205 -3.46926 20.9084 -3.49577C20.0336 -3.49732 19.0559 -3.46946 18.0497 -3.4143C16.8614 -3.33788 15.6815 -3.28984 14.5864 -3.2733C14.2239 -3.27271 13.8199 -3.2597 13.4074 -3.23533C12.995 -3.21096 12.5858 -3.17592 12.213 -3.13306V-3.13306C12.2453 -3.1006 12.6006 -3.07704 12.5215 -3.06125C11.3881 -2.8184 10.9286 -2.56553 9.18403 -2.31741C7.99136 -2.22943 6.622 -2.12842 5.84211 -2.24508C5.06222 -2.36173 5.34173 -2.46197 6.89376 -2.76059C6.55692 -2.7649 6.15127 -2.75094 5.74761 -2.72117C5.34395 -2.69139 4.96792 -2.64768 4.68512 -2.59767L3.34282 -2.37424L2.13303 -2.16059C2.23914 -2.05395 2.32218 -1.9705 2.40984 -1.88241C2.54828 -1.78884 2.39631 -1.67496 1.97526 -1.55673C1.72119 -1.49218 1.50004 -1.42763 1.31384 -1.36362C0.557545 -1.10769 0.33854 -0.865783 0.681378 -0.665035C1.33833 -0.376397 2.25311 -0.110827 3.41518 0.128629C4.64269 0.361563 5.31446 0.655396 6.32571 0.909258C6.84156 1.02485 7.46802 1.12847 8.19857 1.219C9.58431 1.42036 11.1026 1.61194 12.4929 1.81793C13.8833 2.02392 15.4531 2.17188 16.9971 2.34166C19.2961 2.54315 21.781 2.71717 24.4382 2.86274C26.0824 2.99029 27.7708 3.11458 29.2917 3.26117C31.088 3.42642 33.1983 3.54509 35.5699 3.61423C37.6646 3.69699 39.5361 3.81938 41.1486 3.97907C41.3178 3.99634 41.4512 4.01832 41.5454 4.04436C41.8357 4.2072 42.6494 4.32196 43.862 4.37113C43.7884 4.4188 43.6942 4.46728 43.5798 4.51636C43.4116 4.57484 43.3765 4.62957 43.4793 4.67345C43.5822 4.71733 43.8181 4.74834 44.1565 4.76246C45.1266 4.8028 45.9328 4.8713 46.5392 4.96493C46.762 4.98842 46.9001 5.02263 46.9418 5.06462C46.9836 5.10661 46.9279 5.15513 46.7791 5.20602C46.6474 5.2584 46.6377 5.30658 46.7514 5.34434C46.865 5.38209 47.0968 5.40767 47.4166 5.41778C48.2376 5.46735 49.1168 5.50724 50.0484 5.53717C52.0307 5.6032 54.3364 5.60241 56.8264 5.53486C57.0914 5.51531 57.3584 5.54538 57.6676 5.52257C59.4284 5.44688 61.0637 5.43516 62.3755 5.48882C63.9136 5.50973 65.5216 5.50559 67.1434 5.51534C69.4865 5.50879 71.648 5.5486 73.5675 5.63369C75.7616 5.55147 76.9944 5.69443 78.8463 5.69717C80.5561 5.71186 82.1767 5.74709 83.6927 5.80251C86.1366 5.87604 88.5712 5.94031 90.9802 6.02637C93.2401 6.06741 95.3209 6.14581 97.1873 6.26026C97.9026 6.312 99.1974 6.23142 99.6845 6.33981C100.172 6.44819 101.155 6.4354 101.949 6.47135L104.456 6.56017C104.887 6.5813 105.361 6.5947 105.87 6.60014C108.201 6.60739 109.815 6.7521 111.978 6.78165L112.199 6.76535C116.04 6.98049 120.435 7.09856 125.255 7.11609C128.071 7.1821 131.15 7.17894 134.138 7.22728C134.85 7.32401 136.533 7.20483 137.427 7.29317C138.321 7.3815 139.781 7.32359 140.933 7.33812C142.086 7.35264 143.213 7.38897 144.444 7.38771C145.514 7.38813 146.417 7.42757 147.071 7.50247C148.565 7.62627 150.387 7.69906 152.454 7.71757C155.188 7.74975 157.774 7.82278 160.555 7.80671C160.516 7.89695 160.686 7.9737 161.05 8.02911C161.413 8.08451 161.956 8.11656 162.624 8.12196C165.598 8.15639 168.295 8.24609 171.308 8.27262L172.114 8.27287L181.127 8.32466C183.556 8.33466 185.895 8.35118 188.372 8.36256C189.3 8.29414 189.322 8.41192 189.964 8.38949C190.143 8.33147 190.355 8.3059 190.671 8.33735L190.74 8.4069L201.026 8.49915C205.053 8.56661 209.289 8.58685 213.698 8.55968C214.744 8.5665 215.721 8.58955 216.612 8.62845C217.438 8.64265 218.299 8.64892 219.191 8.64723C220.397 8.62971 221.575 8.62087 222.721 8.62075C225.734 8.64729 228.897 8.63298 232.196 8.61352C235.496 8.59407 237.996 8.62863 240.933 8.62597C242.922 8.62358 244.902 8.61191 246.961 8.58445C247.944 8.57166 249.155 8.50222 250.173 8.4769C251.191 8.45158 251.523 8.45195 251.658 8.4918C252.101 8.60344 253.214 8.53125 254.104 8.52034C255.84 8.50178 256.087 8.46369 256.558 8.1751L254.428 8.08339C253.906 8.0538 253.25 8.04859 252.522 8.06829C251.794 8.08798 251.019 8.13192 250.273 8.19584C249.979 8.22324 249.672 8.24488 249.369 8.25953C249.066 8.27418 248.774 8.28154 248.508 8.28118C246.359 8.26554 244.24 8.23273 242.175 8.20594L241.873 8.18839L241.854 7.93101C242.127 7.90575 242.41 7.88485 242.693 7.86911L253.053 7.70211C255.43 7.66111 257.899 7.5686 260.232 7.53086C262.565 7.49313 263.822 7.47006 265.633 7.43107C266.397 7.40886 267.176 7.37967 267.964 7.34372C267.918 7.31892 267.892 7.29257 267.886 7.2649C267.844 7.22317 267.789 7.16753 268.124 7.12292C268.489 7.05993 268.977 7.00614 269.491 6.97229C269.974 6.94992 270.442 6.93726 270.876 6.93481C272.977 6.91325 275.377 6.77729 277.564 6.55595L278.327 6.70368C281.611 6.62069 284.944 6.53908 288.374 6.46023C289.061 6.43874 289.782 6.39747 290.483 6.33954C291.234 6.28415 291.925 6.16849 292.715 6.1052C293.496 6.05966 294.272 6.02414 295.028 5.9993C294.823 5.96128 294.553 5.9309 294.227 5.90909C293.906 5.90145 293.672 5.8777 293.559 5.84129C293.446 5.80488 293.46 5.75771 293.599 5.7066C293.843 5.61888 293.951 5.53631 293.419 5.52579C292.927 5.50578 292.575 5.46248 292.405 5.40098C292.235 5.33949 292.253 5.26236 292.457 5.17869C292.547 5.12978 292.61 5.0819 292.646 5.03534V5.03534L292.867 5.01905C293.596 4.84587 295.051 4.78333 296.095 4.6416C296.588 4.6005 297.098 4.57687 297.545 4.57442C298.701 4.54396 299.825 4.53067 301.02 4.49231C301.59 4.47467 302.187 4.44249 302.775 4.39769C303.614 4.33578 303.703 4.32926 304.19 4.10421C303.433 4.10814 302.833 4.07451 302.492 4.00903C302.15 3.94354 302.087 3.85022 302.315 3.74485C302.939 3.51465 303.599 3.27193 306.423 3.10838C305.502 3.10031 304.616 3.0843 303.768 3.06041C303.521 3.05526 303.336 3.03835 303.238 3.01194C303.14 2.98553 303.133 2.95088 303.219 2.91262C303.305 2.87437 303.479 2.83434 303.718 2.79789C303.956 2.76144 304.249 2.73031 304.555 2.70867C306.046 2.57844 307.602 2.49129 309.047 2.45701C310.264 2.44184 311.363 2.45035 312.785 2.44996L314.464 2.32614C314.436 2.29832 314.683 2.26023 314.62 2.24494C314.194 2.10222 313.723 1.96275 313.239 1.80938C314.012 1.72657 314.683 1.62659 315.173 1.5209C315.663 1.4152 315.953 1.30807 316.01 1.21177C316.052 1.18272 316.041 1.15625 315.978 1.13423C315.915 1.1122 315.802 1.09517 315.646 1.08434C315.205 1.06571 314.863 1.03014 314.649 0.980347C314.436 0.930555 314.354 0.867879 314.412 0.797149L315.718 0.536629C319.648 0.350741 323.508 0.217934 327.225 0.140678L330.581 0.0822524C330.986 0.0125782 330.86 -0.017996 330.479 -0.0197467C330.098 -0.0214975 329.027 -0.00218847 328.279 0.00821887C327.632 0.0218874 327.058 0.0129125 326.612 -0.0178404C326.166 -0.0485934 325.864 -0.100083 325.733 -0.167314L326.86 -0.464422C326.805 -0.520057 326.726 -0.59888 326.115 -0.593612C325.697 -0.600053 325.39 -0.628059 325.242 -0.673112C325.094 -0.718166 325.114 -0.777636 325.299 -0.841955C325.327 -0.888478 325.285 -0.930841 325.174 -0.967137C324.27 -0.970136 323.371 -0.968502 322.551 -0.982654C322.169 -0.987349 321.847 -1.00458 321.605 -1.03316C321.364 -1.06175 321.21 -1.10101 321.153 -1.14829C321.124 -1.19445 321.196 -1.24702 321.364 -1.30176C321.532 -1.35651 321.791 -1.4119 322.12 -1.46345C323.405 -1.52724 324.581 -1.52806 325.389 -1.46574C325.678 -1.4169 326.14 -1.39021 326.717 -1.38921C327.294 -1.38821 327.957 -1.41294 328.619 -1.46013C329.378 -1.51453 330.135 -1.53844 330.754 -1.52756C331.373 -1.51668 331.814 -1.47171 331.997 -1.40076C332.776 -1.42833 333.466 -1.44939 334.147 -1.47972C334.95 -1.51798 335.71 -1.52926 336.343 -1.51232C337.357 -1.50036 338.448 -1.50736 339.594 -1.53315C342.897 -1.59759 346.204 -1.6574 349.401 -1.68424C350.247 -1.69189 350.979 -1.67123 351.815 -1.68815C352.652 -1.70508 353.314 -1.65934 354.36 -1.75145C354.559 -1.76576 354.76 -1.77496 354.946 -1.77831C355.132 -1.78166 355.298 -1.77908 355.432 -1.77076C357.269 -1.69792 359.423 -1.68762 361.768 -1.74049C364.979 -1.75343 368.309 -1.79005 371.525 -1.79835C372.468 -1.79121 373.36 -1.77205 374.19 -1.7411C374.822 -1.7224 375.484 -1.70973 376.172 -1.70316C376.699 -1.69727 377.204 -1.71458 377.115 -1.61345C377.026 -1.51233 377.816 -1.57561 378.272 -1.59429C379.837 -1.64332 381.436 -1.7097 383.053 -1.79269C384.645 -1.88287 386.206 -1.93535 387.641 -1.94698C388.677 -1.95376 389.746 -1.92808 391.078 -2.06618C391.027 -2.11718 390.977 -2.16818 390.687 -2.22144C391.773 -2.36796 393.013 -2.49403 394.304 -2.58922C395.594 -2.68441 396.898 -2.74598 398.108 -2.76884L399.776 -3.04616C400.186 -3.07872 400.606 -3.10244 401.008 -3.11587C401.41 -3.12929 401.787 -3.13215 402.116 -3.12425C402.37 -3.12023 402.68 -3.13054 402.988 -3.15328C403.297 -3.17603 403.583 -3.20969 403.795 -3.24807C404.112 -3.2969 404.498 -3.33902 404.907 -3.36916C405.316 -3.3993 405.728 -3.41612 406.092 -3.4175C407.238 -3.44767 408.461 -3.5173 409.637 -3.61928C409.942 -3.67907 410.133 -3.74084 410.187 -3.79697C410.24 -3.85311 410.154 -3.90114 409.939 -3.93517C409.591 -3.99527 409.397 -4.07184 409.366 -4.16023C409.335 -4.24862 409.469 -4.34701 409.759 -4.44943C409.908 -4.51232 409.957 -4.57184 409.905 -4.62443C409.853 -4.67702 409.699 -4.72158 409.454 -4.75543C408.54 -4.91193 408.785 -4.99964 410.281 -5.25929C410.524 -5.30258 410.817 -5.34304 411.141 -5.3781C411.465 -5.41316 411.814 -5.44204 412.164 -5.46293C412.987 -5.50525 413.799 -5.53673 414.584 -5.55681C415.026 -5.58939 415.479 -5.56309 415.988 -5.57575C418.532 -5.63905 418.905 -5.74118 419.729 -5.96123L420.33 -6.12C421.444 -6.2486 422.662 -6.35541 423.897 -6.43274C425.132 -6.51006 426.353 -6.55596 427.471 -6.56715C427.916 -6.56799 428.427 -6.58996 428.926 -6.62969C430.551 -6.75119 432.197 -6.83526 433.754 -6.87634C434.725 -6.89947 435.771 -6.95931 436.767 -7.04868C437.763 -7.13804 438.667 -7.25314 439.369 -7.38013C440.001 -7.49453 440.827 -7.59721 441.732 -7.67387C442.793 -7.75207 442.891 -7.84391 442.299 -7.91471C441.707 -7.9855 440.715 -8.07658 439.835 -8.15101C439.529 -8.1763 439.339 -8.21743 439.287 -8.26983C439.235 -8.32222 439.322 -8.38381 439.54 -8.44773C439.679 -8.55713 439.704 -8.66092 439.612 -8.75662C439.563 -8.79639 439.597 -8.84199 439.711 -8.89034C439.826 -8.93869 440.018 -8.98867 440.276 -9.03691C440.533 -9.08515 440.85 -9.13053 441.204 -9.16998C441.558 -9.20944 441.942 -9.24206 442.33 -9.26564C443.964 -9.3862 445.554 -9.5035 447.221 -9.59161C447.919 -9.63313 448.617 -9.6846 449.297 -9.74475C450.689 -9.89351 452.178 -10.0169 453.677 -10.1077C454.389 -10.1483 455.085 -10.2193 455.614 -10.3053C457.284 -10.537 458.822 -10.7807 460.202 -11.0319C460.534 -11.1098 460.969 -11.1858 461.48 -11.2551C461.99 -11.3244 462.565 -11.3856 463.167 -11.4348C463.653 -11.4706 464.049 -11.5495 464.423 -11.6021C464.695 -11.7237 464.725 -11.8361 464.508 -11.929C464.291 -12.0218 463.836 -12.0919 463.184 -12.1327C462.566 -12.1817 461.988 -12.2386 461.454 -12.2987C460.811 -12.3474 460.045 -12.3766 459.187 -12.3853C458.17 -12.4114 457.419 -12.486 457.03 -12.5994C459.813 -12.8047 462.459 -13.0994 464.898 -13.0305L466.752 -13.217C466.678 -13.2912 466.613 -13.3561 466.553 -13.4164C466.113 -13.5261 465.975 -13.6645 466.152 -13.8197C466.298 -13.8949 466.285 -13.9632 466.114 -14.0179C465.943 -14.0726 465.62 -14.1116 465.178 -14.1311C462.561 -14.3312 459.534 -14.4663 457.08 -14.6933C456.31 -14.7359 455.41 -14.7553 454.415 -14.7505C453.453 -14.7642 453.494 -14.8667 454.601 -14.9931C455.222 -15.0592 455.855 -15.1225 456.498 -15.1829C459.333 -15.1929 460.488 -14.8899 463.723 -14.9743L465.222 -15.3735C465.628 -15.3797 466.021 -15.3821 466.4 -15.3808L471.825 -15.2186C472.277 -15.2105 472.628 -15.1827 472.84 -15.1385C473.052 -15.0943 473.115 -15.0354 473.022 -14.9685C472.985 -14.8866 473.06 -14.8116 473.244 -14.746C473.362 -14.7 473.286 -14.639 473.033 -14.5762C472.463 -14.4346 473.195 -14.4139 473.657 -14.3783C473.775 -14.3748 473.911 -14.3752 474.057 -14.3794C474.204 -14.3836 474.358 -14.3915 474.51 -14.4027C474.662 -14.414 474.809 -14.4282 474.943 -14.4447C475.077 -14.4612 475.196 -14.4796 475.291 -14.4989C476.105 -14.6336 476.818 -14.7757 477.618 -14.9243C477.05 -15.0665 477.718 -15.3 476.832 -15.4287C476.732 -15.4544 476.693 -15.4857 476.715 -15.5207C476.737 -15.5557 476.821 -15.5937 476.961 -15.6323C477.322 -15.7319 477.494 -15.829 477.459 -15.9139C477.425 -15.9987 477.185 -16.0682 476.765 -16.1155L476.714 -16.1665C477.823 -16.3379 477.529 -16.4904 477.965 -16.6718L479.033 -16.7904C481.688 -17.0759 481.693 -17.0712 483.979 -17.0607C484.44 -17.1694 483.855 -17.1859 483.416 -17.1983L479.738 -17.3202C477.334 -17.4016 474.86 -17.458 472.174 -17.4888C469.488 -17.5196 466.493 -17.6222 463.717 -17.6961C463.577 -17.7018 463.469 -17.7131 463.404 -17.7291C463.339 -17.745 463.317 -17.7652 463.341 -17.7878C463.452 -17.8123 463.596 -17.8359 463.764 -17.8569C463.932 -17.8779 464.119 -17.8957 464.311 -17.9091C465.195 -17.9743 466.101 -18.0163 467.043 -18.0708L468.798 -18.1654L469.338 -18.2898C469.689 -18.3655 469.929 -18.4579 470.397 -18.5123C470.782 -18.5528 471.2 -18.5836 471.608 -18.6014C472.015 -18.6192 472.397 -18.6234 472.714 -18.6135C473.592 -18.5887 474.387 -18.5528 475.225 -18.5201C476.064 -18.4874 476.526 -18.4518 477.253 -18.4358C478.731 -18.4285 480.158 -18.4092 481.53 -18.378C482.686 -18.3043 483.755 -18.2169 484.73 -18.1164C485.339 -18.0767 485.908 -18.0291 486.947 -18.0809C487.44 -18.1278 487.865 -18.1895 488.147 -18.2549C488.429 -18.3203 488.55 -18.3853 488.488 -18.4384C488.432 -18.4799 488.274 -18.5128 488.029 -18.5339C487.784 -18.5551 487.46 -18.5637 487.088 -18.559C486.045 -18.5667 485.08 -18.5924 484.214 -18.6357C483.008 -18.7141 481.54 -18.7479 479.895 -18.7351C479.337 -18.7239 478.963 -18.766 478.475 -18.7797C477.988 -18.7935 477.574 -18.8277 477.03 -18.8025C475.341 -18.7376 474.53 -18.8371 473.518 -18.9017C473.175 -18.9304 472.963 -18.9767 472.904 -19.0356C472.845 -19.0945 472.943 -19.1637 473.186 -19.2356C473.653 -19.3787 474.225 -19.5226 474.892 -19.665C475.235 -19.735 475.675 -19.8015 476.177 -19.8593C476.679 -19.917 477.229 -19.9644 477.785 -19.9978C478.118 -20.0855 478.295 -20.1716 478.301 -20.2486C478.307 -20.3255 478.142 -20.3907 477.821 -20.4384C477.001 -20.5472 476.275 -20.6578 474.439 -20.597C473.575 -20.5738 472.763 -20.5694 472.034 -20.5838C470.416 -20.6037 468.55 -20.5602 466.612 -20.4576C466.11 -20.4313 465.617 -20.4134 465.147 -20.4043C461.796 -20.3413 458.603 -20.3098 455.401 -20.2876C453.705 -20.2769 451.995 -20.2802 450.224 -20.2491C446.071 -20.1816 442.291 -20.2163 438.282 -20.1943C436.183 -20.183 434.304 -20.2285 432.744 -20.3282C432.44 -20.3617 432.179 -20.4007 431.964 -20.4449C432.998 -20.5608 434.133 -20.6526 435.262 -20.7114C436.391 -20.7703 437.475 -20.7942 438.41 -20.781C438.924 -20.7486 439.588 -20.7426 440.329 -20.7639C441.07 -20.7851 441.858 -20.8327 442.605 -20.9013V-20.9013L440.432 -20.9402C438.992 -20.9583 437.516 -20.9639 436.115 -20.99C433.89 -21.0348 431.827 -21.1066 429.522 -21.1357C427.661 -21.1624 425.996 -21.2307 424.579 -21.3384C423.555 -21.4169 422.386 -21.4726 421.095 -21.5044C420.177 -21.5213 420.177 -21.5213 419.59 -21.682C420.056 -21.7861 420.658 -21.8006 421.225 -21.8026C424.624 -21.868 427.859 -21.8795 430.863 -21.8368C432.379 -21.833 433.724 -21.7889 434.833 -21.7066C435.105 -21.6719 435.8 -21.6883 436.358 -21.6996C438.106 -21.7168 439.777 -21.7118 441.351 -21.6847C443.527 -21.6397 445.95 -21.6503 448.527 -21.7164C449.015 -21.7972 448.453 -21.7906 448.425 -21.8184C446.43 -21.8703 444.473 -21.93 442.438 -21.974C441.882 -21.9896 441.287 -21.9974 440.661 -21.9971C438.323 -21.9699 436.374 -22.0454 435.088 -22.2131C435.023 -22.278 434.178 -22.2704 433.804 -22.3125C433.62 -22.3489 433.497 -22.3918 433.44 -22.4399C433.985 -22.5597 434.6 -22.5603 435.074 -22.5605C436.45 -22.5471 437.773 -22.5217 439.038 -22.4846C440.213 -22.4492 441.515 -22.4397 442.907 -22.4564C443.934 -22.4725 444.812 -22.4476 445.848 -22.4544C446.41 -22.4687 446.992 -22.4916 447.582 -22.5226C446.925 -22.6061 446.033 -22.6575 444.967 -22.6731C444.159 -22.7229 443.148 -22.738 443.019 -22.8678C443.4 -22.9606 443.826 -22.9621 444.167 -22.9525C444.878 -22.9529 445.565 -22.947 446.224 -22.935C447.62 -22.9086 449.133 -22.9082 450.729 -22.9339C451.57 -22.9435 452.367 -22.9406 453.108 -22.9253C454.788 -22.9049 456.398 -22.8594 457.936 -22.8385C461.087 -22.8171 463.961 -22.7404 466.988 -22.7C467.662 -22.6899 468.266 -22.6549 469.154 -22.7154C470.042 -22.7759 470.081 -22.7838 470.186 -22.8214C470.435 -22.8841 470.51 -22.9449 470.397 -22.9912C470.221 -23.0344 469.877 -23.0585 469.428 -23.0591C466.722 -23.1279 464.155 -23.2245 461.744 -23.3483C460.682 -23.373 459.753 -23.4236 458.987 -23.4982C458.379 -23.5496 457.659 -23.5836 456.847 -23.5992C455.668 -23.6364 454.438 -23.6636 453.163 -23.6807C452.569 -23.69 452.065 -23.7175 451.679 -23.7617C451.293 -23.8058 451.033 -23.8658 450.915 -23.938L452.478 -24.1777C452.724 -24.1889 452.968 -24.1985 453.208 -24.2066L466.182 -24.034L467.467 -24.0292C468.875 -24.0435 469.22 -24.0789 470.555 -24.3566C467.507 -24.4219 465.11 -24.6123 463.605 -24.9088C463.967 -24.9407 464.338 -24.9681 464.709 -24.9903C467.145 -25.0604 469.448 -25.0791 471.529 -25.0455C472.765 -25.0421 474.036 -25.0513 475.312 -25.0558C474.939 -25.1925 473.51 -25.1518 472.578 -25.1826C470.352 -25.2308 468.384 -25.3304 466.736 -25.4783C466.168 -25.5359 465.458 -25.5728 464.637 -25.5871C463.815 -25.5921 463.129 -25.627 462.638 -25.6888C462.147 -25.7505 461.865 -25.8373 461.818 -25.9416C461.741 -26.036 461.574 -26.1237 461.321 -26.2035C461.769 -26.3166 462.482 -26.425 463.324 -26.5082C464.167 -26.5914 465.082 -26.6438 465.897 -26.6555C467.637 -26.7021 469.442 -26.7784 471.266 -26.8824C472.175 -26.9348 473.066 -26.9649 473.881 -26.9707C474.6 -26.9752 475.417 -27.0131 476.208 -27.0786C476.999 -27.1441 477.72 -27.2337 478.261 -27.3337C478.992 -27.4572 479.674 -27.5822 480.355 -27.7071C481.037 -27.832 481.828 -27.9899 482.624 -28.1432C483.326 -28.1671 484.009 -28.1825 484.664 -28.1892C485.174 -28.1836 485.77 -28.2003 486.38 -28.2373C486.99 -28.2744 487.589 -28.3303 488.107 -28.3984V-28.3984C487.803 -28.4655 487.46 -28.5248 487.098 -28.6026C487.595 -28.7053 487.955 -28.8101 488.157 -28.9106C488.358 -29.011 488.397 -29.105 488.271 -29.1868C488.197 -29.261 488.737 -29.3854 488.924 -29.4838C489.164 -29.5686 489.209 -29.6477 489.053 -29.7108C488.897 -29.7739 488.548 -29.818 488.05 -29.8374C487.433 -29.8731 486.931 -29.9269 486.564 -29.9965C486.443 -30.0146 486.381 -30.0393 486.385 -30.0685C486.388 -30.0977 486.457 -30.1303 486.584 -30.1635C486.711 -30.1966 486.894 -30.2292 487.114 -30.2583C487.334 -30.2874 487.585 -30.3119 487.845 -30.3298C488.639 -30.3805 489.428 -30.4133 490.167 -30.4265C491.439 -30.4506 492.656 -30.4658 493.82 -30.472C495.107 -30.4813 496.538 -30.5388 497.969 -30.6387C499.25 -30.7332 500.398 -30.8179 501.025 -30.9985C501.651 -31.179 502.653 -31.1733 503.423 -31.3047C502.99 -31.4232 502.221 -31.5056 501.194 -31.5434C500.521 -31.5569 499.96 -31.5924 499.546 -31.6475C499.132 -31.7027 498.874 -31.7763 498.789 -31.8637L501.127 -32.2302C502.994 -32.4028 504.027 -32.27 506.044 -32.3392L503.966 -32.4745C503.924 -32.4878 503.908 -32.5035 503.919 -32.5208C504.121 -32.7945 504.442 -32.853 506.567 -33.0048L507.76 -33.0928L509.647 -33.1972C509.95 -33.2532 510.159 -33.3117 510.254 -33.3668C510.349 -33.4218 510.326 -33.4715 510.189 -33.5108C509.912 -33.5769 509.828 -33.6614 509.944 -33.7565C510.127 -33.8195 510.142 -33.8776 509.987 -33.9207C509.832 -33.9637 509.515 -33.9891 509.093 -33.9923C508.756 -33.9974 508.731 -34.0702 508.548 -34.1114C508.366 -34.1682 508.054 -34.2118 507.634 -34.2392C507.214 -34.2666 506.696 -34.2772 506.114 -34.2703C504.399 -34.2646 502.788 -34.2859 501.309 -34.3339L501.574 -34.3534C500.033 -34.3113 498.592 -34.3062 497.322 -34.3383C496.049 -34.3788 494.415 -34.3528 493.063 -34.3775C491.962 -34.3719 491.124 -34.4279 490.727 -34.5336C490.342 -34.6346 488.943 -34.6111 487.871 -34.5917C487.237 -34.5793 486.623 -34.574 486.038 -34.5759C485.252 -34.5988 484.269 -34.5772 483.254 -34.5149C482.949 -34.4957 482.649 -34.4856 482.382 -34.4854C479.8 -34.4592 477.223 -34.4284 474.676 -34.4147C474.088 -34.4226 473.399 -34.4045 472.689 -34.3627C472.391 -34.3445 472.101 -34.337 471.857 -34.3411C467.833 -34.3827 463.292 -34.2766 459.347 -34.334C458.869 -34.3475 458.339 -34.3503 457.774 -34.3424C456.503 -34.3087 455.399 -34.3303 454.63 -34.4041C454.215 -34.4433 453.684 -34.465 453.069 -34.4676C452.454 -34.4702 451.769 -34.4538 451.059 -34.4194C449.877 -34.3738 448.784 -34.3688 447.896 -34.405C446.166 -34.4385 444.345 -34.4523 442.45 -34.4462C441.869 -34.4404 441.359 -34.4534 440.958 -34.4842C440.557 -34.5151 440.277 -34.563 440.139 -34.6241C440.605 -34.7281 441.114 -34.7408 441.597 -34.7317C443.47 -34.7554 445.339 -34.7837 447.177 -34.7949C448.822 -34.8268 450.4 -34.8365 451.889 -34.824C452.628 -34.8098 453.551 -34.8421 454.455 -34.9137C455.563 -35.0044 456.705 -35.0495 457.649 -35.0398C458.348 -35.0374 459.087 -35.0452 459.854 -35.0631C460.345 -35.0848 460.848 -35.1219 461.312 -35.1707C461.496 -35.1919 461.696 -35.2097 461.9 -35.223C462.103 -35.2363 462.306 -35.2448 462.495 -35.2479C462.684 -35.2511 462.854 -35.2488 462.996 -35.2413C463.137 -35.2337 463.247 -35.2211 463.317 -35.2041C464.027 -35.0624 465.615 -35.1347 466.974 -35.1504C469.011 -35.3903 470.528 -35.2483 472.432 -35.3838C472.582 -35.3928 472.731 -35.3982 472.868 -35.3998C473.005 -35.4013 473.128 -35.3989 473.229 -35.3928C476.914 -35.3113 481.208 -35.3792 485.077 -35.3511C485.503 -35.347 485.999 -35.3611 486.506 -35.3918C489.822 -35.5953 493.011 -35.653 495.449 -35.5538C495.745 -35.5449 496.083 -35.5445 496.445 -35.5527C498.112 -35.6335 499.706 -35.6658 501.093 -35.6467C503.268 -35.6529 505.36 -35.6479 507.569 -35.6665C509.093 -35.6931 510.429 -35.6647 511.445 -35.5841C511.477 -35.5517 512.153 -35.5867 512.672 -35.59C512.97 -35.6717 513.228 -35.7455 513.535 -35.818C513.81 -35.9076 514.221 -35.9983 514.742 -36.0839C515.262 -36.1695 515.879 -36.248 516.55 -36.3141C517.699 -36.3988 517.814 -36.5217 517.01 -36.567C514.939 -36.7166 512.334 -36.7779 509.387 -36.7462C506.924 -36.7437 504.417 -36.7379 501.919 -36.7228C500.462 -36.7099 498.926 -36.6812 497.509 -36.6762C497.03 -36.6651 496.539 -36.6489 496.04 -36.6275C495.427 -36.5966 494.832 -36.5798 494.287 -36.5779C492.537 -36.604 490.585 -36.5813 488.522 -36.5109C487.766 -36.4956 487.041 -36.4904 486.356 -36.4955C484.736 -36.5146 482.98 -36.5006 481.135 -36.4537C479.987 -36.4273 478.875 -36.4135 477.809 -36.4125C477.433 -36.4096 477.126 -36.4318 476.764 -36.415C473.572 -36.2393 471.312 -36.3662 468.439 -36.2986C467.043 -36.2798 465.71 -36.2797 464.457 -36.2985C462.012 -36.2975 459.499 -36.2783 456.928 -36.2407C453.528 -36.1791 450.377 -36.2005 447.131 -36.175C446.49 -36.1696 445.871 -36.1706 445.279 -36.1777C442.398 -36.2251 439.269 -36.2151 435.968 -36.1478C435.218 -36.1381 434.545 -36.15 433.99 -36.1827C433.436 -36.2154 433.011 -36.2683 432.744 -36.338C432.631 -36.3858 432.704 -36.448 432.95 -36.5124C433.357 -36.5947 433.817 -36.6754 434.322 -36.753L452.697 -37.0136C453.469 -37.0272 454.222 -37.0345 454.951 -37.0355C457.097 -37.0378 459.31 -37.0581 461.577 -37.0963C463.817 -37.1321 465.957 -37.1257 468.127 -37.1365C468.767 -37.1402 469.423 -37.1487 470.093 -37.1621C474.625 -37.2684 479.044 -37.3333 483.318 -37.3563C485.117 -37.3596 487.06 -37.4084 488.893 -37.4242C490.727 -37.44 493.234 -37.4458 495.409 -37.4519L502.143 -37.451C503.467 -37.4541 504.757 -37.4448 506.042 -37.44C507.601 -37.779 508.138 -37.8584 510.219 -38.0069C510.931 -38.0617 511.655 -38.0944 512.306 -38.1012C514.372 -38.0744 516.964 -38.1859 518.922 -38.1712C520.104 -38.1784 521.107 -38.1408 521.828 -38.062C522.455 -38.0002 523.17 -37.9513 523.965 -37.9161C526.142 -38.2061 526.334 -38.3944 524.696 -38.4677C524.253 -38.4847 523.642 -38.4795 523.321 -38.5155C523.137 -38.5375 522.886 -38.5501 522.588 -38.5523C522.289 -38.5544 521.952 -38.5462 521.602 -38.5281C520.497 -38.4806 519.462 -38.4694 518.599 -38.4957C517.788 -38.5304 516.793 -38.5291 515.711 -38.4917C514.916 -38.433 514.217 -38.5158 513.53 -38.5398C512.842 -38.5637 512.278 -38.6067 511.204 -38.5424C511.007 -38.5296 510.812 -38.5219 510.633 -38.5199C510.454 -38.5179 510.296 -38.5217 510.172 -38.531C509.018 -38.5724 507.642 -38.568 506.154 -38.5183C503.873 -38.4693 501.732 -38.4675 499.806 -38.5128C498.653 -38.5525 497.671 -38.6229 496.896 -38.7212C496.685 -38.7541 496.371 -38.7738 495.986 -38.7784C494.048 -38.7579 491.944 -38.6807 489.81 -38.5518C489.006 -38.5002 488.203 -38.4593 487.418 -38.4301C485.805 -38.3653 484.245 -38.3289 482.784 -38.3222C480.661 -38.3211 478.451 -38.2962 476.173 -38.2476C474.767 -38.2205 473.412 -38.2105 472.125 -38.2177C470.802 -38.2211 469.389 -38.2005 467.919 -38.1563C466.456 -38.1203 465.168 -38.141 464.208 -38.216C463.892 -38.2564 463.638 -38.3044 463.449 -38.3591C465.59 -38.537 467.804 -38.6274 469.646 -38.6122C470.346 -38.6239 470.926 -38.6121 471.663 -38.6814L471.687 -38.6582C471.833 -38.6431 472.055 -38.6396 472.308 -38.6482C472.562 -38.6568 472.83 -38.677 473.062 -38.7049V-38.7049C472.975 -38.793 472.892 -38.8765 472.832 -38.9367C471.429 -38.9261 470.066 -38.927 468.751 -38.9393C467.643 -38.9571 466.139 -38.8013 465.179 -38.86C463.308 -38.7867 462.117 -38.8879 460.439 -38.8587C458.761 -38.8295 456.913 -38.733 455.235 -38.7037C453.771 -38.6877 452.35 -38.6842 450.979 -38.6933C450.505 -38.7061 449.96 -38.7031 449.375 -38.6845C448.554 -38.6496 447.789 -38.6438 447.17 -38.6677C446.551 -38.6915 446.102 -38.7441 445.874 -38.8195C446.089 -38.89 446.377 -38.981 446.71 -39.0752C446.098 -39.1526 445.168 -39.1852 444.058 -39.1682L442.489 -39.1719C442.073 -39.1699 441.756 -39.1908 441.602 -39.2304C441.448 -39.2699 441.469 -39.3251 441.661 -39.3845C444.635 -39.6835 444.745 -39.7165 446.928 -39.5242L449.826 -39.6136L449.777 -39.6149ZM410.576 -38.7936L410.797 -38.8098L410.576 -38.7936ZM49.3982 -6.98081L49.4489 -6.92981L49.3936 -6.98544L48.9077 -6.94961L48.8754 -6.98206L49.3982 -6.98081ZM119.946 -29.3341C120.633 -29.3898 121.326 -29.4409 122.022 -29.4873C122.204 -29.4945 122.375 -29.4961 122.519 -29.492C122.664 -29.4879 122.778 -29.4783 122.852 -29.4638C122.907 -29.4082 122.519 -29.3696 122.165 -29.3435C121.72 -29.3085 121.264 -29.2862 120.846 -29.279C120.429 -29.2718 120.063 -29.2799 119.788 -29.3025L119.388 -29.3228L119.946 -29.3341ZM473.69 -15.7742C473.238 -15.7649 472.809 -15.7633 472.414 -15.7697C470.663 -15.8147 468.986 -15.8801 467.19 -15.9218C464.924 -16.0277 462.32 -16.0708 459.476 -16.0495C458.365 -16.0391 457.427 -16.0734 456.77 -16.1485C456.377 -16.1887 455.869 -16.2123 455.279 -16.2176L447.76 -16.3399C447.296 -16.3652 446.894 -16.4008 446.564 -16.4457C447.227 -16.4946 447.669 -16.5272 447.934 -16.5467C448.484 -16.5522 448.956 -16.5373 449.304 -16.5035C449.678 -16.4462 450.31 -16.4236 451.074 -16.44C451.846 -16.4536 452.599 -16.4609 453.328 -16.462C454.706 -16.4591 456.094 -16.447 457.476 -16.4394C458.014 -16.2801 459.602 -16.3524 460.961 -16.3681L462.011 -16.3609C465.444 -16.2783 468.723 -16.1646 471.833 -16.0204C472.434 -15.996 472.952 -15.9571 473.37 -15.9049C473.528 -15.8642 473.579 -15.8134 473.518 -15.7565L473.739 -15.7728L473.69 -15.7742ZM320.389 -0.534541C319.556 -0.523682 318.689 -0.501387 317.8 -0.46798C317.115 -0.433864 316.447 -0.413154 315.822 -0.406679C312.321 -0.370949 308.672 -0.288434 304.925 -0.160235C304.435 -0.140821 303.964 -0.131292 303.531 -0.132023L300.464 -0.164578C299.497 -0.182863 299.479 -0.201409 300.182 -0.447392C300.766 -0.495127 301.357 -0.538677 301.949 -0.577725C302.302 -0.603792 302.877 -0.646145 303.011 -0.606299C303.831 -0.497541 305.325 -0.567978 306.582 -0.591046C310.222 -0.650475 313.975 -0.738223 317.649 -0.810183C318.426 -0.827772 319.179 -0.836669 319.899 -0.836773C320.346 -0.84046 320.753 -0.833516 321.105 -0.816233C321.207 -0.814466 321.293 -0.809315 321.357 -0.801128C321.42 -0.792942 321.46 -0.781909 321.473 -0.768753C321.486 -0.755598 321.472 -0.740622 321.433 -0.724827C321.393 -0.709033 321.328 -0.692782 321.243 -0.677146C320.942 -0.622383 320.595 -0.569923 320.212 -0.521505L320.389 -0.534541ZM293.73 -36.236L290.145 -36.2651C289.715 -36.2683 289.35 -36.3011 288.89 -36.2871C286.435 -36.2426 284.162 -36.255 282.168 -36.3237C281.489 -36.3518 280.694 -36.3574 279.828 -36.3402C277.176 -36.2894 274.674 -36.2873 272.39 -36.334C270.914 -36.3434 269.533 -36.3749 268.266 -36.428C268.169 -36.4403 268.108 -36.457 268.088 -36.477C268.068 -36.497 268.09 -36.5198 268.151 -36.5439C268.167 -36.5591 268.21 -36.5754 268.278 -36.5918C268.346 -36.6081 268.437 -36.6241 268.544 -36.6387C268.651 -36.6532 268.772 -36.6659 268.899 -36.6759C269.026 -36.686 269.156 -36.6931 269.279 -36.6968C270.879 -36.7686 272.397 -36.7937 273.711 -36.7698C274.928 -36.7413 276.24 -36.733 277.624 -36.7449C278.948 -36.7481 279.847 -36.6551 281.483 -36.7261C282.175 -36.7494 282.786 -36.7417 283.212 -36.7043C284.069 -36.6422 285.265 -36.6387 286.588 -36.6945C287.379 -36.7228 288.136 -36.7349 288.828 -36.7304C290.508 -36.71 292.113 -36.6692 293.67 -36.6297C294.16 -36.6206 294.686 -36.6193 295.238 -36.6259L303.032 -36.7032C304.905 -36.7269 306.774 -36.7552 308.612 -36.7664C310.115 -36.7907 311.514 -36.7831 312.759 -36.7439C314.087 -36.7027 315.535 -36.686 317.076 -36.6941C319.469 -36.6715 321.849 -36.6629 324.454 -36.6659C326.115 -36.6641 327.816 -36.6701 329.552 -36.6887C330.43 -36.7126 331.175 -36.6931 331.645 -36.634C331.93 -36.5854 332.602 -36.625 333.16 -36.6363C336.135 -36.7451 338.925 -36.7708 341.335 -36.7118C341.643 -36.7022 341.981 -36.6987 342.341 -36.7014C344.663 -36.7035 347.068 -36.7167 349.296 -36.7168C349.883 -36.7122 350.435 -36.6996 350.945 -36.6792C350.891 -36.6459 350.735 -36.6098 350.51 -36.5784C350.285 -36.547 350.009 -36.5227 349.738 -36.5105C347.631 -36.4175 345.596 -36.3683 343.719 -36.3651C340.595 -36.377 337.323 -36.3503 333.936 -36.2855C331.308 -36.2201 328.912 -36.2338 326.926 -36.3258C325.373 -36.3943 323.354 -36.3685 321.214 -36.2528C320.298 -36.1975 319.409 -36.1754 318.669 -36.1895C317.956 -36.208 317.139 -36.2035 316.264 -36.1763C314.419 -36.1246 312.646 -36.1006 310.977 -36.1048C309.346 -36.1238 307.824 -36.1758 306.149 -36.1916C304.474 -36.2074 301.923 -36.1983 299.857 -36.2251C297.792 -36.2519 295.749 -36.2555 293.73 -36.236ZM442.285 -38.9479C442.096 -38.8045 441.426 -38.7153 440.706 -38.677C438.221 -38.5073 435.765 -38.4351 433.75 -38.4725C432.661 -38.5247 431.209 -38.5046 429.68 -38.4162C427.9 -38.3243 426.236 -38.3091 424.982 -38.3732C424.674 -38.3844 424.439 -38.408 424.297 -38.4421C424.269 -38.4699 424.218 -38.5209 424.209 -38.5302C424.341 -38.5537 424.503 -38.5755 424.682 -38.5939C424.861 -38.6122 425.052 -38.6267 425.242 -38.6362L433.471 -38.8003L434.905 -38.8364C437.524 -38.931 440.02 -38.9687 442.285 -38.9479V-38.9479ZM426.099 -36.6789C424.814 -36.4448 424.81 -36.4495 424.152 -36.396C420.977 -36.1737 417.805 -36.0537 415.013 -36.0503C414.392 -36.0509 413.865 -36.0735 413.477 -36.1162C413.277 -36.1219 413.15 -36.1403 413.124 -36.1672C413.097 -36.1941 413.172 -36.2274 413.334 -36.2599L414.355 -36.4248C416.21 -36.4962 418.038 -36.5529 419.829 -36.5946C421.914 -36.6439 423.761 -36.6458 425.922 -36.6659L426.099 -36.6789ZM320.543 -1.57108C319.346 -1.2489 319.342 -1.25354 317.338 -1.17044C315.942 -1.11155 314.588 -1.07699 313.315 -1.06778C311.761 -1.05762 310.167 -1.03956 308.617 -1.02476C308.238 -1.01448 307.917 -1.023 307.716 -1.04866C307.516 -1.07432 307.449 -1.11527 307.53 -1.16358C307.733 -1.21601 308.052 -1.26673 308.433 -1.3075C308.814 -1.34827 309.236 -1.3767 309.63 -1.38815L310.476 -1.3958C311.503 -1.41185 312.57 -1.4358 313.562 -1.43932C314.206 -1.42597 314.952 -1.43629 315.741 -1.4695C316.531 -1.5027 317.343 -1.55788 318.113 -1.6307L320.543 -1.57108ZM419.708 -38.5266C419.389 -38.4708 419.027 -38.4174 418.634 -38.3677C417.109 -38.2301 415.496 -38.1519 414.11 -38.1485C413.455 -38.14 412.856 -38.1704 412.188 -38.1262C410.992 -38.0671 409.832 -38.0356 408.772 -38.0334C408.772 -38.0334 408.475 -38.0463 408.377 -38.0491L408.174 -38.2531C408.676 -38.3003 409.199 -38.339 409.72 -38.3671C411.468 -38.4214 413.185 -38.4585 414.898 -38.5003C416.611 -38.542 417.208 -38.5612 418.328 -38.5791C418.828 -38.5692 419.29 -38.5517 419.708 -38.5266ZM457.557 -13.1658L455.27 -12.7483C454.529 -12.712 453.838 -12.7054 453.3 -12.7295C452.763 -12.7537 452.409 -12.8072 452.292 -12.882C452.103 -12.9169 452.085 -12.9688 452.239 -13.0266C452.394 -13.0844 452.71 -13.1436 453.121 -13.192C453.517 -13.2493 453.969 -13.3006 454.449 -13.3429C454.929 -13.3851 455.427 -13.4174 455.911 -13.4376L457.557 -13.1658ZM438.514 -15.2447C440.01 -15.3155 441.44 -15.3445 442.697 -15.3293C443.488 -15.2879 444.561 -15.3012 445.694 -15.3663C447.756 -15.4962 449.743 -15.5322 451.237 -15.4666C451.237 -15.4666 451.292 -15.411 451.546 -15.3948C451.799 -15.3787 450.795 -15.3394 450.574 -15.3232C448.954 -15.2833 447.325 -15.2527 445.917 -15.2384C445.042 -15.239 444.118 -15.2259 443.158 -15.1992C441.838 -15.158 440.586 -15.1446 439.452 -15.1597C439.452 -15.1597 439.013 -15.1721 438.518 -15.2401L438.514 -15.2447ZM278.752 -36.9924C279.467 -37.0711 280.242 -37.135 281.019 -37.1794C281.796 -37.2238 282.555 -37.2475 283.239 -37.2487C283.763 -37.2528 284.187 -37.2321 284.444 -37.1897C284.7 -37.1474 284.775 -37.0859 284.657 -37.0149C284.127 -36.9758 283.42 -36.9237 283.023 -36.8944C281.645 -36.8972 280.469 -36.9349 278.752 -36.9924ZM144.998 -30.3659C145.571 -30.4292 146.203 -30.4776 146.82 -30.5055C147.438 -30.5335 148.017 -30.5399 148.491 -30.524C148.735 -30.5172 148.57 -30.4452 148.611 -30.4035C148.638 -30.394 148.638 -30.3823 148.61 -30.3694C148.583 -30.3566 148.528 -30.3431 148.454 -30.3305C148.379 -30.3179 148.286 -30.3065 148.186 -30.2976C148.085 -30.2887 147.979 -30.2826 147.881 -30.2799C147.259 -30.2527 146.672 -30.2446 146.172 -30.2563C145.672 -30.2681 145.275 -30.2993 145.016 -30.3473L144.998 -30.3659ZM136.036 -29.461C136.125 -29.4983 136.313 -29.5372 136.568 -29.5706C136.822 -29.604 137.124 -29.6296 137.42 -29.6427C137.942 -29.6444 138.417 -29.6341 138.825 -29.612C139.269 -29.5949 138.95 -29.4868 138.35 -29.4226C138.096 -29.3969 137.824 -29.3768 137.557 -29.364C137.29 -29.3511 137.034 -29.3459 136.81 -29.3487C136.587 -29.3516 136.401 -29.3623 136.268 -29.3802C136.135 -29.3981 136.059 -29.4226 136.045 -29.4517L136.036 -29.461ZM396.443 -38.1293C397.78 -38.2628 398.81 -38.2292 399.942 -38.2828C401.074 -38.3365 401.352 -38.3421 401.201 -38.2563C401.049 -38.1704 400.273 -38.1879 399.787 -38.152C399.131 -38.1045 398.47 -38.0771 397.88 -38.0731C397.289 -38.0691 396.792 -38.0886 396.443 -38.1293V-38.1293ZM117.829 -15.547C118.537 -15.577 119.231 -15.5981 119.9 -15.6102C119.988 -15.5978 120.043 -15.5815 120.062 -15.5624C120.081 -15.5433 120.063 -15.5217 120.01 -15.4989C120.01 -15.4989 119.557 -15.4306 119.292 -15.4111C118.315 -15.344 118.267 -15.44 117.829 -15.547V-15.547ZM17.7338 -3.11231C17.2545 -3.02221 17.031 -2.96093 16.6473 -2.9177C16.471 -2.90269 16.2888 -2.89178 16.1142 -2.88579C15.9395 -2.87981 15.7771 -2.87889 15.6386 -2.8831C15.4699 -2.90907 15.4304 -2.94879 15.5279 -2.99438C15.5279 -2.99438 16.0163 -3.0752 16.2022 -3.07896C16.7326 -3.09805 17.2467 -3.10924 17.7338 -3.11231V-3.11231ZM419.202 -38.8924C420.218 -38.9673 421.19 -39.039 421.893 -38.9516C420.28 -38.8574 420.28 -38.8574 419.202 -38.8924ZM402.747 -38.0369C403.773 -38.1972 404.375 -38.2117 404.867 -38.1933C404.972 -38.1887 405.041 -38.1783 405.064 -38.1638C405.088 -38.1494 405.064 -38.1316 404.997 -38.1131C404.929 -38.0946 404.822 -38.0765 404.691 -38.0615C404.56 -38.0465 404.413 -38.0354 404.271 -38.0299C403.736 -38.0253 403.226 -38.0276 402.747 -38.0369V-38.0369ZM349.946 -37.9691C349.923 -37.9923 349.896 -38.0201 350.161 -38.0397C350.23 -38.0496 350.311 -38.0581 350.397 -38.0644C350.482 -38.0707 350.568 -38.0745 350.647 -38.0755C350.647 -38.0755 350.674 -38.0477 350.693 -38.0291L349.946 -37.9691ZM313.28 0.517346L313.871 0.538522L313.605 0.558071L312.906 0.569853L313.28 0.517346ZM105.52 -29.8227C105.741 -29.839 105.962 -29.8553 105.994 -29.8228C106.041 -29.8178 106.069 -29.8105 106.078 -29.8017C106.087 -29.7928 106.076 -29.7826 106.045 -29.7718C106.045 -29.7718 105.735 -29.749 105.603 -29.7392L105.52 -29.8227ZM139.917 -29.5631C140.062 -29.565 140.193 -29.5628 140.303 -29.5567C140.303 -29.5567 140.33 -29.5289 140.33 -29.5289L139.889 -29.4963L139.917 -29.5631ZM439.68 -22.935C439.851 -22.9519 440.032 -22.9653 440.21 -22.9741L440.431 -22.9904C440.431 -22.9904 440.194 -22.9431 440.061 -22.9333C439.929 -22.9235 439.822 -22.9355 439.68 -22.935Z" fill="#FCBD21"></path></svg> 