<svg xmlns="http://www.w3.org/2000/svg" width="552" height="473" viewBox="0 0 552 473" fill="none"><path d="M255.929 282.424L258.578 257.52L268.646 251.161L289.841 246.393L325.343 247.982L351.837 255.4V284.544L347.068 333.822L330.112 342.3H260.698L251.16 333.822V312.627L255.929 282.424Z" fill="#6B67F5"></path><path d="M114.98 300.441L118.159 263.879L139.354 255.401L173.796 252.752L211.418 259.64L213.007 267.589L211.418 305.74L206.119 342.301L194.991 346.54L153.131 348.66L118.159 346.54L110.211 334.353L114.98 300.441Z" fill="white"></path><path d="M277.125 75.7745L280.304 52.4599L304.148 44.5117H347.598L374.092 52.4599V89.0214L367.204 131.942L358.196 137.77H318.455H280.304L273.945 128.232V106.507L277.125 75.7745Z" fill="white"></path><path d="M102.264 82.1302L109.682 18.5448L118.69 12.7162L145.184 7.94727L225.725 12.7162L237.912 22.254V63.5844L232.614 120.811L225.725 137.237L174.327 139.887L104.383 137.237L96.9648 118.162L102.264 82.1302Z" fill="#FCBD21"></path><path d="M473.728 335.745C454.301 335.745 435.373 335.247 415.947 335.745C416.444 275.473 419.93 204.738 423.419 142.968C439.857 142.968 456.295 142.968 472.733 142.47C475.224 142.47 477.715 139.979 477.715 137.488C477.715 134.997 475.721 132.507 472.733 132.507C471.738 132.507 432.384 133.004 423.917 133.004C426.408 85.1831 428.899 40.3582 429.396 4.9838C429.396 2.49284 427.403 0.00197818 424.414 0.00197818C421.923 0.00197818 419.432 1.99544 419.432 4.9838C418.935 39.8533 416.942 85.1831 413.953 133.004C400.006 133.004 386.557 133.004 372.61 133.501C373.605 131.01 374.106 128.52 374.106 126.526C377.094 104.111 378.59 80.698 378.59 57.7867C378.59 55.7932 378.59 52.3074 376.597 49.319C374.106 46.3306 370.62 44.8347 367.631 43.8397C343.223 37.3655 315.329 36.367 287.93 41.8462C280.457 43.3422 274.48 49.8164 273.982 57.7862L270.994 95.146C269.999 104.612 264.52 122.542 269.999 133.998C258.543 133.998 247.087 133.998 235.627 134.496C238.118 130.512 238.615 126.028 239.113 123.04C243.096 91.6562 245.09 59.7789 245.09 27.3978C245.09 24.4094 245.09 20.4225 242.599 16.9366C239.61 12.4523 234.131 10.9599 230.645 9.96135C219.189 6.97299 207.733 4.97953 196.273 3.48714C192.787 2.98967 189.799 2.98967 186.309 2.49224H183.818C176.346 1.99477 170.369 1.99477 163.895 1.99477H161.901C148.452 2.49224 134.505 3.98823 121.055 6.97659C111.092 8.97005 104.12 17.4377 103.122 27.4014L97.6389 79.6997C97.1414 83.1856 96.644 87.6699 95.6454 92.1545C93.1544 106.599 90.1661 122.539 96.6403 133.995C97.1378 134.493 97.1378 134.99 97.6352 135.491C87.6716 135.491 77.7116 135.491 67.7479 135.989C70.2389 87.1729 72.7297 40.8509 73.2272 4.98182C73.2272 2.49086 71.2338 0 68.2454 0C65.2571 0 63.2636 1.99346 63.2636 4.98182C62.7661 40.8463 60.2752 87.1711 57.7843 135.989C45.3295 135.989 32.8784 135.989 20.922 136.486C18.431 136.486 15.9402 138.977 15.9402 141.468C15.9402 143.959 17.9336 146.45 20.922 146.45C32.8756 146.45 45.3304 146.45 57.284 145.952C53.7982 211.704 49.8114 282.438 49.8114 345.207C34.8663 344.709 19.9241 344.212 5.47932 343.213C2.49096 343.213 0.497495 345.207 0 347.698C0 350.189 1.99346 352.68 4.48433 353.177C19.4293 354.172 34.3716 354.673 49.815 355.171C50.3125 390.04 51.8085 421.423 55.2943 448.32H37.8655C35.3746 448.32 32.8837 450.811 32.8837 453.302C32.8837 455.793 35.3746 458.284 37.8655 458.284L80.7051 456.788C83.196 456.788 85.6869 454.297 85.6869 451.806C85.6869 449.315 83.6934 446.824 80.7051 446.824L66.2603 447.322C62.7744 420.921 60.781 389.541 60.781 354.676C142.97 356.172 222.178 350.192 303.866 347.203C310.842 346.706 318.311 346.706 325.286 346.706H333.256H336.742C360.156 346.208 383.564 345.711 406.978 345.711C406.978 384.563 408.474 420.431 412.955 449.818H401.499C398.51 449.818 396.517 451.812 396.517 454.8C396.517 457.789 398.51 459.782 401.499 459.782C406.48 459.782 411.462 460.279 415.943 460.279C423.913 460.279 431.386 460.279 439.357 459.782C441.848 459.782 444.339 457.291 443.841 454.8C443.841 452.309 441.35 450.316 438.859 450.316C433.877 450.813 428.398 450.813 423.417 450.813C418.932 421.921 417.44 386.057 417.44 346.706H475.221C477.712 346.706 480.203 344.712 480.203 341.724C480.203 338.736 476.717 335.747 473.728 335.747L473.728 335.745ZM278.962 130.022C274.979 122.549 279.957 105.613 280.458 96.1472L283.447 58.7875C283.944 55.3016 286.435 52.3132 289.921 51.8122C302.873 48.8238 316.322 47.8288 329.772 48.3263C334.256 48.3263 338.737 48.8238 343.222 49.3212C341.228 50.8172 338.737 52.8071 336.747 54.8005C334.754 56.794 334.754 59.7824 336.747 61.7758C338.741 63.7693 341.729 63.7693 343.723 61.7758C346.214 58.7875 349.202 56.794 352.688 54.8005C353.683 53.8056 354.681 52.8071 354.681 51.3147C358.167 51.8121 361.155 52.8106 364.645 53.3081C367.136 53.8056 368.131 54.8041 368.131 54.8041C368.628 55.3016 368.628 56.7976 368.628 57.2951C368.628 62.2769 368.628 67.2587 368.131 72.2401C366.635 71.7426 364.645 72.2401 363.646 73.736L348.204 89.676C346.211 91.6695 346.211 94.6579 348.204 96.6513C350.197 98.6448 353.186 98.6448 355.179 96.6513L368.132 83.699C368.132 86.6874 368.132 89.6758 367.634 92.1667C366.138 91.6692 364.148 92.1667 363.15 93.6627C357.173 99.6394 352.191 105.616 346.712 112.094C345.216 114.087 345.216 117.573 347.707 119.069C349.701 120.565 353.186 120.565 354.682 118.074C358.666 113.092 362.653 108.608 366.636 104.127C366.139 111.102 365.14 118.074 364.643 125.049C364.145 127.54 364.145 129.534 363.147 131.026C362.152 132.021 360.656 132.522 358.165 132.522H354.181L306.361 133.517H302.875H284.941C281.953 133.009 279.959 132.014 278.964 130.02L278.962 130.022ZM166.38 11.9606H175.345C178.334 11.9606 183.315 12.4581 187.8 12.4581H190.788C190.291 22.4217 189.793 27.9006 189.292 30.8892C188.795 35.3736 188.297 40.3554 187.796 44.8365C187.796 48.3223 187.299 50.3158 185.803 50.8132H182.815H181.319C178.33 50.8132 175.342 51.3107 172.851 51.3107C170.857 51.8082 168.868 51.8082 166.377 51.8082C165.879 42.843 166.874 32.8795 166.874 23.4134C166.878 21.9246 166.38 15.9476 166.38 11.9606ZM105.607 129.023C99.6301 117.567 106.602 94.1536 107.6 80.2072L112.085 27.9052C112.582 22.9198 116.565 17.9416 122.546 16.9429C134.002 14.452 144.961 12.9596 156.42 12.4586C156.42 16.4419 156.918 20.9263 156.918 24.4122C156.918 34.3759 155.923 45.832 156.918 55.2945V56.2894C156.918 56.7868 157.415 58.7803 158.414 59.7752C159.409 61.2712 160.905 61.7687 162.397 61.7687C166.38 62.2661 169.87 61.7687 173.853 61.2712C176.344 60.7737 178.338 60.7737 180.829 60.7737H181.823C183.817 60.7737 186.308 61.2712 189.296 59.7788C196.769 56.7905 197.266 48.3227 197.266 45.3341C197.764 40.3523 198.261 35.3704 198.762 28.8966C199.26 23.9148 199.757 18.933 199.757 13.4541C208.722 14.449 218.188 16.4425 227.153 18.9334C229.147 19.4309 232.135 20.4294 233.13 21.9218V22.4192C228.646 23.4141 224.662 24.9102 220.675 26.9036C218.184 28.3995 217.189 31.3879 218.682 33.3778C220.178 35.8687 223.166 36.8636 225.156 35.3712C227.647 33.8753 230.635 32.8803 233.126 32.3829V39.3582C231.63 38.8607 229.64 38.8607 228.144 39.8556L216.191 48.3233C213.7 49.8193 213.202 52.8076 214.695 55.2986C216.191 57.292 219.179 58.2869 221.67 56.7945L232.629 49.3219C232.131 58.287 232.131 67.2555 231.634 75.723C231.634 75.723 231.634 75.2255 231.136 75.2255C229.143 73.2321 226.154 73.2321 224.161 75.2255C221.173 78.2139 217.687 80.7048 214.197 83.1957C212.204 84.6917 211.209 87.68 213.202 90.171C214.698 92.1645 217.687 93.1594 220.178 91.1659C224.161 88.6749 227.65 85.1892 231.136 82.2007C230.639 86.685 230.639 91.1659 230.142 95.6505C228.646 94.6556 227.153 94.6556 225.657 95.153L217.687 99.1364C215.196 100.131 214.201 103.12 215.196 105.611C216.191 108.101 219.179 109.096 221.67 108.102L229.143 104.616C228.645 107.107 228.645 109.598 228.148 112.088C227.153 112.088 225.657 112.088 224.662 112.586L217.687 117.564C215.196 119.06 214.699 122.048 216.191 124.539C217.186 126.035 218.682 127.03 220.174 127.03C221.169 127.03 222.168 127.03 222.665 126.035L228.145 122.55C227.647 126.035 227.15 129.024 225.156 130.52C223.66 132.016 220.672 133.011 216.191 133.508C214.695 133.508 213.203 133.508 211.209 134.006C132.506 135.502 153.926 135 114.074 135.502C110.588 134.503 107.103 132.509 105.607 129.023ZM163.889 269.989C165.882 269.989 167.872 268.493 168.373 266.503C168.871 264.51 170.367 262.52 172.357 261.024C173.351 260.029 174.35 259.031 174.35 257.538C176.343 257.538 178.333 258.036 180.327 258.036C176.841 260.029 174.35 263.017 171.859 266.503C170.363 268.994 170.864 271.983 173.355 273.479C175.846 274.975 178.834 274.473 180.33 271.983C182.821 267.999 186.805 265.007 191.289 263.515C192.785 263.017 193.78 261.521 194.277 260.029C197.266 260.527 200.752 261.525 203.743 262.023C206.732 262.52 207.229 263.518 207.229 263.518V266.009C207.229 272.484 207.229 278.962 206.732 285.933C206.234 285.933 206.234 285.436 205.737 285.436C202.749 284.441 199.76 286.431 199.76 289.419L191.285 296.888C189.292 298.384 188.794 301.372 190.291 303.863C191.786 305.857 194.775 306.354 197.266 304.858L207.229 297.386C207.229 300.374 206.732 302.865 206.732 305.853C205.737 305.356 204.738 305.356 203.744 305.853C199.76 307.349 196.271 309.837 193.78 313.326C192.284 315.319 192.785 318.805 194.775 320.301C196.768 321.797 200.254 321.296 201.75 319.306C202.745 317.81 204.241 316.815 206.234 315.82C205.737 322.295 205.24 328.275 204.241 334.749C203.744 337.24 203.744 339.233 202.248 340.726C201.253 341.721 199.757 342.222 197.266 342.222H193.282L145.959 343.217C143.966 343.217 141.976 343.217 139.982 343.714C132.012 344.212 121.551 345.21 118.562 339.731C114.579 332.258 119.557 315.322 120.058 305.856L123.544 268.496C124.042 265.011 126.533 262.022 130.019 261.521C140.977 259.03 152.433 258.035 163.392 258.035C161.896 260.029 160.901 262.019 159.906 264.51C158.41 267 160.9 269.989 163.889 269.989ZM308.346 264.012C310.339 265.508 313.825 265.508 315.321 263.018L322.794 253.054C324.29 253.054 325.782 253.551 327.278 253.551L321.301 261.024C319.805 263.018 319.805 266.503 322.296 267.999C324.29 269.495 327.776 269.495 329.271 267.004L336.744 257.041C337.242 256.543 337.242 255.545 337.739 255.047C339.733 255.545 341.722 256.042 343.716 256.543C346.207 257.041 347.202 258.039 347.202 258.039C347.699 258.537 347.699 260.033 347.699 260.53C347.699 270.494 347.202 280.454 346.704 289.92C344.711 287.927 341.722 287.429 339.729 289.423C335.746 292.908 332.256 296.895 329.268 301.376C327.772 303.867 328.273 306.855 330.764 308.351C333.255 309.847 336.243 309.346 337.739 306.855C340.23 303.37 343.218 299.88 346.207 296.892V296.394C345.709 306.855 344.711 317.814 343.218 328.275C342.721 330.766 342.721 332.76 341.225 334.252C340.23 335.247 338.734 335.748 336.243 335.748H335.746C332.26 335.748 328.273 335.748 324.787 336.245L284.936 336.743C282.943 336.743 280.953 336.743 278.959 337.24C270.492 337.738 260.528 338.736 257.54 333.257C253.556 325.784 258.534 308.849 259.036 299.382L262.521 262.023C263.019 258.537 265.51 255.548 268.996 255.047C281.948 252.059 295.397 251.064 308.349 251.562H311.337L307.852 256.543C305.357 259.528 305.858 262.516 308.346 264.012ZM351.185 336.238C351.683 334.245 352.18 332.255 352.18 330.261C355.169 307.847 356.664 284.433 356.664 261.522C356.664 259.528 356.664 256.043 354.671 253.054C352.18 249.568 347.696 248.072 345.706 247.575C321.297 241.101 293.404 240.102 266.004 245.581C258.531 247.077 252.554 253.552 252.057 261.521L248.571 298.881C247.576 308.845 242.097 327.276 248.073 338.732C248.073 339.23 248.571 339.23 248.571 339.727C233.629 340.722 232.133 340.722 212.209 341.72C212.706 339.727 213.204 337.737 213.705 335.744C216.693 312.831 218.189 289.916 218.189 267.004C218.189 264.513 218.189 261.525 216.196 258.536C214.202 255.548 210.219 254.052 206.73 253.057C181.824 246.583 153.926 245.585 127.028 251.064C119.555 252.56 113.578 259.034 113.08 267.004L109.595 304.363C108.6 314.327 103.12 332.758 109.097 344.214C109.097 344.712 109.595 344.712 109.595 345.209C93.1571 345.209 76.2212 345.707 59.7837 345.209C59.7837 282.446 63.767 211.71 67.2564 145.46C82.6989 145.46 98.1387 144.963 113.581 144.963C121.551 146.459 129.521 145.957 137.492 144.963H138.988H139.485C141.976 144.963 144.467 144.465 146.958 144.465C192.786 143.968 238.615 143.47 284.443 143.47C290.917 144.465 296.898 143.968 303.371 143.47C340.234 142.973 377.093 142.973 413.956 142.475C410.471 204.243 406.484 273.482 406.484 335.252C387.551 335.743 369.618 336.24 351.187 336.24L351.185 336.238Z" fill="#263238"></path><path d="M217.686 78.7136C223.165 75.7253 227.65 71.7383 231.633 67.2575C233.627 65.264 233.627 62.2757 231.633 60.2822C229.64 58.2887 226.651 58.2887 224.658 60.2822C221.172 63.7681 217.185 67.2575 212.704 69.7484C210.213 71.2443 209.716 74.2327 210.711 76.7237C212.704 79.211 215.693 80.2095 217.686 78.7136L217.686 78.7136Z" fill="#263238"></path><path d="M352.682 76.2221L365.136 66.2585C367.13 64.7625 367.627 61.2767 366.131 59.2832C364.635 57.2898 361.149 56.7923 359.156 58.2883L346.701 68.252C344.708 69.7479 344.21 73.2338 345.706 75.2272C347.7 77.2207 350.688 77.7182 352.682 76.2221Z" fill="#263238"></path><path d="M335.74 284.438C338.231 281.45 340.721 279.456 343.71 277.463C346.201 275.967 346.698 272.979 345.206 270.488C343.71 267.997 340.721 267.499 338.23 268.992C334.247 271.483 330.758 274.471 327.769 277.957C325.776 279.95 326.273 282.939 328.267 284.932C330.758 286.432 333.746 286.432 335.74 284.438L335.74 284.438Z" fill="#263238"></path><path d="M335.246 328.781L342.221 320.811C344.215 318.818 343.717 315.829 341.724 313.836C339.73 311.842 336.742 312.34 334.749 314.333L327.773 322.303C325.78 324.297 326.277 327.285 328.271 329.279C330.268 331.272 333.256 330.771 335.246 328.781Z" fill="#263238"></path><path d="M189.291 282.451C191.782 283.947 194.77 283.446 196.266 280.955C198.26 277.469 201.248 274.979 204.734 272.985C207.225 271.99 208.22 269.002 206.727 266.511C205.231 264.02 202.744 263.025 200.253 264.517C195.271 267.008 190.787 270.992 187.798 275.974C186.302 277.967 187.301 280.955 189.291 282.451L189.291 282.451Z" fill="#263238"></path><path d="M189.791 336.745C191.287 338.739 194.773 339.236 196.766 337.74L199.257 335.747C201.251 334.251 201.748 330.765 200.252 328.772C198.756 326.778 195.27 326.281 193.277 327.777L190.786 329.77C188.295 331.764 188.295 334.752 189.791 336.745Z" fill="#263238"></path><path fill-rule="evenodd" clip-rule="evenodd" d="M515.455 215.525C515.428 217.368 515.242 221.6 514.774 223.384C519.979 215.125 527.776 206.097 528.962 195.981C528.593 195.881 526.953 195.731 526.667 195.518C523.974 196.757 524.483 192.945 524.086 191.182C523.011 187.45 520.753 183.778 519.772 180.021C517.194 178.917 522.372 178.449 523.124 178.427C519.997 174.979 518.558 170.239 516.331 166.216C513.059 159.38 510.128 152.392 507.511 145.294C506.939 149.742 506.837 154.237 507.185 158.709C508.261 177.864 515.528 196.281 515.455 215.525ZM334.838 181.5C336.457 181.769 339.155 182.024 340.771 182.155C338.65 180.903 332.382 178.518 336.332 176.375C337.55 175.934 338.857 176.563 340.085 176.757C345.186 177.588 351.484 177.544 356.644 177.125C354.763 175.597 352.286 173.395 350.451 171.813C349.475 170.972 348.529 170.654 349.626 169.398C351.561 167.615 355.02 168.928 357.257 169.712C363.426 173.135 370.392 176.847 377.014 179.48C377.083 178.562 377.04 177.374 377.935 176.757C380.558 175.533 382.49 175.89 385.282 175.565C388.536 175.082 391.428 174.532 394.651 173.68C396.758 172.089 398.043 167.395 401.414 167.919C398.429 160.481 402.978 152.721 404.687 145.599C406.82 138.31 407.941 130.741 407.971 123.162C407.992 111.028 415.09 101.718 425.345 95.4924C429.388 92.7889 432.103 86.213 437.109 84.8959C437.745 82.4773 437.784 81.4149 438.343 78.9778C438.624 78.2777 438.832 74.4791 439.538 74.6084C440.316 70.8457 444.283 69.3367 447.715 68.5486C452.177 67.6329 458.405 66.5236 462.416 69.1076C463.578 70.0649 464.089 71.668 464.174 73.1C464.62 75.0069 465.547 76.9824 466.627 78.6369C468.472 78.0199 467.428 76.8699 469.252 76.6022C485.909 74.1575 504.398 86.2576 515.205 98.0616C534.795 117.981 550.444 145.174 547.883 173.564C548.572 173.463 551.625 172.989 551.582 173.945C551.432 178.099 550.66 181.564 550.447 185.716C550.658 191.215 544.888 191.878 540.72 193.234C540.977 209.19 535.123 225.15 525.96 238.266C523.734 240.847 520.394 249.803 516.331 246.235C515.852 245.68 519.565 241.839 520.226 240.89C522.482 238.078 528.457 224.155 524.234 221.374C523.295 224.38 514.205 238.831 512.584 230.629C510.432 231.866 506.875 232.71 504.303 232.582C499.466 235.176 494.759 237.978 490.114 240.89C487.951 245.097 484.777 249.139 482.118 253.178C500.519 295.266 518.479 364.536 542.158 404.177C544.223 406.766 532.865 411.166 530.859 412.116C534.695 418.284 535.175 425.432 538.094 432.074C538.65 431.985 539.211 432.102 539.712 432.368C543.313 434.783 544.671 443.426 544.877 447.688C544.71 449.589 545.422 452.464 543.869 453.864C544.086 454.096 544.248 454.38 544.363 454.671C545.456 455.513 545.322 457.375 544.737 458.53C542.682 462.755 527.655 462.363 522.778 463.267C505.505 464.715 491.007 464.944 473.735 463.36C471.616 462.92 473.219 459.645 474.265 458.757C473.782 458.466 473.473 457.934 473.684 457.25C477.611 446.131 491.802 446.884 500.389 440.946C498.131 439.653 499.588 440.065 501.007 440.568C502.512 439.631 503.977 438.577 505.334 437.412C504.292 436.775 504.806 436.354 505.933 436.888C507.71 435.477 509.093 433.296 511.357 432.612C513.573 432.074 513.573 431.136 513.573 430.544C512.254 425.291 510.813 419.904 510.072 414.577C509.282 415.731 502.465 406.486 501.007 404.177C495.339 395.289 495.355 386.531 491.389 376.865C483.245 355.816 466.562 311.699 456.388 291.568C432.583 329.979 444.178 381.93 429.493 422.89C428.84 424.12 427.613 428.735 425.913 427.404C425.252 427.557 424.55 427.639 423.921 427.728C424.103 432.205 424.441 436.671 425.193 441.102C425.893 441.285 426.487 441.649 426.795 442.285C427.974 441.428 430.231 454.071 430.424 455.359C430.427 457.021 431.873 460.72 430.552 461.707C432.455 462.478 432.766 465.329 431.428 466.794C427.453 472.084 408.081 470.63 400.934 471.517C391.896 471.295 354.087 474.645 351.462 466.156C350.94 464.217 351.835 461.771 353.655 461.025C352.926 459.342 354.67 457.717 355.737 456.536C362.027 450.056 371.7 449.036 380.075 446.216C379.762 445.899 391.007 440.194 393.445 438.784C393.284 436.868 397.304 438.788 397.315 438.784C399.232 435.429 400.59 430.209 401.875 426.59C399.503 425.862 393.788 425.215 392.729 422.89C389.325 421.759 392.739 416.87 393.445 414.577C413.4 365.135 394.468 302.771 423.921 256.106C418.522 253.044 412.328 246.343 417.661 240.722C418.728 239.371 421.339 235.164 421.296 235.898C422.288 231.893 424.503 224.993 425.193 220.943C427.726 206.071 426.066 192.144 423.921 177.125C420.943 188.426 410.68 197.842 400.24 203.005C396.165 204.67 390.785 208.106 386.312 207.022C382.274 205.839 374.942 197.632 374.078 193.69C362.308 195.076 350.088 193.964 338.841 190.3C337.397 189.759 335.688 189.805 336.134 187.776C336.58 186.054 339.755 186.493 341.12 186.813C339.033 185.667 333.616 185.368 333.656 182.373C333.728 181.749 334.193 181.392 334.838 181.5Z" fill="white"></path><path fill-rule="evenodd" clip-rule="evenodd" d="M464.133 70.5547C463.954 70.6265 463.831 70.8961 463.759 71.3013C463.56 71.3628 463.389 71.5086 463.338 71.7282C463.187 72.3739 463.363 73.0471 463.499 73.6907L463.515 73.7649C463.643 74.3879 463.801 75.0072 463.993 75.6144L464.022 75.7681C464.49 78.2777 465.393 80.6638 466.454 80.2585L466.209 80.7004C462.047 88.1805 450.159 108.265 440.876 105.402C435.471 103.257 435.549 96.2826 435.944 91.429C439.957 93.8667 440.708 75.2056 439.885 73.1434C439.23 72.6663 438.914 76.959 438.67 77.5508C438.139 79.9055 437.487 82.2299 436.874 84.565C435.58 84.8187 434.356 85.3296 433.274 86.0617C433.223 86.091 433.169 86.1177 433.119 86.1481C432.469 86.5395 431.963 87.0386 431.511 87.5914C431.001 88.1571 430.564 88.7763 430.152 89.4128C429.245 90.4327 428.381 91.4904 427.488 92.5212C427.064 93.0103 426.631 93.4846 426.187 93.9468L425.845 94.2314C425.788 94.2786 425.731 94.3256 425.673 94.3723C415.419 100.713 408.32 110.199 408.3 122.556C408.27 130.275 407.149 137.986 405.016 145.41C403.307 152.664 397.786 160.079 400.77 167.655C397.4 167.12 397.087 171.411 394.98 173.033L394.317 173.21C391.356 173.999 388.641 174.658 385.611 175.116C382.819 175.447 379.592 175.083 376.968 176.33C376.074 176.959 376.394 178.093 376.324 179.028C369.703 176.346 363.756 172.64 357.587 169.154L357.38 169.081C355.097 168.278 351.023 167.072 349.147 168.835C348.049 170.113 349.157 171.255 350.133 172.111C351.969 173.722 353.916 175.2 355.797 176.758C350.729 177.177 345.645 176.842 340.633 176.028L340.36 175.983C339.132 175.785 337.684 175.312 336.466 175.761C332.516 177.944 337.086 180.492 339.207 181.768C337.591 181.634 335.978 181.435 334.359 181.161C333.715 181.052 333.249 181.415 333.178 182.051C333.137 185.101 337.194 185.265 339.281 186.432L339.114 186.393C337.75 186.08 335.788 185.805 335.361 187.489C334.914 189.556 337.728 190.391 339.172 190.942C350.419 194.673 362.639 195.806 374.408 194.395C375.272 198.41 382.604 206.769 386.641 207.974C391.114 209.079 396.495 205.578 400.569 203.883C411.009 198.623 420.682 189.948 423.66 178.437C426.162 196.285 425.15 214.278 421.394 231.838C420.786 233.207 420.145 234.555 419.423 235.869C419.205 235.903 419.02 236.048 418.977 236.34C418.955 236.5 418.923 236.655 418.886 236.809C418.167 238.018 417.379 239.18 416.648 240.382C416.497 240.631 416.348 240.889 416.211 241.153C411.342 246.84 417.277 254.168 422.584 257.234C393.132 304.767 412.155 364.667 392.2 415.028L392.156 415.171C391.398 417.566 389.091 422.497 392.428 423.625C393.487 425.994 398.824 426.274 401.196 427.015C399.911 430.702 398.482 434.347 396.565 437.764L396.531 437.779C395.767 437.223 394.13 436.649 393.453 437.255C393.289 437.275 393.125 437.321 392.965 437.4C391.918 437.915 391.075 438.901 390.074 439.521C389.532 439.857 388.969 440.161 388.389 440.427C387.849 440.675 387.276 440.838 386.835 441.247C386.696 441.375 386.661 441.539 386.695 441.69C386.348 441.869 386 442.048 385.654 442.228L385.466 442.111C382.405 440.223 379.944 439.2 384.396 442.828C382.801 443.558 381.165 444.197 379.518 444.796C378.268 444.2 376.933 443.765 375.557 443.706C375.309 444.009 377.201 445.18 377.513 445.503C369.138 448.375 359.927 450.624 353.637 457.223L353.567 457.302C352.497 458.498 350.843 460.119 351.555 461.796C349.735 462.556 348.841 465.048 349.363 467.022C351.988 475.67 392.225 472.257 401.263 472.483C408.409 471.58 427.781 473.06 431.756 467.673C433.094 466.18 432.783 463.277 430.88 462.491C432.201 461.486 430.755 457.718 430.751 456.025L430.721 455.83C430.519 454.566 429.642 449.622 428.732 446.166C428.713 445.894 428.676 445.615 428.632 445.334L428.604 445.156C428.423 444.055 428.145 442.934 427.427 442.049C426.911 441.413 426.196 441.02 425.42 440.878C425.212 439.563 425.042 438.244 424.895 436.923C424.792 435.37 424.753 433.814 424.771 432.258C424.78 431.472 424.801 430.686 424.84 429.901C424.868 429.324 424.835 428.637 424.983 428.047C425.081 428.147 425.222 428.201 425.379 428.147C425.713 428.034 426.021 427.825 426.328 427.653C426.34 427.647 426.349 427.639 426.359 427.632C427.997 428.686 429.183 424.176 429.821 422.952C444.505 381.231 432.911 333.217 456.715 294.091C460.001 301.077 462.825 307.485 465.988 314.519C475.866 336.487 488.061 375.182 496.239 398.443C498.465 403.198 501.08 407.793 504.189 412.039C505.183 413.155 505.85 414.798 507.288 415.398L507.414 415.417C507.798 416.127 508.331 416.726 509.124 416.706C509.318 416.701 509.517 416.679 509.717 416.645C510.42 421.485 511.303 426.356 512.477 431.119L512.319 431.053C511.55 430.739 510.742 430.471 509.953 430.541C508.038 431.021 508.747 432.679 510.261 433.226C508.377 433.805 507.102 435.44 505.703 436.801C504.521 436.17 503.196 435.842 501.78 435.98C501.564 436.001 501.398 436.095 501.283 436.224C501.202 436.225 501.123 436.229 501.048 436.242L501.203 436.334C500.951 436.753 501.131 437.39 501.78 437.394C502.29 437.396 502.782 437.442 503.256 437.529C503.586 437.72 503.914 437.913 504.238 438.115C503.146 439.07 501.984 439.95 500.787 440.755C500.155 440.435 499.487 440.167 498.792 439.952C497.894 439.674 497.502 441.088 498.404 441.344C498.595 441.398 498.785 441.459 498.973 441.524L499.158 441.634C499.201 441.66 499.246 441.687 499.293 441.714C490.706 447.762 476.192 446.996 472.266 458.322C472.136 458.749 472.203 459.118 472.385 459.408C471.534 460.181 471.142 461.571 471.333 462.638L471.317 462.727C471.171 463.59 471.381 464.348 472.317 464.545C478.561 465.121 484.791 465.487 491.063 465.6L491.569 465.604C500.555 465.664 544.261 465.341 546.233 459.625C546.758 458.566 546.92 456.924 546.151 455.981C546.062 455.473 545.886 455.011 545.574 454.649C546.839 453.382 546.217 450.189 546.372 448.581C546.094 443.213 544.994 437.456 541.682 433.063C541.628 432.994 541.562 432.951 541.495 432.93C540.916 432.354 540.156 431.99 539.287 431.941C539.26 431.875 539.233 431.808 539.206 431.741C538.53 430.163 537.889 428.555 537.251 426.94C536.778 425.106 536.284 423.275 535.79 421.455C535.296 419.637 534.813 417.815 534.34 415.991C533.963 414.537 533.64 412.899 532.988 411.509C533.006 411.45 533.023 411.391 533.042 411.331L533.72 411.06C538.162 409.271 545.2 406.254 543.653 404.262C527.176 370.344 511.046 322.056 495.925 286.892C495.688 286.203 495.439 285.517 495.164 284.838C494.496 283.185 493.82 281.534 493.134 279.888L492.721 278.901L486.133 263.199C485.444 261.555 484.666 259.92 484.123 258.222C483.599 256.586 483.459 254.959 484.453 253.47C485.344 252.138 486.598 251.035 487.602 249.784C488.36 248.838 489.1 247.827 489.763 246.765C490.365 245.979 490.869 245.079 491.318 244.353C492.037 243.191 492.952 241.904 493.474 240.561C494.148 240.14 494.823 239.722 495.5 239.308C496.67 238.658 497.82 237.978 498.941 237.242C500.356 236.409 501.779 235.59 503.214 234.79C503.732 234.535 504.251 234.281 504.77 234.028C506.325 234.162 510.62 232.263 512.083 230.979C512.25 230.946 512.417 230.908 512.582 230.867C512.648 231.687 512.919 232.43 513.549 232.981C517.742 235.042 523.086 225.708 524.559 222.593C527.486 225.425 520.502 239.436 518.246 242.301L518.126 242.478C517.522 243.374 516.89 244.379 516.034 245.041L515.948 245.106C515.361 245.536 515.252 246.208 515.731 246.773C519.794 250.407 524.059 242.427 526.285 239.799C535.447 226.439 541.301 210.182 541.044 193.93C545.212 192.549 550.982 191.874 550.77 186.272C550.983 182.044 551.755 177.86 551.906 173.629C551.949 172.656 548.895 173.138 548.206 173.241C549.221 163.518 547.688 153.647 544.952 144.302C537.77 120.392 508.197 77.2966 479.089 75.7407C479.114 75.6937 479.102 75.6304 479.037 75.6136C477.72 75.2747 476.264 75.3289 474.91 75.3715C473.501 75.4158 472.068 75.4254 470.667 75.5831C469.214 75.7464 467.676 76.2753 466.7 77.3219L466.362 76.7177C465.969 76.0124 465.591 75.2999 465.306 74.5215C465.161 74.1283 465.048 73.7206 464.945 73.3086C464.828 72.7209 464.798 72.1093 464.518 71.5755C464.51 71.5616 464.501 71.55 464.493 71.537C464.392 71.2007 464.276 70.8713 464.133 70.5547ZM428.407 462.471C428.824 462.89 429.545 463.072 430.183 462.872C432.306 468.846 420.79 468.471 417.094 468.807C413.152 469.223 341.36 472.922 353.501 464.163C367.745 469.54 415.388 470.134 428.407 462.471ZM393.445 438.783C394.403 439.762 395.848 440.198 396.876 441.132C399.782 443.567 402.12 446.993 406.137 447.638C411.414 448.614 416.171 446.034 420.891 443.991C421.478 443.963 422.092 443.717 422.694 443.535C422.715 443.578 422.737 443.622 422.761 443.662C422.79 443.65 422.821 443.641 422.856 443.635C422.909 443.627 422.959 443.621 423.01 443.614C423.131 443.518 423.259 443.437 423.391 443.369C423.471 443.357 423.55 443.347 423.629 443.343C424.602 443.284 425.658 443.508 426.282 444.306C426.336 444.375 426.384 444.446 426.431 444.519C426.734 445.581 426.772 446.866 426.626 447.764C426.579 448.057 426.702 448.346 426.911 448.513C427.098 452.957 427.603 457.42 427.956 461.805C426.19 462.434 424.359 462.912 422.525 463.215C409.873 464.756 397.086 465.471 384.337 465.084C376.747 464.812 369.168 464.141 361.657 463.024C359.229 462.797 356.744 461.867 354.318 462.243C354.214 462.05 354.053 461.884 353.829 461.771C360.048 453.336 370.679 451.056 379.946 447.358C381.477 448.327 382.419 450.345 384.124 450.946C384.786 451.045 385.706 450.658 385.609 449.827C385.334 448.124 383.477 447.348 382.227 446.359C383.568 445.739 384.885 445.064 386.168 444.314C387.43 445.44 388.922 446.297 390.103 447.497C389.432 449.121 392.23 448.98 392.261 447.253C392.068 445.342 389.011 444.533 387.645 443.418C389.778 442.133 391.683 440.511 393.445 438.783ZM543.699 455.484C543.773 455.63 543.895 455.762 544.075 455.865C544.386 456.043 544.236 456.985 544.22 457.303L544.22 457.326C544.203 457.896 544.167 458.465 544.117 459.033C543.592 459.502 542.92 459.858 542.175 460.073C519.461 463.662 496.312 463.954 473.379 462.65C473.484 462.047 473.93 461.55 474.325 461.046C488.822 462.267 503.669 460.99 518.191 459.8C526.681 458.695 535.576 458.238 543.699 455.484ZM510.631 433.395C514.374 434.671 517.858 436.442 521.175 438.563C522.408 439.357 523.585 440.268 525.003 440.724C529.91 442.187 537.268 435.16 537.386 435.081C539.091 433.945 540.898 435.004 541.825 436.579C541.911 436.725 543.332 444.781 543.289 448.727C543.545 450.068 542.864 452.261 543.226 453.723C542.941 454.063 542.536 454.222 542.262 454.578C542.163 454.706 542.191 454.851 542.277 454.961C529.024 456.041 515.848 458.091 502.532 458.523C493.418 459.001 484.287 458.891 475.172 458.782C477.246 452.751 484.31 451.159 489.705 449.174C493.782 447.723 497.535 445.562 500.837 442.784C502.269 443.78 503.399 445.175 504.413 446.577C504.874 447.147 505.821 447.577 506.315 446.788C506.823 445.968 505.831 444.933 504.605 444.026C503.96 443.081 503.148 442.275 502.212 441.612C503.246 440.698 504.243 439.746 505.176 438.734C507.112 440.033 508.534 441.902 509.927 443.715C510.596 444.438 511.847 443.482 511.298 442.667C510.858 442.105 510.363 441.587 509.833 441.102C509.034 439.609 507.883 438.23 506.488 437.276L506.594 437.142C507.76 435.66 508.768 433.882 510.631 433.395ZM543.613 454.538C543.645 454.577 543.679 454.615 543.715 454.651C543.683 454.716 543.658 454.784 543.64 454.853L543.3 454.88C543.418 454.783 543.522 454.665 543.613 454.538ZM402.441 427.26C409.385 428.558 416.558 429.057 423.566 427.985C422.755 432.468 422.246 436.979 422.512 441.531C412.034 444.527 407.68 449.522 398.961 439.539C399.382 438.904 399.625 438.124 399.908 437.371C401.113 434.107 402.109 430.731 402.441 427.26ZM529.976 412.557C530.075 412.774 530.254 412.952 530.511 413.031C530.603 413.432 530.698 413.833 530.799 414.234C530.969 416.299 531.756 418.346 532.57 420.252C532.626 420.383 532.681 420.515 532.736 420.647C533.273 422.231 533.836 423.813 534.391 425.396C534.812 427.041 535.182 428.699 535.569 430.352C535.644 431.473 535.805 432.585 536.052 433.684C536.063 433.735 536.079 433.782 536.096 433.827C535.708 433.998 535.333 434.197 534.98 434.398C524.349 442.308 526.185 437.019 515.977 432.591C516.036 432.165 515.82 431.781 515.645 431.341L515.622 431.283C515.612 431.255 515.601 431.227 515.59 431.199C515.607 431.031 515.597 430.851 515.553 430.659C514.519 426.472 513.079 422.356 511.732 418.259C511.516 417.642 511.266 417.039 511.011 416.437C517.483 416.354 523.885 414.648 529.976 412.557ZM489.838 242.856C431.116 315.371 443.98 323.922 431.336 407.522C430.108 414.03 427.612 420.206 425.96 426.59L425.732 426.568C425.506 426.547 425.292 426.533 425.132 426.584L425.126 426.586L424.475 426.578C416.877 426.475 409.247 426.082 401.827 424.367C399.203 423.91 396.645 422.713 394.019 422.462C394.009 422.124 393.847 421.809 393.627 421.627C413.881 374.185 399.769 319.991 417.341 271.742C419.009 266.914 420.995 262.193 423.049 257.515C445.634 270.887 470.874 255.744 489.838 242.856ZM532.776 414.591C532.901 415.138 533.038 415.678 533.162 416.2L533.345 416.978C533.085 416.191 532.879 415.394 532.776 414.591ZM481.957 255.698C481.918 256.897 482.21 258.106 482.606 259.233C483.874 262.846 485.498 266.366 486.952 269.909C487.939 272.314 488.917 274.722 489.905 277.126C504.544 315.854 522.512 367.765 540.241 404.466C533.561 408.295 526.237 411.003 518.66 412.471C516.901 413.054 511.87 413.079 510.089 414.003L509.683 413.609C509.613 411.957 507.722 410.779 506.965 409.33C503.546 404.561 500.822 399.347 498.35 394.047L497.946 392.885C491.375 373.935 482.8 347.85 473.765 325.797L473.486 325.117C469.742 316.022 467.281 307.638 462.762 300.758C462.516 300.388 462.266 300.018 462.016 299.647C461.831 299.279 461.644 298.912 461.455 298.546C460.645 296.982 459.771 295.451 458.947 293.895C458.595 293.231 458.247 292.482 458.062 291.716C465.24 279.229 473.794 267.558 481.957 255.698ZM471.207 76.7625C473.459 77.3052 475.768 77.5269 478.033 77.9771C493.648 79.821 505.619 90.7854 515.931 101.672C535.464 121.988 546.829 146.987 545.99 175.24C539.015 176.499 532.111 178.341 525.004 178.743C526.037 177.194 524.307 175.256 523.711 173.773C513.431 154.105 505.494 132.394 499.048 111.688L499.223 112.592C501.247 122.984 503.605 133.332 507.203 143.314C506.161 142.299 489.038 128.815 490.377 133.273C495.608 137.322 501.516 140.531 506.998 144.246C500.48 165.805 509.903 187.648 511.693 209.216C512.143 214.011 512.104 218.84 512.708 223.617C512.938 224.158 512.696 225.256 513.034 225.77C512.784 227.038 512.257 228.194 511.169 229.184C510.711 229.6 510.211 229.961 509.685 230.283C508.373 230.479 507.055 230.98 505.986 231.443C503.608 232.474 501.515 233.995 499.389 235.447L499.332 235.485C495.905 237.229 492.481 239.21 489.045 241.276L488.892 241.355C487.613 242.02 486.306 242.619 485.193 243.54C485.142 243.582 485.108 243.63 485.086 243.68L482.999 244.957C466.28 255.174 449.042 265.278 429.44 257.985C423.932 255.788 415.926 251.338 416.954 244.456C417.157 243.796 417.465 243.176 417.814 242.572C417.911 242.443 418.01 242.315 418.111 242.19C418.87 241.239 419.72 240.367 420.38 239.34C420.648 238.923 420.889 238.493 421.099 238.05C421.248 238.005 421.38 237.902 421.464 237.721C422.407 235.684 423.331 233.643 424.192 231.569C434.627 195.548 421.961 156.846 418.378 120.515C418.129 118.434 417.764 116.332 417.765 114.237C417.765 114.139 417.621 114.142 417.613 114.237C416.349 123.51 417.308 132.869 418.509 142.1C420.048 153.648 422.069 165.148 423.458 176.717C419.766 188.378 409.427 196.804 398.571 201.857C396.724 202.726 394.835 203.5 392.91 204.182L392.78 204.227C390.665 204.96 388.277 206.093 386.235 204.608C382.318 201.975 379.552 197.958 377.013 194.09C378.04 193.979 379.069 193.884 380.098 193.814C382.625 196.676 385.721 199.105 388.988 201.091C390.32 201.847 391.833 201.527 392.448 200.048C393.029 198.652 392.318 197.022 391.803 195.676L391.728 195.48C389.121 188.517 384.593 182.136 378.48 177.775C383.092 176.862 387.883 176.89 392.307 175.086C392.066 175.337 392.382 175.617 392.536 175.83C392.481 176.243 392.784 176.544 393.156 176.655C396.766 181.326 399.502 186.857 400.074 192.78C399.922 194.798 401.745 197.128 403.501 195.01C404.874 189.113 399.472 179.897 394.723 176.259C399.486 173.021 398.097 168.35 401.088 168.328C401.86 169.797 402.869 171.203 404.139 172.294C404.714 172.756 405.411 173.105 406.028 173.515C406.676 173.947 407.351 172.997 406.838 172.476L406.702 172.315C404.752 170.005 402.436 167.734 402.033 164.61C401.451 160.761 403.198 156.862 404.537 153.347C407.104 146.608 408.806 139.596 409.636 132.44C410.575 126.029 409.433 119.378 411.649 113.174C412.09 111.446 412.723 109.873 413.5 108.412C413.519 108.397 413.537 108.381 413.554 108.362C414.476 107.306 415.212 106.132 416.072 105.025C416.971 103.868 417.946 102.767 418.978 101.725C420.704 99.984 422.609 98.5312 424.594 97.1324C424.631 97.1193 424.668 97.1023 424.706 97.0804C425.078 96.8628 425.435 96.5985 425.78 96.3081L425.813 96.285C426.968 95.4903 428.146 94.6278 429.048 93.5489C429.932 92.4896 430.562 91.2543 431.284 90.0875C432.272 88.895 433.213 87.6172 434.404 86.6235C435.077 86.2428 435.778 85.884 436.379 85.4078C436.477 85.3671 436.577 85.3284 436.679 85.2919C436.423 86.326 436.035 87.2775 435.686 88.328C435.18 88.1166 434.488 88.351 434.403 89.1225L434.372 89.4106C433.864 94.1358 433.607 99.8537 436.413 103.945C442.593 112.817 451.824 105.242 456.492 99.0037C460.682 94.0282 464.204 88.4939 466.805 82.546L466.848 82.4674C467.332 81.5572 468.382 78.7816 468.679 77.4478C469.429 77.0568 470.341 76.8674 471.207 76.7625ZM490.993 242.122C491.011 242.145 491.033 242.165 491.056 242.183C490.18 243.416 489.344 244.691 488.484 245.927C489.189 244.785 489.853 243.635 490.44 242.471C490.624 242.354 490.808 242.238 490.993 242.122ZM540.046 194.237C536.696 212.242 531.909 231.185 518.571 244.647C522.722 238.858 525.95 232.1 526.889 225.021C526.928 223.122 526.23 221.115 524.106 220.833C523.744 220.785 523.469 221.107 523.339 221.393L523.327 221.421C522.492 223.395 521.406 225.272 520.12 226.992L519.993 227.155C519.023 228.397 514.904 233.462 514.329 231.041C514.75 218.804 527.525 213.758 529.617 196.904C533.196 196.529 536.593 195.183 540.046 194.237ZM512.584 229.951C512.57 230.143 512.563 230.334 512.566 230.521C512.377 230.443 512.182 230.381 511.982 230.333C512.185 230.209 512.385 230.081 512.584 229.951ZM512.773 228.633C512.703 228.984 512.644 229.339 512.607 229.69C512.243 229.805 511.882 229.931 511.523 230.061C511.741 229.868 511.948 229.663 512.142 229.445C512.368 229.191 512.58 228.918 512.773 228.633ZM507.837 145.1C510.453 152.329 513.384 159.447 516.656 166.41C518.853 170.485 520.319 175.233 523.359 178.769C523.389 178.797 523.419 178.823 523.449 178.848L523.399 178.85C522.493 178.889 517.57 179.369 520.097 180.471C521.078 184.298 522.363 188.038 523.438 191.84L523.462 191.95C523.855 193.789 524.353 197.493 526.991 196.257C527.277 196.474 527.621 196.626 527.991 196.728C526.805 207.032 520.221 213.741 515.017 222.154C516.181 217.714 515.841 213.077 515.436 208.543L515.335 207.428C513.185 186.642 505.294 166.201 507.837 145.1ZM485.983 211.172C490.224 205.938 511.085 154.118 496.343 185.513C491.103 196.442 486.79 208.142 478.146 216.998C477.548 217.634 478.336 218.751 479.112 218.238C481.903 216.394 484.161 213.947 485.983 211.172ZM501.081 148.54C501.099 148.456 500.99 148.41 500.942 148.482C495.274 159.559 491.227 171.464 484.822 182.206C480.957 188.858 476.318 195.058 471.005 200.649C470.606 201.069 471.207 201.649 471.639 201.276C486.803 187.427 494.176 167.295 501.081 148.54ZM389.314 194.146L389.323 194.148L389.463 194.505C389.51 194.625 389.558 194.747 389.607 194.869C389.584 194.859 389.56 194.85 389.537 194.84C389.487 194.79 389.437 194.74 389.388 194.688C389.399 194.505 389.376 194.323 389.314 194.146ZM548.146 173.676C548.916 173.975 549.862 174.032 550.713 174.104C549.76 178.548 548.938 183.026 548.075 187.482C547.676 188.85 546.739 189.33 545.441 189.764L544.399 190.094C539.53 191.638 534.634 193.224 529.615 194.171C529.262 193.944 528.76 193.955 528.526 194.319C528.282 194.342 528.031 194.355 527.784 194.378C526.442 189.475 524.147 184.724 521.076 180.657C529.66 180.931 538.307 178.69 546.473 176.184C546.804 176.343 547.239 176.244 547.379 175.868L547.504 175.832C548.875 175.429 550.693 174.441 547.812 174.943C547.986 174.541 548.083 174.11 548.146 173.676ZM350.758 170.048C356.448 169.117 360.797 173.68 365.653 175.775C368.56 177.01 376.309 180.839 379.126 179.565C382.987 183.245 386.248 187.544 388.528 192.368C387.906 192.332 387.285 192.304 386.663 192.285C385.537 191.927 384.335 191.909 383.166 192.253C371.457 192.381 359.739 194.633 348.076 191.779L347.808 191.729C345.412 191.279 337.233 189.568 336.767 187.89C336.889 187.16 339.089 187.932 339.511 188.014C342.873 188.67 346.288 188.982 349.694 189.311C350.642 189.401 350.63 187.943 349.694 187.85C345.594 187.446 341.71 185.923 337.948 184.338C337.548 184.162 336.488 183.798 335.755 183.327C339.231 183.912 342.813 184.013 346.33 183.889C347.541 183.734 347.626 181.913 346.33 181.949C343.956 182.209 341.687 181.049 339.749 179.824L339.327 179.553C336.096 177.468 336.322 177.378 340.405 178.153C346.405 179.234 352.477 179.194 358.536 178.782C359.401 178.767 359.998 177.615 359.283 176.998C356.493 174.614 353.502 172.487 350.758 170.048ZM378.262 178.733L378.328 178.795C378.467 178.927 378.582 179.044 378.646 179.107L378.671 179.131C378.757 179.211 378.84 179.293 378.925 179.374C378.553 179.498 378.143 179.505 377.719 179.44C377.975 179.282 378.165 179.023 378.262 178.733ZM485.164 159.662L485.178 159.644L485.146 159.679C481.485 163.599 477.775 169.957 474.743 174.971C474.343 179.081 483.309 162.03 485.164 159.662ZM393.058 174.814C393.023 174.857 392.988 174.902 392.955 174.948L392.906 175.017L392.828 174.969C392.799 174.952 392.768 174.941 392.737 174.933C392.844 174.894 392.951 174.853 393.058 174.814ZM409.805 161.429C406.511 161.941 413.246 165.991 414.135 166.572C414.704 166.786 420.116 171.208 419.787 169.773C417.254 166.553 413.758 162.801 409.805 161.429ZM538.636 152.941C537.417 150.999 530.788 153.556 528.693 153.862C527.515 154.17 526.35 154.534 525.159 154.793C524.229 155.127 519.891 154.803 521.483 156.623C523.144 157.507 525.313 156.824 527.014 156.355C530.399 155.44 533.796 154.372 537.262 153.864C537.366 153.812 537.372 153.847 537.281 153.969C536.535 155.609 534.967 157.147 533.201 157.676C533.079 157.711 533.13 157.895 533.254 157.864L533.373 157.84C535.359 157.401 539.651 155.32 538.636 152.941Z" fill="black"></path><path fill-rule="evenodd" clip-rule="evenodd" d="M420.084 43.16C420.148 39.5672 420.219 35.9025 420.759 32.3446C421.286 28.8663 422.738 25.7222 425.232 23.1964C430.529 17.8312 438.207 16.5207 445.354 15.3198L457.574 13.2664C461.302 12.6401 465.279 11.6391 469.046 12.5272C470.902 12.9649 472.478 13.9817 473.919 15.1847C475.307 16.3443 476.8 17.5895 477.741 19.1495C478.684 20.7118 479.008 22.538 479.314 24.3049C479.66 26.297 479.928 28.3046 480.119 30.3171C480.501 34.349 480.553 38.4113 480.276 42.4516C480.142 44.4113 479.928 46.3654 479.655 48.3108C479.52 49.2755 479.367 50.2377 479.194 51.1967C479.144 51.4794 479.105 51.7925 479.053 52.1087C479.438 53.1939 479.657 54.3177 479.639 55.4366C479.587 58.7328 476.777 60.8079 473.943 61.9221C472.3 62.5681 470.583 63.0071 468.968 63.7288C467.27 64.4878 466.114 65.7184 464.953 67.1223C462.739 69.7996 460.24 72.206 457.387 74.2136C451.337 78.4703 443.674 80.4835 436.334 78.9554C434.573 78.5888 432.796 78.0194 431.213 77.1616C429.541 76.2559 428.285 74.9435 427.229 73.3918C425.269 70.5112 423.864 67.2676 422.801 63.9668C421.716 60.5998 420.947 57.2266 420.527 53.7158C420.108 50.2163 420.02 46.6812 420.084 43.16Z" fill="white"></path><path fill-rule="evenodd" clip-rule="evenodd" d="M459.079 0.751486C454.023 0.0629742 447.043 2.30076 444.525 6.81289C432.501 4.0072 417.337 3.91531 407.427 13.2554C397.087 24.3348 410.075 38.943 418.687 42.2365C418.06 45.2528 419.038 64.5762 425.955 73.1955C431.445 80.4986 444.23 83.869 450.146 75.1461L450.193 75.0741C450.826 74.0667 450.281 74.0991 449.63 74.8484C443.837 79.8911 435.96 79.9772 429.891 74.6555C418.515 64.9284 419.688 41.0783 425.101 27.2806C440.515 25.605 457.017 30.2292 467.663 41.7139L466.943 46.0037C466.821 46.7346 466.681 47.4648 466.575 48.1982C466.507 48.6681 466.5 49.1355 466.828 49.5159C467.915 50.7717 469.745 48.8846 471.251 48.134C471.696 48.0721 472.141 48.0482 472.578 48.0787C479.814 49.0012 478.388 62.895 470.435 60.4596C469.767 60.0476 469.193 60.1733 468.934 60.7712C467.038 62.4898 465.788 65.555 462.639 68.5073C461.528 69.6147 460.517 70.5412 459.267 71.4296C458.533 72.1645 456.318 72.9137 457.02 74.1713C458.348 77.0328 466.179 68.0443 467.563 65.5585C471.901 67.2541 476.708 66.6782 481.204 66.2637C504.919 65.0432 501.753 40.2982 482.314 24.6754C478.655 22.0089 474.618 19.8337 470.421 18.1598C469.848 17.9313 470.099 17.0001 470.68 17.2318C473.456 18.3396 476.163 19.6581 478.744 21.1841L478.748 20.2717C478.751 18.7351 478.727 17.1353 478.458 15.7313C478.323 14.7584 478.096 13.7193 477.747 12.9377C477.316 10.5411 470.557 2.31487 459.079 0.751486ZM472.894 51.2685C472.528 50.9241 471.845 51.3347 471.519 51.3244C470.685 51.4373 469.893 51.7858 469.275 52.216C468.867 52.4421 468.582 52.6545 468.343 52.8498L468.336 52.848C468.338 52.848 468.34 52.8498 468.342 52.8503L468.32 52.8653C467.972 53.1099 466.699 54.4874 467.503 54.117C467.563 54.0398 467.625 53.9657 467.687 53.8931C467.693 53.903 467.702 53.9128 467.714 53.9223L467.668 53.9886C466.985 55.0065 468.165 53.9341 468.347 53.6493C468.355 53.6562 468.365 53.6608 468.374 53.6658L468.138 53.9507C468.105 53.9911 468.079 54.0234 468.057 54.0507L468.007 54.0984C467.217 54.8674 467.192 55.5594 468.111 54.4225C468.074 54.4761 468.045 54.5328 468.041 54.5832L467.987 54.6519C467.266 55.5714 467.852 55.2449 468.211 54.8521L468.241 54.8183L468.235 54.8275C467.901 55.3357 468.563 54.9791 468.679 54.7073L468.684 54.695C468.812 54.5921 468.89 54.4767 468.917 54.4476L468.922 54.4427C469.542 53.814 470.44 53.282 471.204 53.0403C471.314 53.0195 471.426 53.0028 471.539 52.9909C471.998 52.8896 472.462 52.8201 472.931 52.7826C472.989 52.7759 473.047 52.7342 473.09 52.6803C473.799 52.6566 473.58 52.3689 473.286 52.3155L473.281 52.3146L473.34 52.3098C473.795 52.2658 474.105 52.1042 473.645 52.005L473.587 51.9935C473.594 51.9825 473.6 51.9714 473.607 51.9603C474.001 51.9175 473.743 51.5384 473.525 51.6301C473.617 51.3323 473.196 51.481 473.144 51.4367C473.104 51.3927 473.054 51.3539 473.025 51.3518C472.898 51.2633 472.96 51.2713 472.894 51.2685ZM470.483 46.4465L470.576 46.4999C470.65 46.5431 470.727 46.5718 470.804 46.5886C470.695 46.6345 470.588 46.684 470.481 46.737C470.483 46.6723 470.484 46.6077 470.484 46.5432L470.483 46.4465Z" fill="black"></path><path fill-rule="evenodd" clip-rule="evenodd" d="M434.429 66.0887C435.622 66.4308 436.904 66.4614 438.12 66.108C439.224 65.7875 440.357 65.082 441.169 64.1486C441.891 63.3193 442.358 62.3116 442.339 61.2359C442.337 61.113 442.293 61.0105 442.225 60.9309C442.151 60.8452 442.049 60.7864 441.939 60.7608C441.825 60.7346 441.706 60.7439 441.604 60.7896C441.512 60.8311 441.433 60.9015 441.384 61.0043C441.259 61.1666 441.135 61.3265 441.01 61.482C440.006 62.7086 439.034 63.6253 437.525 63.9541C436.706 64.1325 435.889 64.0534 435.138 63.7812C434.335 63.4898 433.609 62.9774 433.04 62.3217C432.783 62.0254 432.479 61.9045 432.183 61.9024C431.846 61.9001 431.514 62.0549 431.263 62.3021C431.017 62.5452 430.852 62.8755 430.837 63.221C430.824 63.5243 430.924 63.8411 431.19 64.1237C432.066 65.0546 433.201 65.7366 434.429 66.0887ZM434.466 50.7256C433.242 51.4617 431.378 53.1783 432.694 55.0033C434.243 56.6125 436.474 54.7674 437.573 53.933C438.593 53.2863 439.738 54.9496 438.792 55.7047C430.849 61.5257 427.626 50.9181 433.847 49.86C434.532 49.7434 434.786 50.4978 434.466 50.7256ZM445.911 47.4864C446.304 47.2374 446.767 47.152 447.28 47.3828C447.68 47.5632 448.383 48.1644 448.872 48.9547C449.206 49.4954 449.444 50.1296 449.394 50.7903C449.383 50.9438 449.44 51.0569 449.53 51.1405C449.602 51.2066 449.705 51.2552 449.826 51.2703C449.929 51.2832 450.044 51.2716 450.137 51.2427C450.315 51.1877 450.409 51.0735 450.445 50.9802C450.787 50.0801 450.64 49.0757 450.256 48.1696C449.738 46.9466 448.798 45.9223 448.181 45.592C447.127 45.0267 445.883 45.0006 444.827 45.5766C443.928 46.0668 443.366 46.8582 442.807 47.6649C442.689 47.8364 442.571 48.0066 442.449 48.1739C442.205 48.509 442.18 48.8413 442.275 49.1263C442.38 49.442 442.647 49.7085 442.981 49.8479C443.29 49.9768 443.648 49.995 443.965 49.8625C444.233 49.7507 444.479 49.5326 444.635 49.1626C444.897 48.5394 445.334 47.8519 445.911 47.4864ZM425.939 48.8727C426.208 49.0116 426.419 49.0535 426.718 48.9649C426.883 48.9158 427.046 48.8216 427.174 48.6951C427.301 48.5697 427.392 48.4137 427.428 48.2407C427.515 47.8138 427.751 47.4141 428.087 47.1535C428.375 46.9308 428.738 46.8128 429.14 46.8794C429.574 46.9511 429.988 47.2268 430.273 47.5519C430.368 47.6607 430.443 47.7842 430.518 47.9069C430.659 48.1363 430.795 48.3496 430.989 48.5181C431.062 48.5822 431.173 48.6266 431.28 48.6266C431.323 48.6266 431.368 48.6196 431.41 48.6066C431.842 48.1772 431.925 47.8514 431.911 47.5283C431.897 47.1894 431.762 46.8463 431.543 46.5262C431.032 45.7753 430.06 45.1597 429.405 45.0202C428.507 44.8293 427.616 45.0585 426.901 45.5548C426.166 46.0655 425.621 46.8583 425.451 47.7518C425.41 47.967 425.427 48.1993 425.51 48.4007C425.591 48.5974 425.732 48.766 425.939 48.8727ZM443.931 39.4806C444.47 40.0001 445.108 40.0806 445.753 40.1522C446.111 40.1923 446.397 40.2247 446.679 40.2876C447.453 40.4605 448.218 40.7209 448.916 41.096C449.645 41.4881 450.44 41.961 451.012 42.5667C451.148 42.7109 451.276 42.8621 451.405 43.0137C451.522 43.152 451.635 43.285 451.753 43.4133C451.89 43.5607 452.019 43.7152 452.148 43.8693C452.228 43.9993 452.244 44.0312 452.26 44.0645C452.284 44.1145 452.312 44.1705 452.344 44.2305C452.388 44.3128 452.44 44.4028 452.494 44.4844C452.583 44.6336 452.632 44.6747 452.673 44.6931C452.742 44.7235 452.808 44.7385 452.871 44.7304C452.931 44.7228 452.987 44.6944 453.042 44.6481C453.319 44.4168 453.4 44.0372 453.392 43.6342C453.379 43.0227 453.151 42.3457 452.941 41.9295C452.453 40.9625 451.776 39.9571 450.961 39.2354C450.032 38.4115 449.015 37.7878 447.847 37.358C447.121 37.0909 446.281 36.8456 445.49 36.8766C444.921 36.8989 444.378 37.0664 443.929 37.4846C443.654 37.7413 443.521 38.1064 443.521 38.4713C443.521 38.8435 443.659 39.2179 443.931 39.4806ZM424.843 44.2383C424.877 44.2938 424.925 44.3321 424.978 44.3551C425.033 44.3793 425.095 44.3862 425.154 44.3763C425.213 44.3665 425.269 44.34 425.314 44.2996C425.356 44.2608 425.389 44.2094 425.403 44.1464C425.761 42.5914 426.455 41.4345 427.938 40.6884C428.667 40.3214 429.505 40.0882 430.299 39.9023C430.53 39.8483 430.774 39.8133 431.019 39.7778C431.788 39.6666 432.563 39.5393 433.065 38.9238C433.367 38.553 433.494 38.0789 433.422 37.6452C433.354 37.2369 433.113 36.8626 432.675 36.6382C431.584 36.0799 430.229 36.6277 429.127 37.0944C429.046 37.129 428.965 37.163 428.887 37.1958C427.81 37.6459 426.827 38.24 426.019 39.0897C425.379 39.7637 424.785 40.7602 424.546 41.7853C424.347 42.6381 424.394 43.5088 424.843 44.2383Z" fill="black"></path><path fill-rule="evenodd" clip-rule="evenodd" d="M448.902 67.2183C447.59 64.1763 444.727 61.9406 441.431 61.1232C439.01 60.5245 436.47 60.5436 434.002 60.7813C432.709 60.9049 431.323 61.0062 430.104 61.4814C429.064 61.8875 428.216 62.6549 427.578 63.5558C426.819 64.6233 426.303 65.8451 425.941 67.0974C425.889 67.2754 425.841 67.4548 425.796 67.6351C425.953 68.5799 426.288 69.3841 427.172 69.9781C428.035 70.5582 429.064 70.7955 430.091 70.8798C430.191 70.832 430.288 70.7828 430.378 70.7324C431.977 69.8263 433.102 67.6848 435.121 67.9746C436.922 68.2334 438.108 70.4768 439.179 71.7924C442.617 72.1889 446.053 71.1662 448.851 69.22C448.993 68.5539 449.001 67.8821 448.902 67.2183ZM423.459 64.9106C423.734 64.1466 424.08 63.4066 424.491 62.7095C425.849 60.4041 427.933 58.5672 430.407 57.5172C436.259 55.0367 443.832 56.7853 448.559 60.8535C450.173 62.2442 451.806 64.2879 452.299 66.4861C452.447 66.515 452.586 66.591 452.7 66.6979C456.115 64.5698 459.632 62.5223 462.384 59.5723C464.382 57.4289 465.772 54.8924 466.623 52.105C466.693 51.8756 467.067 51.9092 467.055 52.163C467.052 52.2224 467.049 52.2816 467.045 52.341C467.081 52.2319 467.249 52.2881 467.262 52.394C467.72 55.7801 468.293 59.37 467.766 62.7737C467.45 64.8047 466.518 66.2916 465.272 67.8971C463.937 69.618 462.426 71.2187 460.88 72.7538C459.9 73.7282 458.876 74.852 457.675 75.5665C456.279 76.3965 454.694 77.0277 453.204 77.6681C451.688 78.3215 450.149 78.9252 448.581 79.4486C445.447 80.4986 442.208 81.2243 438.911 81.5422C436.272 81.7959 433.256 82.0722 430.727 81.0895C428.789 80.3365 427.224 78.9751 425.983 77.3374C424.632 75.5536 423.564 73.5218 422.973 71.3793C422.36 69.1537 423.329 65.2695 423.459 64.9106Z" fill="black"></path></svg>