<svg xmlns="http://www.w3.org/2000/svg" viewBox="0 0 1774 643" width="1774" height="643"><title>light-yello-bg-right-svg</title><style> .s0 { fill: #fff6e1 } </style><path id="Layer" class="s0" d="m867.5 42.4c0.4-24.3 20.8-43.4 45.1-42.4c47.2 1.9 122.8 4.6 182.3 4.6c93.3 0 126.8-6.6 247.5 0c120.6 6.6 92.9 0 208.9 0c68.6 0 134.7-2.3 177.2-4.2c25.4-1.1 46.7 19.6 45.9 45.1c-1.9 61.5-4.6 173.8-3.6 283.2c1.4 143.7 0 283-8 297.4c-8 14.5-318.9 20.3-406.3 14.9c-87.5-5.5-92.6 4.1-151.9 0c-53.2-3.7-102.3-0.8-111.6-0.1q-1.6 0.1-3.2 0.1h-181.8c-22.5 0-41.1-17.2-42.5-39.6c-4-62-10.4-185-6.1-282.9c4.2-95.2 6.8-213.2 8.1-276.1z"></path></svg>