<?xml version="1.0" encoding="UTF-8"?> <svg xmlns="http://www.w3.org/2000/svg" width="174" height="37" viewBox="0 0 174 37" fill="none"><path d="M47.0746 23.4175C47.0746 23.4175 48.857 25.5717 51.63 25.5717C53.5576 25.5717 55.1109 24.3189 55.1109 22.4422C55.1109 18.088 46.4252 18.9639 46.4252 13.5071C46.4252 11.0524 48.5515 9 51.8057 9C53.5067 9 56.5623 9.72826 56.5623 12.0302V13.2804H54.9097V12.4554C54.9097 11.4038 53.4583 10.6271 51.8312 10.6271C49.5394 10.6271 48.2255 11.9538 48.2255 13.4561C48.2255 17.5303 56.9112 16.5347 56.9112 22.3429C56.9112 24.9708 54.8741 27.1988 51.5816 27.1988C50.5272 27.1999 49.4845 26.9773 48.5224 26.5459C47.5603 26.1144 46.7006 25.4838 46 24.6958L47.0746 23.4175Z" fill="#0E1030"></path><path d="M60.2859 16.3361C60.2925 16.2619 60.2827 16.1871 60.2573 16.117C60.2319 16.047 60.1914 15.9834 60.1387 15.9307C60.086 15.878 60.0224 15.8375 59.9523 15.8121C59.8823 15.7866 59.8075 15.7769 59.7333 15.7835H58.6816V14.3066H60.4641C61.5412 14.3066 61.9919 14.7573 61.9919 15.7835V21.8668C61.9919 23.8428 62.3178 25.5972 64.7445 25.5972C67.599 25.5972 69.3764 23.0687 69.3764 20.339V14.3066H71.0773V24.8689C71.0673 24.9436 71.0747 25.0196 71.0987 25.091C71.1228 25.1625 71.163 25.2274 71.2161 25.2808C71.2693 25.3342 71.334 25.3747 71.4053 25.3991C71.4766 25.4235 71.5526 25.4311 71.6273 25.4215H72.679V26.8908H70.9525C69.9009 26.8908 69.4247 26.44 69.4247 25.4877V24.9122C69.4247 24.611 69.4417 24.3101 69.4757 24.0108H69.4247C69.002 24.9582 68.3138 25.7627 67.4435 26.3271C66.5731 26.8916 65.5578 27.1917 64.5204 27.1912C61.5412 27.1912 60.2909 25.5896 60.2909 22.3098L60.2859 16.3361Z" fill="#0E1030"></path><path d="M75.4278 16.3358C75.4344 16.2618 75.4247 16.1872 75.3994 16.1174C75.3742 16.0475 75.3339 15.9841 75.2815 15.9314C75.2291 15.8788 75.1658 15.8382 75.0961 15.8126C75.0263 15.787 74.9518 15.777 74.8778 15.7832H73.8262V14.3063H75.5781C76.6297 14.3063 77.1059 14.757 77.1059 15.7094V16.2849C77.1059 16.586 77.0897 16.8869 77.0575 17.1863H77.1059C77.7323 15.4827 79.7108 14.0059 81.6613 14.0059C83.9912 14.0059 85.1906 15.083 85.5674 17.1608H85.6184C85.9996 16.2417 86.6405 15.4537 87.4628 14.8933C88.285 14.333 89.2528 14.0245 90.2476 14.0059C93.3033 14.0059 94.4288 15.7883 94.4288 18.8872V24.8686C94.4182 24.9434 94.4252 25.0196 94.4491 25.0913C94.473 25.163 94.5131 25.2281 94.5664 25.2817C94.6197 25.3352 94.6847 25.3757 94.7562 25.3999C94.8278 25.4241 94.9039 25.4314 94.9788 25.4212H96.0304V26.8904H94.248C93.1709 26.8904 92.7202 26.4397 92.7202 25.3626V19.3125C92.7202 17.2601 92.2949 15.5591 89.993 15.5591C88.0909 15.5591 86.5121 17.2601 86.0131 19.124C85.8437 19.7173 85.7672 20.3332 85.7864 20.9498V26.8904H84.0855V19.3125C84.0855 17.4103 83.8104 15.5591 81.4321 15.5591C79.3798 15.5591 77.852 17.3416 77.3274 19.2641C77.1836 19.8107 77.1159 20.3745 77.1263 20.9396V26.8904H75.4253L75.4278 16.3358Z" fill="#0E1030"></path><path d="M98.8832 15.735H97.2383V14.3065H98.9163V10.8281H100.592V14.3065H103.747V15.735H100.584V22.1416C100.584 25.0954 102.463 25.4697 103.413 25.4697C103.606 25.4721 103.799 25.4559 103.989 25.4213V26.9491C103.748 26.9844 103.506 27.0015 103.263 27.0001C101.812 27.0001 98.8832 26.5239 98.8832 22.3198V15.735Z" fill="#0E1030"></path><path d="M107.117 16.3359C107.124 16.2619 107.114 16.1873 107.089 16.1175C107.064 16.0476 107.023 15.9842 106.971 15.9315C106.919 15.8789 106.855 15.8383 106.786 15.8127C106.716 15.7871 106.641 15.7771 106.567 15.7833H105.516V14.3064H107.268C108.319 14.3064 108.795 14.7317 108.795 15.7349V16.5854C108.795 16.9026 108.779 17.2196 108.747 17.5352H108.795C109.396 15.6331 110.799 14.1816 112.775 14.1816C113.003 14.1841 113.23 14.2097 113.453 14.258V15.9412C113.245 15.9103 113.036 15.8942 112.826 15.8928C111.044 15.8928 109.722 17.2933 109.172 19.1445C108.933 19.9407 108.815 20.768 108.821 21.5992V26.8905H107.117V16.3359Z" fill="#0E1030"></path><path d="M121.886 19.1374H122.586V18.9973C122.586 16.3695 121.634 15.4324 119.332 15.4324C118.706 15.4324 116.88 15.6056 116.88 16.5324V17.3345H115.253V16.1327C115.253 14.3808 118.255 14.0039 119.358 14.0039C123.338 14.0039 124.287 16.1327 124.287 18.842V24.8718C124.277 24.9467 124.285 25.023 124.309 25.0946C124.333 25.1662 124.373 25.2313 124.427 25.2848C124.48 25.3382 124.545 25.3786 124.617 25.4029C124.689 25.4271 124.765 25.4344 124.84 25.4243H125.889V26.891H124.163C123.088 26.891 122.66 26.4149 122.66 25.3887C122.66 24.8387 122.686 24.4618 122.686 24.4618H122.637C122.292 25.2821 121.71 25.9804 120.965 26.4669C120.22 26.9533 119.346 27.2057 118.456 27.1915C116.353 27.1915 114.176 25.9642 114.176 23.4611C114.176 19.2876 119.709 19.1374 121.886 19.1374ZM118.731 25.7579C121.135 25.7579 122.586 23.2548 122.586 21.0751V20.4997H121.861C119.882 20.4997 115.928 20.5506 115.928 23.3796C115.928 24.5458 116.844 25.7477 118.731 25.7477V25.7579Z" fill="#0E1030"></path><path d="M134.05 14.0059C135.479 14.0059 138.532 14.6068 138.532 16.6846V17.8127H136.93V17.0844C136.93 16.0353 135.102 15.5337 134.05 15.5337C131.349 15.5337 129.169 17.5708 129.169 20.6137C129.169 23.7177 131.461 25.6453 134.101 25.6453C134.863 25.6413 135.616 25.4811 136.313 25.1745C137.01 24.8679 137.637 24.4215 138.155 23.8628L138.957 25.136C138.321 25.8003 137.555 26.3257 136.706 26.6789C135.857 27.0322 134.944 27.2056 134.025 27.1884C130.271 27.1884 127.404 24.5096 127.404 20.6035C127.417 16.761 130.297 14.0059 134.05 14.0059Z" fill="#0E1030"></path><path d="M141.66 11.3302C141.667 11.2562 141.657 11.1817 141.632 11.1118C141.607 11.042 141.566 10.9785 141.514 10.9259C141.462 10.8732 141.398 10.8327 141.328 10.8071C141.259 10.7815 141.184 10.7714 141.11 10.7777H140.059V9.30078H141.841C142.916 9.30078 143.369 9.67764 143.369 10.7522V19.1145H144.67C144.938 19.1263 145.205 19.0785 145.452 18.9746C145.699 18.8706 145.92 18.7132 146.099 18.5135L149.327 14.3069H151.405L147.774 18.9133C147.15 19.6899 146.824 19.8147 146.824 19.8147V19.8656C146.824 19.8656 147.199 20.0388 147.588 20.79L149.865 24.8641C150.089 25.2919 150.341 25.4167 151.016 25.4167H151.693V26.891H150.516C149.264 26.891 148.912 26.6899 148.337 25.6382L145.836 21.1337C145.559 20.6244 144.958 20.5837 144.51 20.5837H143.356V26.891H141.655L141.66 11.3302Z" fill="#0E1030"></path><path d="M158.982 14.0059C162.463 14.0059 164.264 16.6846 164.264 19.8141C164.264 20.1146 164.215 20.6646 164.215 20.6646H154.552C154.603 23.8425 156.831 25.6707 159.433 25.6707C160.844 25.6485 162.194 25.0947 163.214 24.12L164.04 25.3932C162.752 26.5385 161.093 27.1797 159.369 27.1986C155.639 27.1986 152.787 24.4943 152.787 20.6137C152.777 16.486 155.603 14.0059 158.982 14.0059ZM162.512 19.3125C162.425 16.705 160.811 15.4318 158.957 15.4318C156.882 15.4318 155.053 16.7814 154.628 19.3099L162.512 19.3125Z" fill="#0E1030"></path><path d="M167.666 16.3359C167.673 16.2619 167.663 16.1873 167.638 16.1175C167.612 16.0476 167.572 15.9842 167.52 15.9315C167.467 15.8789 167.404 15.8383 167.334 15.8127C167.265 15.7871 167.19 15.7771 167.116 15.7833H166.064V14.3064H167.816C168.868 14.3064 169.344 14.7317 169.344 15.7349V16.5854C169.344 16.9027 169.327 17.2197 169.293 17.5352H169.344C169.945 15.6331 171.346 14.1816 173.324 14.1816C173.551 14.1839 173.777 14.2095 173.999 14.258V15.9412C173.792 15.9104 173.584 15.8942 173.375 15.8928C171.593 15.8928 170.271 17.2933 169.721 19.1445C169.481 19.9404 169.363 20.7679 169.37 21.5992V26.8905H167.666V16.3359Z" fill="#0E1030"></path><path d="M36.3516 5.33275C36.2422 5.03258 36.1129 4.74001 35.9647 4.45697C35.6002 3.73836 35.1273 3.08006 34.5628 2.50514L34.522 2.4678C33.7124 1.65559 32.7344 1.03101 31.6571 0.638164C29.6611 -9.30707e-07 27.8043 0 24.0941 0H12.8923C9.17872 0 7.32532 2.02328e-07 5.32596 0.631376C4.24844 1.02348 3.26996 1.64703 2.45945 2.45813C1.64894 3.26923 1.02609 4.24815 0.634772 5.32596C9.30707e-07 7.32532 0 9.17871 0 12.8923V24.0941C0 27.8077 9.30707e-07 29.6611 0.634772 31.6605C1.02846 32.7364 1.65296 33.7132 2.4644 34.522L2.49835 34.5628C3.07559 35.1322 3.736 35.6106 4.45697 35.9817C4.74643 36.1212 5.04333 36.2447 5.34633 36.3517C7.33211 37 9.1855 37 12.8991 37H24.1009C27.8111 37 29.6679 37 31.6639 36.3686C32.7418 35.9765 33.7207 35.353 34.5318 34.542C35.3428 33.7309 35.9663 32.752 36.3584 31.674C36.9898 29.6747 36.9898 27.8213 36.9898 24.1077V12.8991C36.983 9.18551 36.983 7.33211 36.3516 5.33275Z" fill="#7D7AB9"></path><path d="M12.997 10.8102C12.9189 16.0954 18.9645 22.7859 14.1545 27.0291C16.0859 30.1045 18.1871 30.9769 19.9048 29.7447C21.0521 28.9232 21.9041 26.9374 22.8681 24.8803C28.7237 16.8761 25.0814 21.0514 22.5559 11.3465C22.0263 10.5658 11.0587 7.84338 12.997 10.8102Z" fill="#CA9765"></path><path d="M22.3994 10.9082C22.1572 12.5648 22.4129 14.256 23.1339 15.767C23.855 17.278 25.0089 18.5406 26.449 19.3944" stroke="#EEEFEF" stroke-width="0.483815" stroke-linejoin="round"></path><path d="M30.3865 13.3029C31.0654 10.8012 29.0287 9.7285 24.8704 10.516C24.0693 10.6688 23.0849 10.5398 22.7149 10.9641C21.0177 12.9125 24.7923 19.3621 26.6763 19.1346C27.9017 18.9887 29.4156 16.9248 30.3865 13.3029Z" fill="#EEEFEF"></path><path d="M17.9435 14.6464C17.9586 14.7625 18.0017 14.8731 18.0691 14.9689C18.1931 15.0972 18.3626 15.1716 18.5409 15.1759C18.7067 15.1932 18.874 15.1625 19.023 15.0877C19.0973 15.0491 19.163 14.9958 19.2161 14.931C19.2692 14.8662 19.3086 14.7913 19.3319 14.7109C19.3488 14.6246 19.3488 14.5358 19.3319 14.4495C19.3137 14.3453 19.2741 14.2459 19.2157 14.1577C19.1573 14.0695 19.0813 13.9944 18.9924 13.9369C18.9047 13.8788 18.804 13.8431 18.6992 13.833C18.5944 13.823 18.4888 13.8388 18.3916 13.8792C18.3916 13.8792 17.8451 14.1474 17.9435 14.6464Z" fill="#0E1030"></path><path d="M17.7783 14.691C17.7912 14.7912 17.824 14.8879 17.8747 14.9753C17.9254 15.0627 17.993 15.1392 18.0736 15.2002C18.2442 15.3066 18.443 15.3587 18.6439 15.3495C18.8561 15.3594 19.0642 15.288 19.2256 15.1499C19.3871 15.0118 19.4898 14.8173 19.5129 14.6061C19.5225 14.402 19.4631 14.2005 19.3443 14.0343C19.2254 13.868 19.054 13.7466 18.8577 13.6896C18.7378 13.6587 18.6124 13.6558 18.4911 13.6811C18.3699 13.7064 18.256 13.7593 18.1585 13.8356C18.0192 13.9261 17.9091 14.0551 17.8416 14.2069C17.7741 14.3588 17.7521 14.5269 17.7783 14.691C17.7902 14.7341 17.8186 14.7707 17.8574 14.7929C17.8962 14.8152 17.9422 14.8212 17.9854 14.8098C18.028 14.7971 18.064 14.7686 18.0862 14.73C18.1083 14.6915 18.1147 14.6459 18.1042 14.6027C18.1042 14.545 18.1042 14.6299 18.1042 14.5756V14.4907C18.1042 14.4907 18.1042 14.4568 18.1042 14.4907C18.1022 14.4647 18.1022 14.4386 18.1042 14.4126C18.1056 14.4002 18.1056 14.3877 18.1042 14.3753V14.3481L18.1449 14.2836C18.1455 14.2757 18.1455 14.2678 18.1449 14.2599C18.1721 14.2225 18.1245 14.2836 18.1449 14.2599C18.174 14.2257 18.2058 14.1939 18.2399 14.1648L18.2875 14.1241H18.3044C18.33 14.1047 18.3573 14.0877 18.3859 14.0732L18.4266 14.0494C18.4436 14.0494 18.3655 14.0494 18.4266 14.0494C18.4587 14.0387 18.4917 14.0308 18.5251 14.0257C18.654 14.0152 18.7824 14.0517 18.8866 14.1284C18.9908 14.2051 19.0637 14.3169 19.092 14.4432C19.1102 14.5068 19.1142 14.5737 19.1037 14.6391C19.0932 14.7045 19.0684 14.7667 19.0312 14.8215C18.9939 14.8762 18.9451 14.9221 18.8882 14.9559C18.8312 14.9896 18.7675 15.0105 18.7016 15.0169C18.5538 15.048 18.4 15.0338 18.2603 14.9761C18.1986 14.9419 18.1461 14.8931 18.1077 14.8339C18.0692 14.7747 18.0458 14.707 18.0397 14.6367C18.0278 14.5936 17.9993 14.557 17.9606 14.5347C17.9218 14.5125 17.8758 14.5064 17.8326 14.5179C17.8081 14.5386 17.79 14.5659 17.7804 14.5966C17.7708 14.6272 17.77 14.6599 17.7783 14.691Z" fill="#0E1030"></path><path d="M27.727 9.8439C27.7473 10.3123 27.8152 10.9267 28.1377 11.2967C28.2886 11.4617 28.4956 11.5646 28.7182 11.5853C28.9453 11.596 29.1729 11.5823 29.3971 11.5445C29.9877 11.497 29.7671 12.2947 29.9096 12.6511C29.9907 12.8468 30.1299 13.0129 30.3083 13.1271C30.4868 13.2412 30.696 13.2978 30.9076 13.2893C31.1249 13.2893 31.1283 12.9499 30.9076 12.9499C30.8142 12.9563 30.7204 12.9434 30.6322 12.9118C30.544 12.8803 30.4632 12.8308 30.3951 12.7666C30.3211 12.6944 30.2629 12.6077 30.2244 12.5118C30.1858 12.416 30.1676 12.3131 30.171 12.2099C30.154 11.8331 30.1235 11.368 29.6992 11.2322C29.2749 11.0965 28.8913 11.3884 28.5179 11.1711C28.427 11.1057 28.3501 11.0228 28.2918 10.9271C28.2335 10.8315 28.195 10.7252 28.1784 10.6144C28.1089 10.363 28.0679 10.1045 28.0562 9.8439C28.0562 9.62665 27.7168 9.62326 27.7168 9.8439H27.727Z" fill="#0E1030"></path><path d="M31.3857 12.018C31.3857 11.9603 31.3857 11.9026 31.3857 11.8449C31.4942 11.4597 31.4739 11.0497 31.328 10.6772C31.328 10.6772 31.328 10.6772 31.328 10.6772C31.3432 10.6466 31.3511 10.6129 31.3511 10.5787C31.3511 10.5446 31.3432 10.5109 31.328 10.4803L31.2872 10.4124C31.3111 10.3744 31.3221 10.3298 31.3184 10.2851C31.3147 10.2404 31.2966 10.1981 31.2669 10.1646C31.1108 9.97525 30.9134 9.82428 30.6898 9.72331C30.5337 9.65202 30.3164 9.55698 30.1603 9.65881H29.9736C29.9669 9.61669 29.9439 9.57888 29.9096 9.55349C29.8754 9.52811 29.8325 9.51717 29.7903 9.52303H29.7393C29.4249 9.57131 29.107 9.59402 28.7889 9.59092C28.5029 9.61302 28.2332 9.73288 28.0251 9.93037C27.9939 9.96474 27.9766 10.0095 27.9766 10.056C27.9766 10.1024 27.9939 10.1472 28.0251 10.1816C28.0194 10.2899 28.0492 10.3972 28.11 10.4871C28.178 10.77 28.283 11.0428 28.4223 11.2984C28.4363 11.3218 28.4553 11.3418 28.478 11.3569C28.5007 11.372 28.5265 11.3819 28.5534 11.3858C28.5804 11.3897 28.608 11.3876 28.634 11.3795C28.6601 11.3714 28.684 11.3576 28.704 11.3391C28.7591 11.3629 28.8196 11.3717 28.8793 11.3646C28.9389 11.3574 28.9956 11.3346 29.0435 11.2984C29.0435 11.2984 29.0435 11.2984 29.0672 11.2746C29.1359 11.2844 29.2056 11.2844 29.2743 11.2746C29.2924 11.3032 29.3168 11.3272 29.3456 11.3449C29.3744 11.3625 29.407 11.3733 29.4406 11.3764C29.5875 11.375 29.7331 11.4039 29.8683 11.4613C29.8838 11.8017 29.9681 12.1354 30.1161 12.4423C30.1258 12.4601 30.1384 12.4762 30.1535 12.4898C30.1877 12.6061 30.2309 12.7196 30.2825 12.8293C30.295 12.854 30.3137 12.8751 30.3368 12.8904L30.3571 12.9243C30.3716 12.9442 30.3898 12.961 30.4108 12.9738C30.4318 12.9867 30.4551 12.9952 30.4793 12.999C30.5401 13.0464 30.6164 13.0694 30.6932 13.0635C30.7475 13.0622 30.8004 13.0457 30.8459 13.016C30.8845 13.0191 30.9232 13.0113 30.9575 12.9932C30.9918 12.9752 31.0202 12.9477 31.0394 12.9141C31.067 12.8597 31.0897 12.8029 31.1073 12.7444L31.1447 12.724C31.2307 12.6289 31.2965 12.5172 31.3379 12.3958C31.3793 12.2744 31.3956 12.1459 31.3857 12.018Z" fill="#0E1030"></path><path d="M9.01953 10.3627C11.0562 9.88748 12.0746 9.77546 14.1452 9.45978C14.8286 9.31992 15.5301 9.29126 16.2227 9.37491C17.0204 9.51069 17.7366 9.92482 18.497 10.1998C20.459 10.9126 22.6281 10.6818 24.6885 10.3593C26.0124 10.1489 27.3306 9.90332 28.6431 9.62271C29.4035 9.45978 30.2623 9.30363 30.9004 9.74491C31.1339 9.92772 31.3197 10.1643 31.4421 10.4344C31.5644 10.7045 31.6197 11.0001 31.6031 11.2962C31.5643 11.8884 31.4037 12.4662 31.1313 12.9934C29.7463 16.0112 27.36 18.4246 25.3369 21.0622C23.0932 23.9928 21.2771 27.2272 19.943 30.6686" stroke="#0E1030" stroke-width="1.20954" stroke-linecap="round" stroke-linejoin="round"></path><path d="M8.81803 27.4252C10.0706 27.7069 11.3775 27.5372 12.6402 27.2894C13.18 27.2087 13.7057 27.0521 14.2017 26.8243C14.6707 26.5559 15.0748 26.1874 15.3852 25.745C15.6956 25.3026 15.9046 24.7973 15.9974 24.2649C16.1738 23.1973 16.0911 22.103 15.7564 21.074C15.4577 20.0387 15.0164 19.0373 14.6464 18.0394C14.1449 16.6736 13.7699 15.2646 13.5262 13.8302C13.3429 12.744 13.2309 11.634 12.8269 10.6122C12.7676 10.4065 12.6496 10.2225 12.4875 10.0827C12.2667 9.95926 12.0115 9.91157 11.7611 9.94689C10.6971 9.97921 9.64273 10.1586 8.62793 10.4798C8.03309 10.7204 7.55402 11.1813 7.2905 11.7663C7.03586 12.3482 6.86445 12.9629 6.78133 13.5926C6.65913 14.3122 6.5539 15.0318 6.44188 15.7515L5.96665 18.9525C5.72904 20.5683 5.49142 22.184 5.40995 23.8168C5.37016 24.2285 5.39189 24.6438 5.47445 25.049C5.71206 26.0538 6.70326 26.9431 8.81803 27.4252Z" fill="#0E1030"></path><path d="M8.7054 27.8344C9.56868 28.0118 10.4555 28.0439 11.3293 27.9294C12.1807 27.8532 13.0215 27.687 13.8379 27.4338C14.5324 27.1781 15.1433 26.7363 15.6037 26.1568C16.0641 25.5773 16.3562 24.8823 16.4482 24.1479C16.7198 22.393 16.136 20.7059 15.508 19.0969C14.8522 17.4871 14.351 15.8185 14.011 14.1138C13.8515 13.2754 13.7598 12.4166 13.5697 11.5883C13.4754 11.1607 13.3425 10.7426 13.1726 10.3391C13.1058 10.154 12.9959 9.98753 12.8518 9.8535C12.7077 9.71948 12.5337 9.62179 12.3443 9.56858C11.9405 9.50578 11.5295 9.50578 11.1257 9.56858C10.7048 9.60592 10.2838 9.66024 9.86971 9.73831C9.09916 9.88088 8.28109 10.0472 7.67008 10.5666C7.1119 11.09 6.72598 11.7707 6.56348 12.5184C6.36279 13.3713 6.21092 14.2349 6.10861 15.105C5.84045 16.8871 5.56889 18.6692 5.32448 20.4513C5.20228 21.3509 5.09026 22.2538 5.02237 23.1669C4.96467 23.9035 4.87302 24.7114 5.13779 25.4209C5.54173 26.5105 6.56687 27.1453 7.61237 27.5289C7.96947 27.6577 8.33459 27.7632 8.7054 27.8445C9.23834 27.9667 9.46577 27.1487 8.93283 27.0265C8.30357 26.8991 7.69555 26.6831 7.12696 26.3849C6.92406 26.2759 6.73295 26.1462 6.55668 25.9979C6.47182 25.9233 6.39375 25.8452 6.31568 25.7637L6.22063 25.6517C6.22063 25.6517 6.17311 25.5872 6.22063 25.6517L6.17311 25.5838C6.11809 25.5021 6.06821 25.4171 6.02375 25.3292C6.00249 25.2906 5.98323 25.251 5.96604 25.2104C5.99999 25.2851 5.94907 25.1595 5.94228 25.1357C5.85201 24.8413 5.81185 24.5338 5.82348 24.226C5.84552 23.4051 5.9101 22.586 6.01696 21.7718C6.20705 20.1187 6.47522 18.4757 6.71623 16.8294C6.83843 16.0045 6.95724 15.1763 7.08962 14.3514C7.16622 13.5844 7.34076 12.8303 7.60898 12.1077C7.71338 11.8235 7.87779 11.5651 8.091 11.3501C8.30422 11.1351 8.56124 10.9686 8.84458 10.8619C9.55044 10.6463 10.2758 10.5007 11.0103 10.4274C11.3646 10.3682 11.7251 10.3545 12.0829 10.3867C12.3816 10.4376 12.4597 10.8178 12.5412 11.0656C12.7656 11.8182 12.9279 12.5879 13.0266 13.367C13.2676 14.9745 13.6644 16.5547 14.2113 18.0854C14.751 19.5688 15.4876 21.0386 15.6438 22.6306C15.7693 23.9273 15.4774 25.3971 14.3776 26.2254C13.7955 26.5966 13.1358 26.8289 12.4495 26.9043C11.6686 27.072 10.8721 27.1562 10.0734 27.1555C9.68518 27.1505 9.29848 27.1062 8.91925 27.0231C8.40329 26.9009 8.17247 27.7189 8.7054 27.8344Z" fill="#0E1030"></path><path d="M14.0977 27.2754C14.0977 27.2754 16.3957 30.4221 20.0414 30.3847Z" fill="#EEEFEF"></path><path d="M14.0977 27.2754C14.0977 27.2754 16.3957 30.4221 20.0414 30.3847" stroke="#0E1030" stroke-width="1.93526" stroke-linecap="round" stroke-linejoin="round"></path></svg> 