<svg xmlns="http://www.w3.org/2000/svg" viewBox="0 0 174 37" width="174" height="37"><title>Log-svg</title><style> .s0 { fill: #ffffff } .s1 { fill: #7d7ab9 } .s2 { fill: #ca9765 } .s3 { fill: none;stroke: #eeefef;stroke-linejoin: round;stroke-width: .5 } .s4 { fill: #eeefef } .s5 { fill: #0e1030 } .s6 { fill: none;stroke: #0e1030;stroke-linecap: round;stroke-linejoin: round;stroke-width: 1.2 } .s7 { fill: none;stroke: #0e1030;stroke-linecap: round;stroke-linejoin: round;stroke-width: 1.9 } </style><path id="Layer" class="s0" d="m47.1 23.4c0 0 1.8 2.2 4.5 2.2 2 0 3.5-1.3 3.5-3.2 0-4.3-8.7-3.4-8.7-8.9 0-2.4 2.2-4.5 5.4-4.5 1.7 0 4.8 0.7 4.8 3v1.3h-1.7v-0.8c0-1.1-1.4-1.9-3.1-1.9-2.3 0-3.6 1.4-3.6 2.9 0 4 8.7 3 8.7 8.8 0 2.7-2 4.9-5.3 4.9-1.1 0-2.1-0.2-3.1-0.7-0.9-0.4-1.8-1-2.5-1.8z"></path><path id="Layer" class="s0" d="m60.3 16.3q0-0.1 0-0.2-0.1-0.1-0.2-0.2 0 0-0.1-0.1-0.2 0-0.3 0h-1v-1.5h1.8c1 0 1.5 0.5 1.5 1.5v6.1c0 1.9 0.3 3.7 2.7 3.7 2.9 0 4.7-2.5 4.7-5.3v-6h1.7v10.6q0 0.1 0 0.2 0 0.1 0.1 0.2 0.1 0.1 0.2 0.1 0.1 0 0.2 0h1.1v1.5h-1.7c-1.1 0-1.6-0.5-1.6-1.4v-0.6q0-0.4 0.1-0.9h-0.1c-0.4 1-1.1 1.8-2 2.3-0.8 0.6-1.8 0.9-2.9 0.9-3 0-4.2-1.6-4.2-4.9z"></path><path id="Layer" class="s0" d="m75.4 16.3q0-0.1 0-0.2 0-0.1-0.1-0.2-0.1 0-0.2-0.1-0.1 0-0.2 0h-1.1v-1.5h1.8c1 0 1.5 0.5 1.5 1.4v0.6q0 0.4 0 0.9c0.6-1.7 2.6-3.2 4.6-3.2 2.3 0 3.5 1.1 3.9 3.2 0.4-1 1-1.7 1.9-2.3 0.8-0.6 1.8-0.9 2.7-0.9 3.1 0 4.2 1.8 4.2 4.9v6q0 0.1 0 0.2 0.1 0.1 0.2 0.2 0 0.1 0.2 0.1 0.1 0 0.2 0h1v1.5h-1.8c-1 0-1.5-0.5-1.5-1.5v-6.1c0-2-0.4-3.7-2.7-3.7-1.9 0-3.5 1.7-4 3.5q-0.2 0.9-0.2 1.8v6h-1.7v-7.6c0-1.9-0.3-3.7-2.7-3.7-2 0-3.5 1.7-4.1 3.7q-0.2 0.8-0.2 1.6v6h-1.7z"></path><path id="Layer" class="s0" d="m98.9 15.7h-1.7v-1.4h1.7v-3.5h1.7v3.5h3.1v1.4h-3.1v6.4c0 3 1.9 3.4 2.8 3.4q0.3 0 0.6-0.1v1.5q-0.4 0.1-0.7 0.1c-1.5 0-4.4-0.5-4.4-4.7z"></path><path id="Layer" class="s0" d="m107.1 16.3q0-0.1 0-0.2 0-0.1-0.1-0.2-0.1 0-0.2-0.1-0.1 0-0.2 0h-1.1v-1.5h1.8c1 0 1.5 0.4 1.5 1.4v0.9q0 0.5-0.1 0.9h0.1c0.6-1.9 2-3.3 4-3.3q0.3 0 0.7 0.1v1.6q-0.4 0-0.7 0c-1.8 0-3.1 1.4-3.6 3.2q-0.4 1.2-0.4 2.5v5.3h-1.7z"></path><path id="Layer" fill-rule="evenodd" class="s0" d="m121.9 19.1h0.7v-0.1c0-2.6-1-3.6-3.3-3.6-0.6 0-2.4 0.2-2.4 1.1v0.8h-1.6v-1.2c0-1.7 3-2.1 4.1-2.1 3.9 0 4.9 2.1 4.9 4.8v6.1q0 0.1 0 0.2 0 0.1 0.1 0.2 0.1 0.1 0.2 0.1 0.1 0 0.2 0h1.1v1.5h-1.7c-1.1 0-1.5-0.5-1.5-1.5 0-0.6 0-0.9 0-0.9h-0.1c-0.3 0.8-0.9 1.5-1.6 2-0.8 0.5-1.7 0.7-2.5 0.7-2.1 0-4.3-1.2-4.3-3.7 0-4.2 5.5-4.4 7.7-4.4zm-3.2 6.7c2.4 0 3.9-2.5 3.9-4.7v-0.6h-0.7c-2 0-6 0.1-6 2.9 0 1.1 0.9 2.3 2.8 2.3z"></path><path id="Layer" class="s0" d="m134.1 14c1.4 0 4.4 0.6 4.4 2.7v1.1h-1.6v-0.7c0-1.1-1.8-1.6-2.8-1.6-2.8 0-4.9 2.1-4.9 5.1 0 3.1 2.3 5 4.9 5q1.2 0 2.2-0.4 1.1-0.5 1.9-1.3l0.8 1.2q-1 1-2.3 1.6-1.3 0.5-2.7 0.5c-3.7 0-6.6-2.7-6.6-6.6 0-3.8 2.9-6.6 6.7-6.6z"></path><path id="Layer" class="s0" d="m141.7 11.3q0-0.1-0.1-0.2 0-0.1-0.1-0.2-0.1-0.1-0.2-0.1-0.1 0-0.2 0h-1v-1.5h1.7c1.1 0 1.6 0.4 1.6 1.5v8.3h1.3q0.4 0 0.8-0.1 0.3-0.2 0.6-0.5l3.2-4.2h2.1l-3.6 4.6c-0.6 0.8-1 0.9-1 0.9v0.1c0 0 0.4 0.1 0.8 0.9l2.3 4.1c0.2 0.4 0.4 0.5 1.1 0.5h0.7v1.5h-1.2c-1.2 0-1.6-0.2-2.2-1.3l-2.5-4.5c-0.2-0.5-0.8-0.5-1.3-0.5h-1.1v6.3h-1.7z"></path><path id="Layer" fill-rule="evenodd" class="s0" d="m159 14c3.5 0 5.3 2.7 5.3 5.8 0 0.3-0.1 0.9-0.1 0.9h-9.6c0 3.1 2.2 5 4.8 5 1.4-0.1 2.8-0.6 3.8-1.6l0.8 1.3c-1.2 1.1-2.9 1.8-4.6 1.8-3.8 0-6.6-2.7-6.6-6.6 0-4.1 2.8-6.6 6.2-6.6zm3.5 5.3c-0.1-2.6-1.7-3.9-3.5-3.9-2.1 0-3.9 1.4-4.4 3.9z"></path><path id="Layer" class="s0" d="m167.7 16.3q0-0.1-0.1-0.2 0-0.1-0.1-0.2-0.1 0-0.2-0.1-0.1 0-0.2 0h-1v-1.5h1.7c1.1 0 1.5 0.4 1.5 1.4v0.9q0 0.5 0 0.9c0.6-1.9 2-3.3 4-3.3q0.4 0 0.7 0.1v1.6q-0.3 0-0.6 0c-1.8 0-3.1 1.4-3.7 3.2q-0.3 1.2-0.3 2.5v5.3h-1.7z"></path><path id="Layer" class="s1" d="m37 12.9v11.2c0 3.7 0 5.6-0.6 7.6-0.4 1.1-1.1 2-1.9 2.8-0.8 0.9-1.8 1.5-2.8 1.9-2 0.6-3.9 0.6-7.6 0.6h-11.2c-3.7 0-5.6 0-7.6-0.6q-0.4-0.2-0.8-0.4-1.1-0.6-2-1.4v-0.1c-0.8-0.8-1.5-1.8-1.9-2.8-0.6-2-0.6-3.9-0.6-7.6v-11.2c0-3.7 0-5.6 0.6-7.6 0.4-1.1 1-2 1.9-2.8 0.8-0.9 1.7-1.5 2.8-1.9 2-0.6 3.9-0.6 7.6-0.6h11.2c3.7 0 5.6 0 7.6 0.6 1 0.4 2 1.1 2.8 1.9h0.1q0.8 0.9 1.4 2 0.2 0.4 0.4 0.8c0.6 2 0.6 3.9 0.6 7.6z"></path><path id="Layer" class="s2" d="m22.6 11.3c2.5 9.8 6.1 5.6 0.3 13.6-1 2-1.8 4-3 4.8-1.7 1.3-3.8 0.4-5.7-2.7 4.8-4.2-1.3-10.9-1.2-16.2-1.9-3 9-0.2 9.6 0.5z"></path><path id="Layer" class="s3" d="m26.4 19.4c-1.4-0.9-2.5-2.1-3.3-3.6-0.7-1.5-0.9-3.2-0.7-4.9"></path><path id="Layer" class="s4" d="m26.7 19.1c-1.9 0.3-5.7-6.2-4-8.1 0.4-0.5 1.4-0.3 2.2-0.5 4.1-0.8 6.2 0.3 5.5 2.8-1 3.6-2.5 5.7-3.7 5.8z"></path><path id="Layer" class="s5" d="m18.4 13.9q0.1-0.1 0.3-0.1 0.2 0 0.3 0.1 0.1 0.1 0.2 0.3 0.1 0.1 0.1 0.2 0.1 0.2 0 0.3 0 0.1-0.1 0.2-0.1 0.1-0.2 0.2-0.2 0.1-0.5 0.1-0.2 0-0.4-0.2-0.1-0.2-0.2-0.4c-0.1-0.5 0.5-0.7 0.5-0.7z"></path><path id="Layer" class="s5" d="m17.8 14.6q0-0.1 0-0.1 0.1 0 0.2 0 0 0.1 0 0.1 0 0.1 0.1 0.2 0.1 0.1 0.2 0.2 0.2 0.1 0.4 0 0.1 0 0.2 0 0.1-0.1 0.1-0.2 0.1-0.1 0.1-0.2 0-0.1 0-0.2-0.1-0.2-0.2-0.3-0.2-0.1-0.4-0.1 0 0-0.1 0c0 0 0 0 0 0v0.1q-0.1 0-0.1 0l-0.1 0.1q0 0-0.1 0.1c0 0 0.1-0.1 0 0q0 0 0 0v0.1q0 0 0 0 0 0.1 0 0.1c0 0 0 0 0 0v0.1c0 0 0-0.1 0 0q0 0.1 0 0.1 0 0.1-0.1 0.1-0.1 0-0.1 0-0.1 0-0.1-0.1-0.1-0.3 0-0.5 0.1-0.2 0.4-0.4 0.1-0.1 0.3-0.1 0.2-0.1 0.4 0 0.3 0.1 0.4 0.3 0.2 0.3 0.2 0.6 0 0.3-0.3 0.5-0.2 0.3-0.6 0.2-0.3 0.1-0.5-0.1-0.1-0.1-0.2-0.2-0.1-0.2-0.1-0.3 0-0.1 0-0.1z"></path><path id="Layer" class="s5" d="m27.7 9.8c0-0.2 0.4-0.2 0.4 0q0 0.4 0.1 0.8 0 0.2 0.1 0.3 0.1 0.2 0.2 0.3c0.4 0.2 0.8-0.1 1.2 0 0.4 0.2 0.5 0.6 0.5 1q0 0.2 0 0.3 0.1 0.2 0.2 0.3 0.1 0.1 0.2 0.1 0.2 0.1 0.3 0c0.2 0 0.2 0.4 0 0.4q-0.3 0-0.6-0.2-0.3-0.1-0.4-0.4c-0.1-0.4 0.1-1.2-0.5-1.2q-0.3 0.1-0.7 0.1-0.3-0.1-0.6-0.3c-0.3-0.4-0.4-1-0.4-1.5z"></path><path id="Layer" class="s5" d="m31.3 12.4q0 0.2-0.2 0.3 0 0.1-0.1 0.2 0 0.1 0 0.1-0.1 0-0.2 0 0 0.1-0.1 0.1-0.1 0-0.2-0.1-0.1 0-0.1 0 0 0 0-0.1h-0.1q0 0 0-0.1-0.1-0.1-0.1-0.3-0.1 0-0.1-0.1-0.2-0.4-0.2-0.9-0.2-0.1-0.5-0.1 0 0-0.1-0.1 0 0 0 0-0.1 0-0.2 0-0.1 0-0.1 0 0 0.1-0.1 0.1-0.1 0-0.2-0.1 0 0.1-0.1 0.1 0 0 0 0-0.1 0-0.1 0-0.1-0.1-0.1-0.1-0.2-0.4-0.3-0.8-0.1-0.2-0.1-0.3 0-0.1 0-0.1 0-0.1 0-0.2 0.3-0.3 0.8-0.3 0.5 0 0.9-0.1h0.1q0.1 0 0.1 0.1 0.1 0 0.1 0.1h0.2c0.1-0.1 0.3 0 0.5 0q0.3 0.2 0.6 0.5 0 0 0 0.1 0 0.1 0 0.1v0.1q0.1 0 0.1 0.1 0 0-0.1 0.1 0.2 0.6 0.1 1.1 0 0.1 0 0.2 0 0.2-0.1 0.4z"></path><path id="Layer" class="s6" d="m9 10.4c2.1-0.5 3.1-0.6 5.1-0.9q1.1-0.3 2.1-0.1c0.8 0.1 1.5 0.5 2.3 0.8 2 0.7 4.1 0.5 6.2 0.2q2-0.4 3.9-0.8c0.8-0.1 1.7-0.3 2.3 0.1q0.4 0.3 0.5 0.7 0.2 0.4 0.2 0.9-0.1 0.9-0.5 1.7c-1.4 3-3.7 5.4-5.8 8.1-2.2 2.9-4 6.1-5.4 9.6"></path><path id="Layer" class="s5" d="m5.5 25q-0.1-0.6-0.1-1.2c0.1-1.6 0.3-3.2 0.6-4.8l0.4-3.2q0.2-1.1 0.4-2.2 0.1-1 0.5-1.8c0.3-0.6 0.7-1.1 1.3-1.3q1.6-0.5 3.2-0.6 0.3 0 0.7 0.2 0.2 0.2 0.3 0.5c0.4 1 0.5 2.1 0.7 3.2q0.4 2.2 1.1 4.2c0.4 1 0.9 2 1.2 3.1 0.3 1 0.4 2.1 0.2 3.2q-0.1 0.8-0.6 1.4-0.5 0.7-1.2 1.1-0.7 0.4-1.6 0.5c-1.2 0.2-2.5 0.4-3.8 0.1-2.1-0.5-3.1-1.3-3.3-2.4z"></path><path id="Layer" class="s5" d="m8.9 27q0.6 0.1 1.2 0.2 1.2 0 2.3-0.3 1.1-0.1 2-0.7c1.1-0.8 1.4-2.3 1.2-3.6-0.1-1.6-0.8-3-1.4-4.5q-0.8-2.3-1.2-4.7-0.1-1.2-0.5-2.3c0-0.3-0.1-0.7-0.4-0.7q-0.6-0.1-1.1 0-1.1 0.1-2.2 0.5-0.4 0.1-0.7 0.5-0.3 0.3-0.5 0.7-0.4 1.1-0.5 2.3-0.2 1.2-0.4 2.4c-0.2 1.7-0.5 3.3-0.7 5q-0.1 1.2-0.2 2.4 0 0.5 0.1 0.9c0 0.1 0.1 0.2 0.1 0.1q0 0.1 0 0.1 0.1 0.2 0.2 0.3v0.1c0-0.1 0 0 0 0l0.1 0.1q0.1 0.1 0.3 0.2 0.2 0.2 0.5 0.4 0.9 0.4 1.8 0.6c0.6 0.1 0.3 1-0.2 0.8q-0.6-0.1-1.1-0.3c-1-0.4-2.1-1-2.5-2.1-0.2-0.7-0.1-1.5-0.1-2.2q0.1-1.4 0.3-2.7 0.4-2.7 0.8-5.4 0.2-1.3 0.5-2.6c0.1-0.7 0.5-1.4 1.1-1.9 0.6-0.6 1.4-0.7 2.2-0.9q0.6-0.1 1.2-0.1 0.6-0.1 1.2 0 0.3 0.1 0.6 0.3 0.2 0.2 0.3 0.4 0.2 0.6 0.4 1.3c0.2 0.8 0.3 1.7 0.4 2.5q0.5 2.6 1.5 5c0.6 1.6 1.2 3.3 0.9 5 0 0.8-0.3 1.5-0.8 2.1-0.5 0.5-1.1 1-1.8 1.2q-1.2 0.4-2.5 0.5-1.3 0.2-2.6-0.1c-0.5-0.1-0.3-0.9 0.2-0.8z"></path><path id="Layer" class="s4" d="m14.1 27.3c0 0 2.3 3.1 5.9 3.1z"></path><path id="Layer" class="s7" d="m14.1 27.3c0 0 2.3 3.1 5.9 3.1"></path></svg>