<svg xmlns="http://www.w3.org/2000/svg" viewBox="0 0 3174 451" width="3174" height="451"><title>New Project</title><style> .s0 { fill: #fff6e1 } </style><path id="Layer" class="s0" d="m14.4 43.1c1.2-23.5 20.7-41.9 44.2-41.4c69.2 1.3 209.8 3.6 317 3.6c148 0 203.6-11.9 392.5 0c189 12 147.4 0 331.3 0c128.5 0 251.3-2.2 313.8-3.5c23.6-0.5 43.2 18 43.9 41.6c3.1 108.6 9.9 388.6-1.3 400.7c-14 14.9-539.8 2.5-665.3-7c-125.5-9.5-135.9 6.3-229.8 3.5c-92.3-2.7-186.9-3.5-190.5-3.5c-0.1 0-0.1 0-0.2 0h-318c-20.7 0-38.4-14.7-41.4-35.2c-6.2-44.1-14.7-121.4-8.3-183.6c6-58.9 10-130.6 12.1-175.2z"></path></svg>