<svg xmlns="http://www.w3.org/2000/svg" width="54" height="56" viewBox="0 0 54 56" fill="none"><path d="M19.585 23.8214C13.9762 20.5736 7.36015 27.1627 4.56919 31.7422C3.95357 32.7542 2.44083 31.9569 2.79759 30.8553C4.68522 25.0235 4.63234 18.4322 0.525719 13.7161C-0.40324 12.655 0.740022 11.2191 1.97654 11.5181C8.84435 13.192 15.1556 6.14623 18.8558 1.03379C19.0149 0.809704 19.2463 0.648951 19.5083 0.580414C19.7703 0.511877 20.0457 0.54006 20.2851 0.659891C20.5245 0.779723 20.7121 0.983351 20.8142 1.23417C20.9163 1.48498 20.9262 1.76652 20.8422 2.02821C19.5081 7.22103 17.1084 16.1369 20.0443 21.1071C20.3908 21.2483 20.7287 21.4095 21.0565 21.5898C22.5079 22.4084 21.0315 24.6576 19.585 23.8214ZM17.2018 6.69454C13.6401 10.7602 9.24554 14.4129 4.16609 14.5024C6.0075 18.0965 6.41859 22.1988 5.87821 26.2728C8.9119 22.8029 13.1436 20.1368 17.3728 20.4778C15.6164 16.4261 16.1214 11.3183 17.2018 6.69454Z" fill="#231F20"></path><path d="M42.8143 52.006C37.7388 46.0593 27.5673 50.8973 22.5536 54.9856C21.447 55.8894 20.0465 54.3751 20.8947 53.2654C25.3837 47.3899 27.9704 39.8714 25.1931 32.8578C24.5626 31.2778 26.4396 30.1036 27.7261 30.9402C34.8658 35.6022 44.8739 30.1223 51.1358 25.793C51.4068 25.6021 51.7346 25.5121 52.0601 25.5394C52.3856 25.5666 52.6876 25.7093 52.9118 25.9417C53.1359 26.1742 53.2675 26.4811 53.283 26.8074C53.2984 27.1337 53.1966 27.4579 52.996 27.7219C49.3932 33.0927 43.0832 42.2706 44.4268 49.1029C44.7642 49.4027 45.0838 49.7217 45.3843 50.0584C46.7065 51.5724 44.1239 53.538 42.8143 52.006ZM46.9812 31.5677C41.2973 34.762 34.8318 37.1521 29.0182 35.2141C29.6694 40.0418 28.4896 44.873 26.239 49.29C31.0831 46.5614 36.9671 45.2281 41.6408 47.3143C41.27 42.0004 43.8956 36.3932 46.9812 31.5677Z" fill="#231F20"></path></svg>