<svg xmlns="http://www.w3.org/2000/svg" width="103" height="84" viewBox="0 0 103 84" fill="none"><g clip-path="url(#clip0_439_4518)"><path d="M7.9526 46.2587C9.89309 39.7488 13.9123 34.0536 19.3956 30.0439C26.5619 25.0205 36.7194 24.8854 38.8284 35.1036C39.2277 36.9875 39.2274 38.9342 38.8275 40.8179C38.4276 42.7017 37.6371 44.4807 36.5069 46.0399C33.2177 50.3082 26.4713 50.0578 27.823 43.4522C29.2506 36.5253 38.7845 31.5234 45.0049 30.164C53.0951 28.3899 63.0735 31.655 61.0211 41.8912C60.5351 44.0371 59.6045 46.0572 58.2895 47.8213C57.8488 48.4464 57.3676 49.0421 56.8491 49.6044C55.819 51.094 54.2201 51.1094 52.1027 49.6412C51.6042 46.7816 56.9042 41.6975 58.7922 39.9829C63.1362 36.0355 73.4049 29.4252 79.0367 34.2367C85.352 39.6254 80.2148 48.3715 77.9827 54.2847C77.1496 56.4817 80.361 58.7183 81.7177 56.484C86.0868 49.4243 89.3016 39.1321 83.1157 32.0758C76.9299 25.0195 66.2333 29.2697 59.7743 33.5037C54.4199 37.0262 43.6268 46.981 48.5871 54.2587C54.2739 62.6243 63.2296 49.7751 64.8231 44.5269C67.4127 36.0361 62.7881 27.4714 53.9986 25.723C44.4012 23.8134 33.8274 28.6392 27.4844 35.7459C23.1351 40.6218 20.8488 51.0809 29.4175 53.2192C37.9861 55.3576 43.2452 44.2792 43.089 37.4587C42.8631 27.9623 35.2807 20.6464 25.6661 22.8908C15.2253 25.3583 7.7598 35.4996 5.28762 45.4407C4.90928 46.9709 7.48139 47.7184 7.97115 46.1974L7.9526 46.2587Z" fill="#404040"></path><path d="M73.3312 40.8698C74.4819 43.4455 75.287 46.162 75.7255 48.9487C76.1459 51.3979 76.0798 53.9233 76.8884 56.2926C77.6969 58.6618 81.2472 58.059 81.6513 55.7321C82.6263 50.096 78.8621 43.9228 76.1421 39.2813C75.2094 37.705 72.5841 39.2192 73.3404 40.8661L73.3312 40.8698Z" fill="#404040"></path><path d="M96.6524 40.6263C89.784 44.5405 83.3213 49.127 77.3592 54.3182C74.6432 56.7089 78.1896 61.235 80.7458 58.7682C86.3614 53.2884 92.3075 47.8271 98.4135 42.9265C98.6925 42.6853 98.8692 42.3469 98.9074 41.98C98.9457 41.6132 98.8428 41.2455 98.6195 40.9519C98.3963 40.6583 98.0695 40.4608 97.7058 40.3996C97.342 40.3385 96.9687 40.4182 96.6617 40.6226L96.6524 40.6263Z" fill="#404040"></path><path d="M41.9564 22.7639C44.8079 21.7135 47.8768 21.393 50.8837 21.8315C53.8907 22.27 56.7403 23.4537 59.173 25.2747C59.4107 25.4255 59.696 25.4821 59.9733 25.4335C60.2505 25.385 60.4996 25.2347 60.6719 25.0122C60.8442 24.7896 60.9272 24.5108 60.9047 24.2302C60.8822 23.9496 60.7558 23.6876 60.5503 23.4953C57.8894 21.39 54.6768 20.0988 51.2991 19.777C47.9215 19.4552 44.5227 20.1165 41.5122 21.6815C41.3873 21.7515 41.2922 21.8646 41.2445 21.9996C41.1968 22.1347 41.1999 22.2824 41.2531 22.4154C41.3063 22.5483 41.4061 22.6574 41.5338 22.7222C41.6615 22.787 41.8084 22.8032 41.9471 22.7677L41.9564 22.7639Z" fill="#404040"></path><path d="M62.6091 25.3801C62.3172 25.5148 62.0577 25.7106 61.8479 25.9541C61.7068 26.1373 61.616 26.354 61.5842 26.583C61.5525 26.812 61.581 27.0453 61.6669 27.2599C61.7529 27.4745 61.8932 27.663 62.0742 27.8068C62.2552 27.9507 62.4706 28.0448 62.699 28.0801C63.0195 28.1098 63.3426 28.0756 63.6498 27.9795C63.9945 27.8415 64.2702 27.5722 64.4164 27.2308C64.5626 26.8895 64.5671 26.5041 64.4291 26.1594C64.2911 25.8147 64.0218 25.5389 63.6805 25.3928C63.3392 25.2466 62.9538 25.2421 62.6091 25.3801V25.3801Z" fill="#404040"></path></g><defs><clipPath id="clip0_439_4518"><rect width="88.68" height="54.17" fill="white" transform="translate(0 32.9609) rotate(-21.8195)"></rect></clipPath></defs></svg>