<svg xmlns="http://www.w3.org/2000/svg" width="85" height="103" viewBox="0 0 85 103" fill="none"><g clip-path="url(#clip0_439_4878)"><path d="M69.5564 85.6344C72.8907 79.7161 74.1948 72.8685 73.2695 66.1389C71.9041 57.4944 64.9446 50.0946 56.1298 55.6765C54.4973 56.6981 53.0973 58.0507 52.0202 59.647C50.943 61.2434 50.2127 63.0479 49.8763 64.944C49.0913 70.2751 53.9583 74.9537 57.7706 69.3924C61.761 63.5532 58.7354 53.2208 55.3917 47.8022C51.0473 40.7507 41.7665 35.8418 35.8297 44.4294C34.6239 46.2698 33.8173 48.3425 33.4621 50.5139C33.3186 51.2652 33.2245 52.0252 33.1802 52.7888C32.8244 54.5646 33.9241 55.7253 36.4512 56.2283C38.8543 54.6003 38.8292 47.256 38.7508 44.7069C38.5721 38.84 36.1928 26.8616 28.8195 26.1534C20.556 25.3547 17.8343 35.1259 15.1317 40.8394C14.1302 42.965 10.2904 42.209 10.955 39.6809C12.9975 31.6338 18.167 22.1711 27.5399 21.7183C36.9129 21.2654 41.287 31.9119 42.7288 39.4992C43.915 45.7976 44.2531 60.4767 35.5723 61.9649C25.6044 63.6864 28.6247 48.318 31.2926 43.5258C35.6007 35.7643 44.9739 33.1406 52.3378 38.248C60.3789 43.8245 64.2537 54.7826 63.5486 64.2821C63.0631 70.7979 57.1286 79.7086 49.6376 75.031C42.1467 70.3533 46.4614 58.8741 51.4758 54.2481C58.4632 47.8132 68.993 48.1844 74.0582 56.6592C79.537 65.8833 77.4291 78.2984 71.9962 86.9829C71.1584 88.3182 68.8338 86.9874 69.5876 85.5785L69.5564 85.6344Z" fill="#404040"></path><path d="M62.8274 44.8567C61.6019 42.0759 59.7004 39.6459 57.296 37.7877C54.8915 35.9295 52.0605 34.7022 49.0606 34.2175C48.7871 34.1513 48.5481 33.9854 48.3904 33.7522C48.2327 33.5191 48.1677 33.2355 48.2081 32.957C48.2485 32.6784 48.3914 32.425 48.6088 32.2463C48.8263 32.0675 49.1026 31.9764 49.3837 31.9906C52.7465 32.4419 55.9072 33.8556 58.4852 36.0615C61.0632 38.2674 62.9487 41.1715 63.9146 44.4241C63.9509 44.5626 63.9357 44.7096 63.8717 44.8377C63.8077 44.9658 63.6993 45.0663 63.5667 45.1204C63.4341 45.1744 63.2864 45.1784 63.151 45.1316C63.0157 45.0848 62.902 44.9904 62.8312 44.8659L62.8274 44.8567Z" fill="#404040"></path><path d="M46.6051 31.8205C46.7109 32.124 46.7504 32.4467 46.721 32.7668C46.6873 32.9955 46.5945 33.2114 46.4518 33.3933C46.3092 33.5752 46.1216 33.7168 45.9075 33.8041C45.6935 33.8914 45.4603 33.9214 45.2311 33.8911C45.002 33.8609 44.7846 33.7714 44.6006 33.6315C44.3565 33.4217 44.1566 33.1655 44.0124 32.8778C43.8722 32.534 43.8743 32.1486 44.0183 31.8063C44.1622 31.4641 44.4363 31.193 44.7801 31.0528C45.1239 30.9126 45.5093 30.9147 45.8516 31.0587C46.1939 31.2026 46.4649 31.4767 46.6051 31.8205V31.8205Z" fill="#404040"></path></g><defs><clipPath id="clip0_439_4878"><rect width="88.68" height="54.17" fill="white" transform="matrix(-0.377615 -0.925963 -0.925963 0.377615 84.6445 82.1172)"></rect></clipPath></defs></svg>