<svg xmlns="http://www.w3.org/2000/svg" width="77" height="67" viewBox="0 0 77 67" fill="none"><path d="M63.7415 54.702C55.3325 56.049 46.7671 54.4259 40.0801 48.9008C36.3664 45.8294 33.9643 42.5791 36.1527 37.7133C37.654 34.4136 39.8744 31.4621 40.8904 27.9506C42.5576 22.2538 40.4743 16.578 36.176 12.6444C30.5739 7.50022 22.7815 6.55337 15.5166 5.96878C12.2306 5.70201 11.8568 10.7341 15.1418 11.0729C23.0295 11.9517 38.1299 14.18 36.5328 25.5167C35.6453 31.8093 28.7234 37.598 31.072 44.3536C32.9697 49.805 39.6585 53.9849 44.6226 56.083C50.8104 58.7066 57.716 59.1057 64.1649 57.2125C65.6855 56.7645 65.3282 54.4935 63.7019 54.7597L63.7415 54.702Z" fill="#404040"></path><path d="M57.4882 51.8511C51.9924 50.2976 43.0435 48.9328 40.8245 42.8363C40.4772 41.858 39.0171 42.5537 39.37 43.5237C41.7463 50.0801 51.1866 52.231 57.3459 52.5176C57.7147 52.5282 57.8555 51.9698 57.4825 51.8593L57.4882 51.8511Z" fill="#404040"></path><path d="M40.0954 39.2798C39.8527 39.1132 39.5537 39.0498 39.2643 39.1036C38.9748 39.1574 38.7186 39.324 38.552 39.5666C38.3854 39.8093 38.322 40.1083 38.3758 40.3977C38.4296 40.6871 38.5961 40.9434 38.8388 41.11C39.0815 41.2766 39.3805 41.34 39.6699 41.2862C39.9593 41.2324 40.2156 41.0659 40.3822 40.8232C40.5488 40.5805 40.6122 40.2815 40.5584 39.9921C40.5046 39.7027 40.3381 39.4465 40.0954 39.2798Z" fill="#404040"></path></svg>